<svg width="213" height="101" viewBox="0 0 213 101" fill="none" xmlns="http://www.w3.org/2000/svg">
<g clip-path="url(#clip0_1668_1208)">
<g clip-path="url(#clip1_1668_1208)">
<path fill-rule="evenodd" clip-rule="evenodd" d="M156.208 95.2167C168.8 95.2167 180.203 89.9435 188.449 81.4202C196.702 72.8968 201.806 61.108 201.806 48.0995C201.806 35.0909 196.702 23.3021 188.449 14.7788C186.654 12.9301 184.716 11.233 182.649 9.71019C177.212 10.0739 172.147 3.67943 172.457 0.762542C179.173 3.55821 182.49 2.11113 183.133 9.31622C185.178 10.8315 187.101 12.521 188.873 14.3545C197.232 22.9915 202.404 34.9242 202.404 48.0995C202.404 61.2747 197.232 73.2074 188.873 81.8444C181.081 89.8905 170.534 95.0727 158.812 95.7546L156.2 95.2242L156.208 95.2167ZM187.783 10.9754C190.433 7.49032 187.934 1.34592 185.791 0.444336C185.163 6.10386 182.891 7.76307 187.783 10.9754ZM192.167 16.8395C195.521 14.0211 194.431 7.48275 192.53 6.12658C190.675 11.5058 188.101 12.6271 192.167 16.8395ZM188.631 17.2714C187.078 11.7785 184.875 13.3999 179.431 12.324C179.643 14.5818 184.61 18.7184 188.631 17.2714ZM193.242 24.5295C192.227 18.9079 189.872 20.3095 184.564 18.7184C184.564 20.9913 189.108 25.575 193.242 24.5295ZM196.929 23.3627C200.428 20.4231 199.284 13.6044 197.316 12.1952C195.377 17.8017 192.697 18.9685 196.929 23.3627ZM199.882 30.0981C204.191 28.5828 205.531 21.802 204.183 19.7867C200.39 24.3477 197.467 24.4916 199.882 30.0981ZM198.148 33.856C198.353 27.5221 195.476 28.4919 190.092 25.5296C189.554 27.9919 193.424 34.0302 198.148 33.856ZM202.858 38.1214C207.742 36.4016 209.272 28.7116 207.742 26.4236C203.441 31.5982 200.125 31.7573 202.858 38.1214ZM199.943 42.4324C200.844 36.1667 197.883 36.8107 192.856 33.265C192.053 35.6515 195.226 42.0763 199.943 42.4324ZM203.971 46.2054C209.302 45.3796 212.323 37.7881 211.187 35.1515C205.804 39.6291 202.374 39.167 203.971 46.2054ZM203.676 54.403C203.199 46.8721 206.659 47.9176 212.967 44.1901C213.701 47.0994 209.317 54.4333 203.676 54.403ZM200.465 53.6075C202.782 46.069 199.012 46.2963 193.514 40.9626C192.061 43.7431 194.733 52.2589 200.465 53.6075ZM201.359 63.5173C207.265 64.5553 213.163 57.6456 212.914 54.4636C205.637 57.2517 202.192 55.5394 201.359 63.5173ZM198.027 70.2754C202.964 73.6772 211.202 69.8587 212.3 66.866C204.524 66.366 202.109 63.3733 198.027 70.2754ZM197.444 64.0098C200.836 56.8274 197.043 56.5092 192.318 50.4102C190.471 52.9786 191.917 61.8505 197.444 64.0098ZM193.136 76.9653C197.247 81.3368 206.106 79.3367 207.81 76.6395C200.314 74.5106 198.588 71.0785 193.136 76.9653ZM191.546 74.2908C196.846 68.8662 193.522 67.3964 191.152 60.411C188.691 62.1536 187.222 70.6163 191.546 74.2908ZM187.858 84.1477C191.97 88.5192 200.829 86.519 202.533 83.8219C195.036 81.6929 193.31 78.2608 187.858 84.1477ZM182.55 83.981C189.925 80.5792 187.162 77.8366 187.464 69.942C184.337 70.7375 179.635 78.6472 182.55 83.981ZM180.703 89.6708C183.807 95.2849 193.507 95.5576 195.99 93.2165C188.79 89.0344 187.904 85.0113 180.703 89.6708ZM172.525 93.5044C174.426 99.4897 183.686 101.611 186.51 99.8382C180.4 94.4363 180.324 90.4133 172.525 93.5044ZM170.458 90.8679C179.31 89.6708 177.288 85.8902 180.142 77.6926C176.591 77.5259 169.103 84.3219 170.458 90.8679Z" fill="url(#paint0_linear_1668_1208)"/>
</g>
<g clip-path="url(#clip2_1668_1208)">
<path fill-rule="evenodd" clip-rule="evenodd" d="M58.8352 95.2167C46.2432 95.2167 34.8399 89.9435 26.5941 81.4202C18.3408 72.8968 13.2373 61.108 13.2373 48.0995C13.2373 35.0909 18.3408 23.3021 26.5941 14.7788C28.3887 12.9301 30.3271 11.233 32.3942 9.71019C37.8308 10.0739 42.8964 3.67943 42.5859 0.762542C35.8697 3.55821 32.5532 2.11113 31.9096 9.31622C29.8652 10.8315 27.9419 12.521 26.1701 14.3545C17.8108 22.9915 12.6392 34.9242 12.6392 48.0995C12.6392 61.2747 17.8108 73.2074 26.1701 81.8444C33.9616 89.8905 44.5092 95.0727 56.2305 95.7546L58.8428 95.2242L58.8352 95.2167ZM27.2605 10.9754C24.6103 7.49032 27.109 1.34592 29.2519 0.444336C29.8803 6.10386 32.1519 7.76307 27.2605 10.9754ZM22.8763 16.8395C19.522 14.0211 20.6123 7.48275 22.5129 6.12658C24.368 11.5058 26.9424 12.6271 22.8763 16.8395ZM26.4124 17.2714C27.9646 11.7785 30.1681 13.3999 35.6122 12.324C35.4002 14.5818 30.4331 18.7184 26.4124 17.2714ZM21.8011 24.5295C22.8158 18.9079 25.1706 20.3095 30.4785 18.7184C30.4785 20.9913 25.9354 25.575 21.8011 24.5295ZM18.1136 23.3627C14.6154 20.4231 15.7588 13.6044 17.7275 12.1952C19.6659 17.8017 22.3463 18.9685 18.1136 23.3627ZM15.1606 30.0981C10.8522 28.5828 9.51197 21.802 10.8598 19.7867C14.6533 24.3477 17.576 24.4916 15.1606 30.0981ZM16.8946 33.856C16.6901 27.5221 19.5674 28.4919 24.951 25.5296C25.4886 27.9919 21.6194 34.0302 16.8946 33.856ZM12.1848 38.1214C7.30098 36.4016 5.77146 28.7116 7.30098 26.4236C11.6018 31.5982 14.9183 31.7573 12.1848 38.1214ZM15.1 42.4324C14.199 36.1667 17.1596 36.8107 22.1873 33.265C22.9899 35.6515 19.8173 42.0763 15.1 42.4324ZM11.0718 46.2054C5.74117 45.3796 2.71999 37.7881 3.85577 35.1515C9.23938 39.6291 12.6694 39.167 11.0718 46.2054ZM11.3671 54.403C11.8441 46.8721 8.38376 47.9176 2.07638 44.1901C1.34191 47.0994 5.72603 54.4333 11.3671 54.403ZM14.5776 53.6075C12.2606 46.069 16.0314 46.2963 21.5285 40.9626C22.9823 43.7431 20.3095 52.2589 14.5776 53.6075ZM13.6841 63.5173C7.77801 64.5553 1.87951 57.6456 2.12938 54.4636C9.40596 57.2517 12.8512 55.5394 13.6841 63.5173ZM17.0157 70.2754C12.0788 73.6772 3.84063 69.8587 2.74271 66.866C10.519 66.366 12.9345 63.3733 17.0157 70.2754ZM17.5987 64.0098C14.2065 56.8274 18 56.5092 22.7249 50.4102C24.5724 52.9786 23.1262 61.8505 17.5987 64.0098ZM21.9071 76.9653C17.7956 81.3368 8.9365 79.3367 7.23283 76.6395C14.729 74.5106 16.4554 71.0785 21.9071 76.9653ZM23.4972 74.2908C18.1969 68.8662 21.521 67.3964 23.891 60.411C26.3518 62.1536 27.8208 70.6163 23.4972 74.2908ZM27.1847 84.1477C23.0732 88.5192 14.2141 86.519 12.5104 83.8219C20.0066 81.6929 21.733 78.2608 27.1847 84.1477ZM32.4926 83.981C25.1176 80.5792 27.8814 77.8366 27.5785 69.942C30.7057 70.7375 35.4078 78.6472 32.4926 83.981ZM34.3402 89.6708C31.2357 95.2849 21.5361 95.5576 19.0525 93.2165C26.2534 89.0344 27.1393 85.0113 34.3402 89.6708ZM42.5178 93.5044C40.6173 99.4897 31.3568 101.611 28.5325 99.8382C34.643 94.4363 34.7188 90.4133 42.5178 93.5044ZM44.5849 90.8679C35.7334 89.6708 37.7551 85.8902 34.9005 77.6926C38.4517 77.5259 45.9403 84.3219 44.5849 90.8679Z" fill="url(#paint1_linear_1668_1208)"/>
</g>
<path d="M55.7275 26.2443C55.615 25.9 55.4667 25.5915 55.2826 25.3188C55.1019 25.0426 54.8854 24.8074 54.6332 24.6131C54.3843 24.4188 54.1013 24.2705 53.7843 24.1682C53.4672 24.0659 53.1195 24.0148 52.7411 24.0148C52.1207 24.0148 51.5564 24.175 51.0485 24.4955C50.5405 24.8159 50.1366 25.2881 49.8366 25.9119C49.5366 26.5358 49.3866 27.3012 49.3866 28.208C49.3866 29.1148 49.5383 29.8801 49.8417 30.504C50.1451 31.1279 50.5559 31.6 51.0741 31.9205C51.5922 32.2409 52.1752 32.4012 52.8229 32.4012C53.4229 32.4012 53.9513 32.2733 54.4082 32.0176C54.8684 31.7585 55.2263 31.3938 55.482 30.9233C55.7411 30.4494 55.8707 29.8921 55.8707 29.2512L56.2593 29.333H53.1093V28.208H57.0979V29.333C57.0979 30.1955 56.9138 30.9455 56.5457 31.583C56.1809 32.2205 55.6763 32.7148 55.032 33.0659C54.3911 33.4137 53.6547 33.5875 52.8229 33.5875C51.8957 33.5875 51.0809 33.3693 50.3786 32.933C49.6797 32.4966 49.1343 31.8762 48.7422 31.0716C48.3536 30.2671 48.1593 29.3125 48.1593 28.208C48.1593 27.3796 48.2701 26.6347 48.4917 25.9733C48.7167 25.3085 49.0337 24.7426 49.4428 24.2756C49.8519 23.8085 50.336 23.4506 50.8951 23.2017C51.4542 22.9529 52.0695 22.8284 52.7411 22.8284C53.2934 22.8284 53.8082 22.9119 54.2854 23.079C54.7661 23.2426 55.1939 23.4762 55.5689 23.7796C55.9474 24.0796 56.2627 24.4392 56.515 24.8585C56.7672 25.2744 56.9411 25.7364 57.0366 26.2443H55.7275ZM60.3131 22.9716V33.4443H59.1063V22.9716H60.3131ZM64.8349 33.6284C64.3371 33.6284 63.8854 33.5347 63.4797 33.3472C63.0741 33.1563 62.7519 32.8818 62.5133 32.5239C62.2746 32.1625 62.1553 31.7262 62.1553 31.2148C62.1553 30.7648 62.2439 30.4 62.4212 30.1205C62.5985 29.8375 62.8354 29.6159 63.132 29.4557C63.4286 29.2955 63.7559 29.1762 64.1138 29.0977C64.4752 29.0159 64.8383 28.9512 65.203 28.9034C65.6803 28.8421 66.0672 28.796 66.3638 28.7654C66.6638 28.7313 66.882 28.675 67.0184 28.5966C67.1582 28.5182 67.228 28.3818 67.228 28.1875V28.1466C67.228 27.6421 67.09 27.25 66.8138 26.9705C66.5411 26.6909 66.1269 26.5512 65.5712 26.5512C64.9951 26.5512 64.5434 26.6773 64.2161 26.9296C63.8888 27.1818 63.6587 27.4512 63.5258 27.7375L62.3803 27.3284C62.5849 26.8512 62.8576 26.4796 63.1985 26.2137C63.5428 25.9443 63.9178 25.7568 64.3235 25.6512C64.7326 25.5421 65.1349 25.4875 65.5303 25.4875C65.7826 25.4875 66.0724 25.5182 66.3996 25.5796C66.7303 25.6375 67.0491 25.7585 67.3559 25.9426C67.6661 26.1267 67.9235 26.4046 68.128 26.7762C68.3326 27.1477 68.4349 27.6455 68.4349 28.2693V33.4443H67.228V32.3807H67.1667C67.0849 32.5512 66.9485 32.7335 66.7576 32.9279C66.5667 33.1222 66.3127 33.2875 65.9957 33.4239C65.6786 33.5602 65.2917 33.6284 64.8349 33.6284ZM65.0189 32.5443C65.4962 32.5443 65.8985 32.4506 66.2258 32.2631C66.5564 32.0756 66.8053 31.8335 66.9724 31.5369C67.1428 31.2404 67.228 30.9284 67.228 30.6012V29.4966C67.1769 29.558 67.0644 29.6142 66.8905 29.6654C66.7201 29.7131 66.5224 29.7557 66.2974 29.7932C66.0758 29.8273 65.8593 29.858 65.6479 29.8852C65.44 29.9091 65.2712 29.9296 65.1417 29.9466C64.828 29.9875 64.5349 30.054 64.2621 30.146C63.9928 30.2347 63.7746 30.3693 63.6076 30.55C63.4439 30.7273 63.3621 30.9693 63.3621 31.2762C63.3621 31.6955 63.5172 32.0125 63.8275 32.2273C64.1411 32.4387 64.5383 32.5443 65.0189 32.5443ZM71.8444 28.7193V33.4443H70.6376V25.5898H71.8035V26.8171H71.9057C72.0898 26.4182 72.3694 26.0977 72.7444 25.8557C73.1194 25.6102 73.6035 25.4875 74.1966 25.4875C74.7285 25.4875 75.1938 25.5966 75.5927 25.8148C75.9915 26.0296 76.3018 26.3568 76.5233 26.7966C76.7449 27.233 76.8557 27.7852 76.8557 28.4534V33.4443H75.6489V28.5352C75.6489 27.9182 75.4887 27.4375 75.1682 27.0932C74.8478 26.7455 74.408 26.5716 73.8489 26.5716C73.4637 26.5716 73.1194 26.6551 72.816 26.8222C72.516 26.9892 72.279 27.233 72.1052 27.5534C71.9313 27.8739 71.8444 28.2625 71.8444 28.7193ZM82.4769 25.5898V26.6125H78.4064V25.5898H82.4769ZM79.5928 23.708H80.7996V31.1943C80.7996 31.5352 80.8491 31.7909 80.9479 31.9614C81.0502 32.1284 81.1797 32.2409 81.3366 32.2989C81.4968 32.3534 81.6655 32.3807 81.8428 32.3807C81.9758 32.3807 82.0849 32.3739 82.1701 32.3602C82.2553 32.3432 82.3235 32.3296 82.3746 32.3193L82.6201 33.4034C82.5383 33.4341 82.4241 33.4648 82.2775 33.4955C82.1309 33.5296 81.9451 33.5466 81.7201 33.5466C81.3792 33.5466 81.0451 33.4733 80.7178 33.3267C80.3939 33.1801 80.1246 32.9568 79.9099 32.6568C79.6985 32.3568 79.5928 31.9784 79.5928 31.5216V23.708ZM87.3988 33.608C86.6897 33.608 86.0675 33.4392 85.5323 33.1017C85.0005 32.7642 84.5846 32.2921 84.2846 31.6852C83.988 31.0784 83.8397 30.3693 83.8397 29.558C83.8397 28.7398 83.988 28.0256 84.2846 27.4154C84.5846 26.8051 85.0005 26.3313 85.5323 25.9938C86.0675 25.6563 86.6897 25.4875 87.3988 25.4875C88.1079 25.4875 88.7283 25.6563 89.2601 25.9938C89.7954 26.3313 90.2113 26.8051 90.5079 27.4154C90.8079 28.0256 90.9579 28.7398 90.9579 29.558C90.9579 30.3693 90.8079 31.0784 90.5079 31.6852C90.2113 32.2921 89.7954 32.7642 89.2601 33.1017C88.7283 33.4392 88.1079 33.608 87.3988 33.608ZM87.3988 32.5239C87.9374 32.5239 88.3806 32.3858 88.7283 32.1097C89.076 31.8335 89.3334 31.4705 89.5005 31.0205C89.6675 30.5705 89.751 30.083 89.751 29.558C89.751 29.033 89.6675 28.5438 89.5005 28.0904C89.3334 27.6369 89.076 27.2705 88.7283 26.9909C88.3806 26.7114 87.9374 26.5716 87.3988 26.5716C86.8601 26.5716 86.417 26.7114 86.0692 26.9909C85.7215 27.2705 85.4641 27.6369 85.2971 28.0904C85.13 28.5438 85.0465 29.033 85.0465 29.558C85.0465 30.083 85.13 30.5705 85.2971 31.0205C85.4641 31.4705 85.7215 31.8335 86.0692 32.1097C86.417 32.3858 86.8601 32.5239 87.3988 32.5239ZM92.8001 33.4443V25.5898H93.966V26.7762H94.0478C94.191 26.3875 94.4501 26.0722 94.8251 25.8301C95.2001 25.5881 95.6228 25.4671 96.0932 25.4671C96.1819 25.4671 96.2927 25.4688 96.4256 25.4722C96.5586 25.4756 96.6591 25.4807 96.7273 25.4875V26.7148C96.6864 26.7046 96.5927 26.6892 96.4461 26.6688C96.3029 26.6449 96.1512 26.633 95.991 26.633C95.6091 26.633 95.2682 26.7131 94.9682 26.8733C94.6716 27.0301 94.4364 27.2483 94.2626 27.5279C94.0921 27.804 94.0069 28.1193 94.0069 28.4739V33.4443H92.8001ZM102.985 22.9716L105.685 27.3284H105.767L108.467 22.9716H109.96L106.667 28.208L109.96 33.4443H108.467L105.767 29.1693H105.685L102.985 33.4443H101.492L104.867 28.208L101.492 22.9716H102.985ZM114.963 27.6455V28.7705H110.381V27.6455H114.963ZM118.421 33.4443L115.557 22.9716H116.846L119.034 31.5012H119.137L121.366 22.9716H122.798L125.027 31.5012H125.13L127.318 22.9716H128.607L125.743 33.4443H124.434L122.123 25.0989H122.041L119.73 33.4443H118.421ZM132.483 33.608C131.774 33.608 131.152 33.4392 130.617 33.1017C130.085 32.7642 129.669 32.2921 129.369 31.6852C129.072 31.0784 128.924 30.3693 128.924 29.558C128.924 28.7398 129.072 28.0256 129.369 27.4154C129.669 26.8051 130.085 26.3313 130.617 25.9938C131.152 25.6563 131.774 25.4875 132.483 25.4875C133.192 25.4875 133.813 25.6563 134.345 25.9938C134.88 26.3313 135.296 26.8051 135.592 27.4154C135.892 28.0256 136.042 28.7398 136.042 29.558C136.042 30.3693 135.892 31.0784 135.592 31.6852C135.296 32.2921 134.88 32.7642 134.345 33.1017C133.813 33.4392 133.192 33.608 132.483 33.608ZM132.483 32.5239C133.022 32.5239 133.465 32.3858 133.813 32.1097C134.16 31.8335 134.418 31.4705 134.585 31.0205C134.752 30.5705 134.835 30.083 134.835 29.558C134.835 29.033 134.752 28.5438 134.585 28.0904C134.418 27.6369 134.16 27.2705 133.813 26.9909C133.465 26.7114 133.022 26.5716 132.483 26.5716C131.945 26.5716 131.501 26.7114 131.154 26.9909C130.806 27.2705 130.548 27.6369 130.381 28.0904C130.214 28.5438 130.131 29.033 130.131 29.558C130.131 30.083 130.214 30.5705 130.381 31.0205C130.548 31.4705 130.806 31.8335 131.154 32.1097C131.501 32.3858 131.945 32.5239 132.483 32.5239ZM137.884 33.4443V25.5898H139.05V26.8171H139.153C139.316 26.3977 139.58 26.0722 139.945 25.8404C140.31 25.6051 140.748 25.4875 141.259 25.4875C141.778 25.4875 142.209 25.6051 142.553 25.8404C142.901 26.0722 143.172 26.3977 143.366 26.8171H143.448C143.649 26.4114 143.951 26.0892 144.353 25.8506C144.755 25.6085 145.238 25.4875 145.8 25.4875C146.503 25.4875 147.077 25.7074 147.524 26.1472C147.97 26.5835 148.194 27.2637 148.194 28.1875V33.4443H146.987V28.1875C146.987 27.608 146.828 27.1938 146.511 26.9449C146.194 26.696 145.821 26.5716 145.391 26.5716C144.839 26.5716 144.411 26.7387 144.108 27.0727C143.804 27.4034 143.653 27.8227 143.653 28.3307V33.4443H142.425V28.0648C142.425 27.6182 142.28 27.2585 141.991 26.9858C141.701 26.7097 141.328 26.5716 140.871 26.5716C140.557 26.5716 140.264 26.6551 139.991 26.8222C139.722 26.9892 139.504 27.221 139.337 27.5176C139.173 27.8108 139.091 28.15 139.091 28.5352V33.4443H137.884ZM153.693 33.608C152.936 33.608 152.284 33.4409 151.735 33.1068C151.189 32.7693 150.768 32.2989 150.472 31.6955C150.178 31.0887 150.032 30.383 150.032 29.5784C150.032 28.7739 150.178 28.0648 150.472 27.4512C150.768 26.8341 151.181 26.3534 151.709 26.0091C152.241 25.6614 152.861 25.4875 153.571 25.4875C153.98 25.4875 154.384 25.5557 154.782 25.6921C155.181 25.8284 155.544 26.05 155.872 26.3568C156.199 26.6602 156.46 27.0625 156.654 27.5637C156.848 28.0648 156.946 28.6818 156.946 29.4148V29.9262H150.891V28.883H155.718C155.718 28.4398 155.63 28.0443 155.452 27.6966C155.278 27.3489 155.03 27.0744 154.706 26.8733C154.385 26.6722 154.007 26.5716 153.571 26.5716C153.09 26.5716 152.674 26.6909 152.323 26.9296C151.975 27.1648 151.707 27.4716 151.52 27.85C151.332 28.2284 151.239 28.6341 151.239 29.0671V29.7625C151.239 30.3557 151.341 30.8585 151.546 31.271C151.753 31.6801 152.042 31.9921 152.41 32.2068C152.778 32.4182 153.206 32.5239 153.693 32.5239C154.01 32.5239 154.297 32.4796 154.552 32.3909C154.811 32.2989 155.035 32.1625 155.222 31.9818C155.41 31.7977 155.555 31.5693 155.657 31.2966L156.823 31.6239C156.7 32.0193 156.494 32.3671 156.204 32.6671C155.914 32.9637 155.556 33.1955 155.13 33.3625C154.704 33.5262 154.225 33.608 153.693 33.608ZM159.988 28.7193V33.4443H158.781V25.5898H159.947V26.8171H160.049C160.234 26.4182 160.513 26.0977 160.888 25.8557C161.263 25.6102 161.747 25.4875 162.34 25.4875C162.872 25.4875 163.338 25.5966 163.736 25.8148C164.135 26.0296 164.446 26.3568 164.667 26.7966C164.889 27.233 164.999 27.7852 164.999 28.4534V33.4443H163.793V28.5352C163.793 27.9182 163.632 27.4375 163.312 27.0932C162.992 26.7455 162.552 26.5716 161.993 26.5716C161.607 26.5716 161.263 26.6551 160.96 26.8222C160.66 26.9892 160.423 27.233 160.249 27.5534C160.075 27.8739 159.988 28.2625 159.988 28.7193ZM46.8809 55.4443V44.9716H48.1491V54.3193H53.0172V55.4443H46.8809ZM58.1104 55.608C57.3536 55.608 56.7008 55.4409 56.1519 55.1068C55.6064 54.7693 55.1854 54.2989 54.8888 53.6955C54.5957 53.0887 54.4491 52.383 54.4491 51.5784C54.4491 50.7739 54.5957 50.0648 54.8888 49.4512C55.1854 48.8341 55.5979 48.3534 56.1263 48.0091C56.6582 47.6614 57.2786 47.4875 57.9877 47.4875C58.3968 47.4875 58.8008 47.5557 59.1996 47.6921C59.5985 47.8284 59.9616 48.05 60.2888 48.3568C60.6161 48.6602 60.8769 49.0625 61.0712 49.5637C61.2655 50.0648 61.3627 50.6818 61.3627 51.4148V51.9262H55.3082V50.883H60.1354C60.1354 50.4398 60.0468 50.0443 59.8695 49.6966C59.6957 49.3489 59.4468 49.0744 59.1229 48.8733C58.8025 48.6722 58.4241 48.5716 57.9877 48.5716C57.507 48.5716 57.0911 48.6909 56.74 48.9296C56.3922 49.1648 56.1246 49.4716 55.9371 49.85C55.7496 50.2284 55.6559 50.6341 55.6559 51.0671V51.7625C55.6559 52.3557 55.7582 52.8585 55.9627 53.271C56.1707 53.6801 56.4587 53.9921 56.8269 54.2068C57.1951 54.4182 57.6229 54.5239 58.1104 54.5239C58.4275 54.5239 58.7138 54.4796 58.9695 54.3909C59.2286 54.2989 59.4519 54.1625 59.6394 53.9818C59.8269 53.7977 59.9718 53.5693 60.0741 53.2966L61.24 53.6239C61.1172 54.0193 60.911 54.3671 60.6212 54.6671C60.3314 54.9637 59.9735 55.1955 59.5474 55.3625C59.1212 55.5262 58.6422 55.608 58.1104 55.608ZM65.5099 55.6284C65.0121 55.6284 64.5604 55.5347 64.1547 55.3472C63.7491 55.1563 63.4269 54.8818 63.1883 54.5239C62.9496 54.1625 62.8303 53.7262 62.8303 53.2148C62.8303 52.7648 62.9189 52.4 63.0962 52.1205C63.2735 51.8375 63.5104 51.6159 63.807 51.4557C64.1036 51.2955 64.4309 51.1762 64.7888 51.0977C65.1502 51.0159 65.5133 50.9512 65.878 50.9034C66.3553 50.8421 66.7422 50.796 67.0388 50.7654C67.3388 50.7313 67.557 50.675 67.6934 50.5966C67.8332 50.5182 67.903 50.3818 67.903 50.1875V50.1466C67.903 49.6421 67.765 49.25 67.4888 48.9705C67.2161 48.6909 66.8019 48.5512 66.2462 48.5512C65.6701 48.5512 65.2184 48.6773 64.8911 48.9296C64.5638 49.1818 64.3337 49.4512 64.2008 49.7375L63.0553 49.3284C63.2599 48.8512 63.5326 48.4796 63.8735 48.2137C64.2178 47.9443 64.5928 47.7568 64.9985 47.6512C65.4076 47.5421 65.8099 47.4875 66.2053 47.4875C66.4576 47.4875 66.7474 47.5182 67.0746 47.5796C67.4053 47.6375 67.7241 47.7585 68.0309 47.9426C68.3411 48.1267 68.5985 48.4046 68.803 48.7762C69.0076 49.1477 69.1099 49.6455 69.1099 50.2693V55.4443H67.903V54.3807H67.8417C67.7599 54.5512 67.6235 54.7335 67.4326 54.9279C67.2417 55.1222 66.9877 55.2875 66.6707 55.4239C66.3536 55.5602 65.9667 55.6284 65.5099 55.6284ZM65.6939 54.5443C66.1712 54.5443 66.5735 54.4506 66.9008 54.2631C67.2314 54.0756 67.4803 53.8335 67.6474 53.5369C67.8178 53.2404 67.903 52.9284 67.903 52.6012V51.4966C67.8519 51.558 67.7394 51.6142 67.5655 51.6654C67.3951 51.7131 67.1974 51.7557 66.9724 51.7932C66.7508 51.8273 66.5343 51.858 66.3229 51.8852C66.115 51.9091 65.9462 51.9296 65.8167 51.9466C65.503 51.9875 65.2099 52.054 64.9371 52.146C64.6678 52.2347 64.4496 52.3693 64.2826 52.55C64.1189 52.7273 64.0371 52.9693 64.0371 53.2762C64.0371 53.6955 64.1922 54.0125 64.5025 54.2273C64.8161 54.4387 65.2133 54.5443 65.6939 54.5443ZM74.2785 55.608C73.6239 55.608 73.0461 55.4426 72.5449 55.1119C72.0438 54.7779 71.6518 54.3074 71.3688 53.7006C71.0858 53.0904 70.9444 52.3693 70.9444 51.5375C70.9444 50.7125 71.0858 49.9966 71.3688 49.3898C71.6518 48.783 72.0455 48.3142 72.5501 47.9835C73.0546 47.6529 73.6376 47.4875 74.2989 47.4875C74.8103 47.4875 75.2143 47.5727 75.5108 47.7432C75.8108 47.9102 76.0393 48.1012 76.1961 48.3159C76.3563 48.5273 76.4807 48.7012 76.5694 48.8375H76.6716V44.9716H77.8785V55.4443H76.7126V54.2375H76.5694C76.4807 54.3807 76.3546 54.5614 76.191 54.7796C76.0273 54.9943 75.7938 55.1869 75.4904 55.3574C75.187 55.5244 74.783 55.608 74.2785 55.608ZM74.4421 54.5239C74.9262 54.5239 75.3353 54.3977 75.6694 54.1455C76.0035 53.8898 76.2574 53.5369 76.4313 53.0869C76.6052 52.6335 76.6921 52.1102 76.6921 51.5171C76.6921 50.9307 76.6069 50.4176 76.4364 49.9779C76.266 49.5347 76.0137 49.1904 75.6796 48.9449C75.3455 48.696 74.933 48.5716 74.4421 48.5716C73.9307 48.5716 73.5046 48.7029 73.1637 48.9654C72.8262 49.2244 72.5722 49.5773 72.4018 50.0239C72.2347 50.4671 72.1512 50.9648 72.1512 51.5171C72.1512 52.0762 72.2364 52.5841 72.4069 53.0409C72.5807 53.4943 72.8364 53.8557 73.1739 54.125C73.5148 54.3909 73.9376 54.5239 74.4421 54.5239ZM83.5495 55.608C82.7927 55.608 82.1398 55.4409 81.591 55.1068C81.0455 54.7693 80.6245 54.2989 80.3279 53.6955C80.0347 53.0887 79.8881 52.383 79.8881 51.5784C79.8881 50.7739 80.0347 50.0648 80.3279 49.4512C80.6245 48.8341 81.037 48.3534 81.5654 48.0091C82.0972 47.6614 82.7177 47.4875 83.4268 47.4875C83.8359 47.4875 84.2398 47.5557 84.6387 47.6921C85.0376 47.8284 85.4006 48.05 85.7279 48.3568C86.0552 48.6602 86.316 49.0625 86.5103 49.5637C86.7046 50.0648 86.8018 50.6818 86.8018 51.4148V51.9262H80.7472V50.883H85.5745C85.5745 50.4398 85.4859 50.0443 85.3086 49.6966C85.1347 49.3489 84.8859 49.0744 84.562 48.8733C84.2415 48.6722 83.8631 48.5716 83.4268 48.5716C82.9461 48.5716 82.5302 48.6909 82.179 48.9296C81.8313 49.1648 81.5637 49.4716 81.3762 49.85C81.1887 50.2284 81.0949 50.6341 81.0949 51.0671V51.7625C81.0949 52.3557 81.1972 52.8585 81.4018 53.271C81.6097 53.6801 81.8978 53.9921 82.266 54.2068C82.6341 54.4182 83.062 54.5239 83.5495 54.5239C83.8665 54.5239 84.1529 54.4796 84.4086 54.3909C84.6677 54.2989 84.891 54.1625 85.0785 53.9818C85.266 53.7977 85.4109 53.5693 85.5131 53.2966L86.679 53.6239C86.5563 54.0193 86.3501 54.3671 86.0603 54.6671C85.7705 54.9637 85.4126 55.1955 84.9864 55.3625C84.5603 55.5262 84.0813 55.608 83.5495 55.608ZM88.6376 55.4443V47.5898H89.8035V48.7762H89.8853C90.0285 48.3875 90.2876 48.0722 90.6626 47.8301C91.0376 47.5881 91.4603 47.4671 91.9307 47.4671C92.0194 47.4671 92.1302 47.4688 92.2631 47.4722C92.3961 47.4756 92.4966 47.4807 92.5648 47.4875V48.7148C92.5239 48.7046 92.4302 48.6892 92.2836 48.6688C92.1404 48.6449 91.9887 48.633 91.8285 48.633C91.4466 48.633 91.1057 48.7131 90.8057 48.8733C90.5091 49.0301 90.2739 49.2483 90.1001 49.5279C89.9296 49.804 89.8444 50.1193 89.8444 50.4739V55.4443H88.6376ZM99.559 49.3489L98.4749 49.6557C98.4067 49.475 98.3062 49.2994 98.1732 49.129C98.0437 48.9551 97.8664 48.8119 97.6414 48.6994C97.4164 48.5869 97.1283 48.5307 96.7772 48.5307C96.2965 48.5307 95.8959 48.6415 95.5755 48.8631C95.2584 49.0813 95.0999 49.3591 95.0999 49.6966C95.0999 49.9966 95.209 50.2335 95.4272 50.4074C95.6454 50.5813 95.9863 50.7262 96.4499 50.8421L97.6158 51.1284C98.3181 51.2989 98.8414 51.5597 99.1857 51.9108C99.53 52.2585 99.7022 52.7068 99.7022 53.2557C99.7022 53.7057 99.5726 54.108 99.3135 54.4625C99.0579 54.8171 98.6999 55.0966 98.2397 55.3012C97.7795 55.5057 97.2442 55.608 96.634 55.608C95.8329 55.608 95.1698 55.4341 94.6448 55.0864C94.1198 54.7387 93.7874 54.2307 93.6476 53.5625L94.7931 53.2762C94.9022 53.6989 95.1084 54.0159 95.4118 54.2273C95.7187 54.4387 96.1192 54.5443 96.6135 54.5443C97.176 54.5443 97.6226 54.425 97.9533 54.1864C98.2874 53.9443 98.4545 53.6546 98.4545 53.3171C98.4545 53.0443 98.359 52.8159 98.1681 52.6318C97.9772 52.4443 97.684 52.3046 97.2885 52.2125L95.9795 51.9057C95.2601 51.7352 94.7317 51.471 94.3942 51.1131C94.0601 50.7517 93.8931 50.3 93.8931 49.758C93.8931 49.3148 94.0175 48.9227 94.2664 48.5818C94.5187 48.2409 94.8613 47.9733 95.2942 47.779C95.7306 47.5847 96.2249 47.4875 96.7772 47.4875C97.5545 47.4875 98.1647 47.658 98.6079 47.9989C99.0545 48.3398 99.3715 48.7898 99.559 49.3489ZM102.726 50.7193V55.4443H101.519V44.9716H102.726V48.8171H102.828C103.012 48.4114 103.288 48.0892 103.656 47.8506C104.028 47.6085 104.522 47.4875 105.139 47.4875C105.674 47.4875 106.143 47.5949 106.546 47.8097C106.948 48.021 107.26 48.3466 107.481 48.7864C107.706 49.2227 107.819 49.7784 107.819 50.4534V55.4443H106.612V50.5352C106.612 49.9114 106.45 49.429 106.126 49.0881C105.806 48.7438 105.361 48.5716 104.792 48.5716C104.396 48.5716 104.042 48.6551 103.728 48.8222C103.418 48.9892 103.172 49.233 102.992 49.5534C102.814 49.8739 102.726 50.2625 102.726 50.7193ZM110.027 55.4443V47.5898H111.233V55.4443H110.027ZM110.64 46.2807C110.405 46.2807 110.202 46.2006 110.032 46.0404C109.865 45.8801 109.781 45.6875 109.781 45.4625C109.781 45.2375 109.865 45.0449 110.032 44.8847C110.202 44.7244 110.405 44.6443 110.64 44.6443C110.875 44.6443 111.077 44.7244 111.244 44.8847C111.414 45.0449 111.499 45.2375 111.499 45.4625C111.499 45.6875 111.414 45.8801 111.244 46.0404C111.077 46.2006 110.875 46.2807 110.64 46.2807ZM113.444 58.3898V47.5898H114.61V48.8375H114.753C114.842 48.7012 114.964 48.5273 115.121 48.3159C115.281 48.1012 115.51 47.9102 115.806 47.7432C116.106 47.5727 116.512 47.4875 117.023 47.4875C117.685 47.4875 118.268 47.6529 118.772 47.9835C119.277 48.3142 119.671 48.783 119.953 49.3898C120.236 49.9966 120.378 50.7125 120.378 51.5375C120.378 52.3693 120.236 53.0904 119.953 53.7006C119.671 54.3074 119.278 54.7779 118.777 55.1119C118.276 55.4426 117.698 55.608 117.044 55.608C116.539 55.608 116.135 55.5244 115.832 55.3574C115.528 55.1869 115.295 54.9943 115.131 54.7796C114.968 54.5614 114.842 54.3807 114.753 54.2375H114.651V58.3898H113.444ZM114.63 51.5171C114.63 52.1102 114.717 52.6335 114.891 53.0869C115.065 53.5369 115.319 53.8898 115.653 54.1455C115.987 54.3977 116.396 54.5239 116.88 54.5239C117.385 54.5239 117.806 54.3909 118.143 54.125C118.484 53.8557 118.74 53.4943 118.91 53.0409C119.084 52.5841 119.171 52.0762 119.171 51.5171C119.171 50.9648 119.086 50.4671 118.915 50.0239C118.748 49.5773 118.494 49.2244 118.153 48.9654C117.816 48.7029 117.392 48.5716 116.88 48.5716C116.389 48.5716 115.977 48.696 115.643 48.9449C115.309 49.1904 115.056 49.5347 114.886 49.9779C114.715 50.4176 114.63 50.9307 114.63 51.5171ZM126.862 55.4443H125.532L129.378 44.9716H130.687L134.532 55.4443H133.203L130.073 46.6284H129.992L126.862 55.4443ZM127.353 51.3534H132.712V52.4784H127.353V51.3534ZM136.795 55.4443L134.402 47.5898H135.67L137.368 53.6034H137.45L139.127 47.5898H140.416L142.072 53.583H142.154L143.852 47.5898H145.12L142.727 55.4443H141.541L139.822 49.4102H139.7L137.982 55.4443H136.795ZM149.027 55.6284C148.529 55.6284 148.078 55.5347 147.672 55.3472C147.266 55.1563 146.944 54.8818 146.705 54.5239C146.467 54.1625 146.347 53.7262 146.347 53.2148C146.347 52.7648 146.436 52.4 146.613 52.1205C146.791 51.8375 147.028 51.6159 147.324 51.4557C147.621 51.2955 147.948 51.1762 148.306 51.0977C148.667 51.0159 149.03 50.9512 149.395 50.9034C149.872 50.8421 150.259 50.796 150.556 50.7654C150.856 50.7313 151.074 50.675 151.211 50.5966C151.35 50.5182 151.42 50.3818 151.42 50.1875V50.1466C151.42 49.6421 151.282 49.25 151.006 48.9705C150.733 48.6909 150.319 48.5512 149.763 48.5512C149.187 48.5512 148.736 48.6773 148.408 48.9296C148.081 49.1818 147.851 49.4512 147.718 49.7375L146.572 49.3284C146.777 48.8512 147.05 48.4796 147.391 48.2137C147.735 47.9443 148.11 47.7568 148.516 47.6512C148.925 47.5421 149.327 47.4875 149.722 47.4875C149.975 47.4875 150.265 47.5182 150.592 47.5796C150.922 47.6375 151.241 47.7585 151.548 47.9426C151.858 48.1267 152.116 48.4046 152.32 48.7762C152.525 49.1477 152.627 49.6455 152.627 50.2693V55.4443H151.42V54.3807H151.359C151.277 54.5512 151.141 54.7335 150.95 54.9279C150.759 55.1222 150.505 55.2875 150.188 55.4239C149.871 55.5602 149.484 55.6284 149.027 55.6284ZM149.211 54.5443C149.688 54.5443 150.091 54.4506 150.418 54.2631C150.749 54.0756 150.997 53.8335 151.165 53.5369C151.335 53.2404 151.42 52.9284 151.42 52.6012V51.4966C151.369 51.558 151.257 51.6142 151.083 51.6654C150.912 51.7131 150.715 51.7557 150.49 51.7932C150.268 51.8273 150.051 51.858 149.84 51.8852C149.632 51.9091 149.463 51.9296 149.334 51.9466C149.02 51.9875 148.727 52.054 148.454 52.146C148.185 52.2347 147.967 52.3693 147.8 52.55C147.636 52.7273 147.554 52.9693 147.554 53.2762C147.554 53.6955 147.709 54.0125 148.02 54.2273C148.333 54.4387 148.73 54.5443 149.211 54.5443ZM154.83 55.4443V47.5898H155.996V48.7762H156.077C156.221 48.3875 156.48 48.0722 156.855 47.8301C157.23 47.5881 157.652 47.4671 158.123 47.4671C158.212 47.4671 158.322 47.4688 158.455 47.4722C158.588 47.4756 158.689 47.4807 158.757 47.4875V48.7148C158.716 48.7046 158.622 48.6892 158.476 48.6688C158.333 48.6449 158.181 48.633 158.021 48.633C157.639 48.633 157.298 48.7131 156.998 48.8733C156.701 49.0301 156.466 49.2483 156.292 49.5279C156.122 49.804 156.037 50.1193 156.037 50.4739V55.4443H154.83ZM162.914 55.608C162.26 55.608 161.682 55.4426 161.181 55.1119C160.68 54.7779 160.288 54.3074 160.005 53.7006C159.722 53.0904 159.58 52.3693 159.58 51.5375C159.58 50.7125 159.722 49.9966 160.005 49.3898C160.288 48.783 160.681 48.3142 161.186 47.9835C161.691 47.6529 162.273 47.4875 162.935 47.4875C163.446 47.4875 163.85 47.5727 164.147 47.7432C164.447 47.9102 164.675 48.1012 164.832 48.3159C164.992 48.5273 165.117 48.7012 165.205 48.8375H165.308V44.9716H166.514V55.4443H165.348V54.2375H165.205C165.117 54.3807 164.991 54.5614 164.827 54.7796C164.663 54.9943 164.43 55.1869 164.126 55.3574C163.823 55.5244 163.419 55.608 162.914 55.608ZM163.078 54.5239C163.562 54.5239 163.971 54.3977 164.305 54.1455C164.639 53.8898 164.893 53.5369 165.067 53.0869C165.241 52.6335 165.328 52.1102 165.328 51.5171C165.328 50.9307 165.243 50.4176 165.072 49.9779C164.902 49.5347 164.65 49.1904 164.316 48.9449C163.981 48.696 163.569 48.5716 163.078 48.5716C162.567 48.5716 162.141 48.7029 161.8 48.9654C161.462 49.2244 161.208 49.5773 161.038 50.0239C160.871 50.4671 160.787 50.9648 160.787 51.5171C160.787 52.0762 160.872 52.5841 161.043 53.0409C161.217 53.4943 161.472 53.8557 161.81 54.125C162.151 54.3909 162.573 54.5239 163.078 54.5239ZM43.6874 77.4443V76.5239L47.1442 72.7398C47.5499 72.2966 47.884 71.9114 48.1465 71.5841C48.409 71.2534 48.6033 70.9432 48.7295 70.6534C48.859 70.3602 48.9238 70.0534 48.9238 69.733C48.9238 69.3648 48.8351 69.046 48.6579 68.7767C48.484 68.5074 48.2454 68.2994 47.942 68.1529C47.6386 68.0063 47.2976 67.933 46.9192 67.933C46.517 67.933 46.1658 68.0165 45.8658 68.1835C45.5692 68.3472 45.3391 68.5773 45.1755 68.8739C45.0153 69.1705 44.9351 69.5182 44.9351 69.9171H43.7283C43.7283 69.3034 43.8698 68.7648 44.1528 68.3012C44.4357 67.8375 44.8209 67.4762 45.3084 67.2171C45.7993 66.958 46.3499 66.8284 46.9601 66.8284C47.5738 66.8284 48.1175 66.958 48.5914 67.2171C49.0653 67.4762 49.4368 67.8256 49.7062 68.2654C49.9755 68.7051 50.1101 69.1943 50.1101 69.733C50.1101 70.1182 50.0403 70.4949 49.9005 70.8631C49.7641 71.2279 49.5255 71.6352 49.1846 72.0852C48.8471 72.5318 48.3783 73.0773 47.7783 73.7216L45.4261 76.2375V76.3193H50.2942V77.4443H43.6874ZM55.8221 77.5875C55.0516 77.5875 54.3954 77.3779 53.8533 76.9585C53.3113 76.5358 52.8971 75.9239 52.6107 75.1227C52.3243 74.3182 52.1812 73.3466 52.1812 72.208C52.1812 71.0762 52.3243 70.1097 52.6107 69.3085C52.9005 68.504 53.3164 67.8904 53.8584 67.4676C54.4039 67.0415 55.0584 66.8284 55.8221 66.8284C56.5857 66.8284 57.2386 67.0415 57.7806 67.4676C58.3261 67.8904 58.742 68.504 59.0283 69.3085C59.3181 70.1097 59.463 71.0762 59.463 72.208C59.463 73.3466 59.3198 74.3182 59.0334 75.1227C58.7471 75.9239 58.3329 76.5358 57.7908 76.9585C57.2488 77.3779 56.5925 77.5875 55.8221 77.5875ZM55.8221 76.4625C56.5857 76.4625 57.1789 76.0943 57.6016 75.358C58.0243 74.6216 58.2357 73.5716 58.2357 72.208C58.2357 71.3012 58.1386 70.529 57.9442 69.8915C57.7533 69.254 57.4772 68.7682 57.1158 68.4341C56.7579 68.1 56.3266 67.933 55.8221 67.933C55.0653 67.933 54.4738 68.3063 54.0476 69.0529C53.6215 69.796 53.4084 70.8477 53.4084 72.208C53.4084 73.1148 53.5039 73.8852 53.6948 74.5193C53.8857 75.1534 54.1601 75.6358 54.5181 75.9665C54.8795 76.2972 55.3141 76.4625 55.8221 76.4625ZM61.4062 77.4443V76.5239L64.863 72.7398C65.2687 72.2966 65.6028 71.9114 65.8653 71.5841C66.1278 71.2534 66.3221 70.9432 66.4482 70.6534C66.5778 70.3602 66.6425 70.0534 66.6425 69.733C66.6425 69.3648 66.5539 69.046 66.3766 68.7767C66.2028 68.5074 65.9641 68.2994 65.6607 68.1529C65.3573 68.0063 65.0164 67.933 64.638 67.933C64.2357 67.933 63.8846 68.0165 63.5846 68.1835C63.288 68.3472 63.0579 68.5773 62.8942 68.8739C62.734 69.1705 62.6539 69.5182 62.6539 69.9171H61.4471C61.4471 69.3034 61.5886 68.7648 61.8715 68.3012C62.1545 67.8375 62.5397 67.4762 63.0272 67.2171C63.5181 66.958 64.0687 66.8284 64.6789 66.8284C65.2925 66.8284 65.8363 66.958 66.3101 67.2171C66.784 67.4762 67.1556 67.8256 67.4249 68.2654C67.6942 68.7051 67.8289 69.1943 67.8289 69.733C67.8289 70.1182 67.759 70.4949 67.6192 70.8631C67.4829 71.2279 67.2442 71.6352 66.9033 72.0852C66.5658 72.5318 66.0971 73.0773 65.4971 73.7216L63.1448 76.2375V76.3193H68.013V77.4443H61.4062ZM70.1249 77.4443V76.5239L73.5817 72.7398C73.9874 72.2966 74.3215 71.9114 74.584 71.5841C74.8465 71.2534 75.0408 70.9432 75.167 70.6534C75.2965 70.3602 75.3613 70.0534 75.3613 69.733C75.3613 69.3648 75.2726 69.046 75.0954 68.7767C74.9215 68.5074 74.6829 68.2994 74.3795 68.1529C74.0761 68.0063 73.7351 67.933 73.3567 67.933C72.9545 67.933 72.6033 68.0165 72.3033 68.1835C72.0067 68.3472 71.7766 68.5773 71.613 68.8739C71.4528 69.1705 71.3726 69.5182 71.3726 69.9171H70.1658C70.1658 69.3034 70.3073 68.7648 70.5903 68.3012C70.8732 67.8375 71.2584 67.4762 71.7459 67.2171C72.2368 66.958 72.7874 66.8284 73.3976 66.8284C74.0113 66.8284 74.555 66.958 75.0289 67.2171C75.5028 67.4762 75.8743 67.8256 76.1437 68.2654C76.413 68.7051 76.5476 69.1943 76.5476 69.733C76.5476 70.1182 76.4778 70.4949 76.338 70.8631C76.2016 71.2279 75.963 71.6352 75.6221 72.0852C75.2846 72.5318 74.8158 73.0773 74.2158 73.7216L71.8636 76.2375V76.3193H76.7317V77.4443H70.1249ZM83.0778 77.4443V66.9716H84.2846V70.8375H84.3868C84.4755 70.7012 84.5982 70.5273 84.755 70.3159C84.9153 70.1012 85.1437 69.9102 85.4403 69.7432C85.7403 69.5727 86.1459 69.4875 86.6573 69.4875C87.3187 69.4875 87.9016 69.6529 88.4062 69.9835C88.9107 70.3142 89.3045 70.783 89.5874 71.3898C89.8704 71.9966 90.0118 72.7125 90.0118 73.5375C90.0118 74.3693 89.8704 75.0904 89.5874 75.7006C89.3045 76.3074 88.9124 76.7779 88.4113 77.1119C87.9101 77.4426 87.3323 77.608 86.6778 77.608C86.1732 77.608 85.7692 77.5244 85.4658 77.3574C85.1624 77.1869 84.9289 76.9943 84.7653 76.7796C84.6016 76.5614 84.4755 76.3807 84.3868 76.2375H84.2437V77.4443H83.0778ZM84.2641 73.5171C84.2641 74.1102 84.3511 74.6335 84.5249 75.0869C84.6988 75.5369 84.9528 75.8898 85.2868 76.1455C85.6209 76.3977 86.03 76.5239 86.5141 76.5239C87.0187 76.5239 87.4397 76.3909 87.7772 76.125C88.1181 75.8557 88.3738 75.4943 88.5442 75.0409C88.7181 74.5841 88.805 74.0762 88.805 73.5171C88.805 72.9648 88.7198 72.4671 88.5493 72.0239C88.3823 71.5773 88.1283 71.2244 87.7874 70.9654C87.4499 70.7029 87.0255 70.5716 86.5141 70.5716C86.0232 70.5716 85.6107 70.696 85.2766 70.9449C84.9425 71.1904 84.6903 71.5347 84.5198 71.9779C84.3493 72.4176 84.2641 72.9307 84.2641 73.5171ZM92.3539 80.3898C92.1493 80.3898 91.967 80.3727 91.8067 80.3387C91.6465 80.308 91.5357 80.2773 91.4743 80.2466L91.7812 79.183C92.0743 79.258 92.3334 79.2852 92.5584 79.2648C92.7834 79.2443 92.9829 79.1438 93.1567 78.9631C93.334 78.7858 93.4959 78.4977 93.6425 78.0989L93.8675 77.4852L90.963 69.5898H92.2721L94.4403 75.8489H94.5221L96.6903 69.5898H97.9993L94.6653 78.5898C94.5153 78.9955 94.3295 79.3313 94.1079 79.5972C93.8863 79.8665 93.6289 80.0659 93.3357 80.1955C93.0459 80.325 92.7187 80.3898 92.3539 80.3898ZM103.458 77.4443V76.5239L109.104 68.0966H103.397V66.9716H110.617V67.8921L104.972 76.3193H110.679V77.4443H103.458ZM115.935 77.608C115.179 77.608 114.526 77.4409 113.977 77.1068C113.431 76.7693 113.01 76.2989 112.714 75.6955C112.421 75.0887 112.274 74.383 112.274 73.5784C112.274 72.7739 112.421 72.0648 112.714 71.4512C113.01 70.8341 113.423 70.3534 113.951 70.0091C114.483 69.6614 115.104 69.4875 115.813 69.4875C116.222 69.4875 116.626 69.5557 117.025 69.6921C117.423 69.8284 117.787 70.05 118.114 70.3568C118.441 70.6602 118.702 71.0625 118.896 71.5637C119.091 72.0648 119.188 72.6818 119.188 73.4148V73.9262H113.133V72.883H117.96C117.96 72.4398 117.872 72.0443 117.695 71.6966C117.521 71.3489 117.272 71.0744 116.948 70.8733C116.627 70.6722 116.249 70.5716 115.813 70.5716C115.332 70.5716 114.916 70.6909 114.565 70.9296C114.217 71.1648 113.95 71.4716 113.762 71.85C113.575 72.2284 113.481 72.6341 113.481 73.0671V73.7625C113.481 74.3557 113.583 74.8585 113.788 75.271C113.996 75.6801 114.284 75.9921 114.652 76.2068C115.02 76.4182 115.448 76.5239 115.935 76.5239C116.252 76.5239 116.539 76.4796 116.795 76.3909C117.054 76.2989 117.277 76.1625 117.464 75.9818C117.652 75.7977 117.797 75.5693 117.899 75.2966L119.065 75.6239C118.942 76.0193 118.736 76.3671 118.446 76.6671C118.156 76.9637 117.798 77.1955 117.372 77.3625C116.946 77.5262 116.467 77.608 115.935 77.608ZM124.317 77.608C123.56 77.608 122.907 77.4409 122.358 77.1068C121.813 76.7693 121.392 76.2989 121.095 75.6955C120.802 75.0887 120.655 74.383 120.655 73.5784C120.655 72.7739 120.802 72.0648 121.095 71.4512C121.392 70.8341 121.804 70.3534 122.333 70.0091C122.864 69.6614 123.485 69.4875 124.194 69.4875C124.603 69.4875 125.007 69.5557 125.406 69.6921C125.805 69.8284 126.168 70.05 126.495 70.3568C126.822 70.6602 127.083 71.0625 127.277 71.5637C127.472 72.0648 127.569 72.6818 127.569 73.4148V73.9262H121.514V72.883H126.342C126.342 72.4398 126.253 72.0443 126.076 71.6966C125.902 71.3489 125.653 71.0744 125.329 70.8733C125.009 70.6722 124.63 70.5716 124.194 70.5716C123.713 70.5716 123.297 70.6909 122.946 70.9296C122.598 71.1648 122.331 71.4716 122.143 71.85C121.956 72.2284 121.862 72.6341 121.862 73.0671V73.7625C121.862 74.3557 121.964 74.8585 122.169 75.271C122.377 75.6801 122.665 75.9921 123.033 76.2068C123.401 76.4182 123.829 76.5239 124.317 76.5239C124.634 76.5239 124.92 76.4796 125.176 76.3909C125.435 76.2989 125.658 76.1625 125.846 75.9818C126.033 75.7977 126.178 75.5693 126.28 75.2966L127.446 75.6239C127.323 76.0193 127.117 76.3671 126.827 76.6671C126.538 76.9637 126.18 77.1955 125.754 77.3625C125.327 77.5262 124.848 77.608 124.317 77.608ZM141.923 66.9716V77.4443H140.696L134.989 69.2216H134.887V77.4443H133.618V66.9716H134.846L140.573 75.2148H140.675V66.9716H141.923ZM147.59 77.608C146.833 77.608 146.18 77.4409 145.632 77.1068C145.086 76.7693 144.665 76.2989 144.369 75.6955C144.075 75.0887 143.929 74.383 143.929 73.5784C143.929 72.7739 144.075 72.0648 144.369 71.4512C144.665 70.8341 145.078 70.3534 145.606 70.0091C146.138 69.6614 146.758 69.4875 147.467 69.4875C147.876 69.4875 148.28 69.5557 148.679 69.6921C149.078 69.8284 149.441 70.05 149.769 70.3568C150.096 70.6602 150.357 71.0625 150.551 71.5637C150.745 72.0648 150.842 72.6818 150.842 73.4148V73.9262H144.788V72.883H149.615C149.615 72.4398 149.526 72.0443 149.349 71.6966C149.175 71.3489 148.926 71.0744 148.603 70.8733C148.282 70.6722 147.904 70.5716 147.467 70.5716C146.987 70.5716 146.571 70.6909 146.22 70.9296C145.872 71.1648 145.604 71.4716 145.417 71.85C145.229 72.2284 145.136 72.6341 145.136 73.0671V73.7625C145.136 74.3557 145.238 74.8585 145.442 75.271C145.65 75.6801 145.938 75.9921 146.307 76.2068C146.675 76.4182 147.103 76.5239 147.59 76.5239C147.907 76.5239 148.194 76.4796 148.449 76.3909C148.708 76.2989 148.932 76.1625 149.119 75.9818C149.307 75.7977 149.451 75.5693 149.554 75.2966L150.72 75.6239C150.597 76.0193 150.391 76.3671 150.101 76.6671C149.811 76.9637 149.453 77.1955 149.027 77.3625C148.601 77.5262 148.122 77.608 147.59 77.608ZM154.458 77.4443L152.065 69.5898H153.333L155.03 75.6034H155.112L156.79 69.5898H158.078L159.735 75.583H159.817L161.515 69.5898H162.783L160.39 77.4443H159.203L157.485 71.4102H157.362L155.644 77.4443H154.458ZM169.942 71.3489L168.858 71.6557C168.79 71.475 168.689 71.2994 168.556 71.129C168.426 70.9551 168.249 70.8119 168.024 70.6994C167.799 70.5869 167.511 70.5307 167.16 70.5307C166.679 70.5307 166.279 70.6415 165.958 70.8631C165.641 71.0813 165.483 71.3591 165.483 71.6966C165.483 71.9966 165.592 72.2335 165.81 72.4074C166.028 72.5813 166.369 72.7262 166.833 72.8421L167.999 73.1284C168.701 73.2989 169.224 73.5597 169.569 73.9108C169.913 74.2585 170.085 74.7068 170.085 75.2557C170.085 75.7057 169.955 76.108 169.696 76.4625C169.441 76.8171 169.083 77.0966 168.622 77.3012C168.162 77.5057 167.627 77.608 167.017 77.608C166.216 77.608 165.553 77.4341 165.028 77.0864C164.503 76.7387 164.17 76.2307 164.03 75.5625L165.176 75.2762C165.285 75.6989 165.491 76.0159 165.795 76.2273C166.101 76.4387 166.502 76.5443 166.996 76.5443C167.559 76.5443 168.005 76.425 168.336 76.1864C168.67 75.9443 168.837 75.6546 168.837 75.3171C168.837 75.0443 168.742 74.8159 168.551 74.6318C168.36 74.4443 168.067 74.3046 167.671 74.2125L166.362 73.9057C165.643 73.7352 165.115 73.471 164.777 73.1131C164.443 72.7517 164.276 72.3 164.276 71.758C164.276 71.3148 164.4 70.9227 164.649 70.5818C164.901 70.2409 165.244 69.9733 165.677 69.779C166.113 69.5847 166.608 69.4875 167.16 69.4875C167.937 69.4875 168.547 69.658 168.991 69.9989C169.437 70.3398 169.754 70.7898 169.942 71.3489Z" fill="#F6F9FC"/>
</g>
<defs>
<linearGradient id="paint0_linear_1668_1208" x1="181.611" y1="88.1152" x2="181.611" y2="0.444332" gradientUnits="userSpaceOnUse">
<stop stop-color="#EED575"/>
<stop offset="1" stop-color="#BC7A2E"/>
</linearGradient>
<linearGradient id="paint1_linear_1668_1208" x1="33.4319" y1="88.1152" x2="33.432" y2="0.444332" gradientUnits="userSpaceOnUse">
<stop stop-color="#EED575"/>
<stop offset="1" stop-color="#BC7A2E"/>
</linearGradient>
<clipPath id="clip0_1668_1208">
<rect width="212" height="100" fill="white" transform="translate(0.799805 0.444336)"/>
</clipPath>
<clipPath id="clip1_1668_1208">
<rect width="56.8345" height="100" fill="white" transform="translate(156 0.444336)"/>
</clipPath>
<clipPath id="clip2_1668_1208">
<rect width="56.8345" height="100" fill="white" transform="matrix(-1 0 0 1 58.835 0.444336)"/>
</clipPath>
</defs>
</svg>
