<svg width="206" height="101" viewBox="0 0 206 101" fill="none" xmlns="http://www.w3.org/2000/svg">
<g clip-path="url(#clip0_1668_1194)">
<g clip-path="url(#clip1_1668_1194)">
<path fill-rule="evenodd" clip-rule="evenodd" d="M148.4 95.2167C160.992 95.2167 172.395 89.9435 180.641 81.4202C188.895 72.8968 193.998 61.108 193.998 48.0995C193.998 35.0909 188.895 23.3021 180.641 14.7788C178.847 12.9301 176.908 11.233 174.841 9.71019C169.405 10.0739 164.339 3.67943 164.649 0.762542C171.366 3.55821 174.682 2.11113 175.326 9.31622C177.37 10.8315 179.293 12.521 181.065 14.3545C189.425 22.9915 194.596 34.9242 194.596 48.0995C194.596 61.2747 189.425 73.2074 181.065 81.8444C173.274 89.8905 162.726 95.0727 151.005 95.7546L148.393 95.2242L148.4 95.2167ZM179.975 10.9754C182.625 7.49032 180.126 1.34592 177.983 0.444336C177.355 6.10386 175.083 7.76307 179.975 10.9754ZM184.359 16.8395C187.713 14.0211 186.623 7.48275 184.722 6.12658C182.867 11.5058 180.293 12.6271 184.359 16.8395ZM180.823 17.2714C179.271 11.7785 177.067 13.3999 171.623 12.324C171.835 14.5818 176.802 18.7184 180.823 17.2714ZM185.434 24.5295C184.42 18.9079 182.065 20.3095 176.757 18.7184C176.757 20.9913 181.3 25.575 185.434 24.5295ZM189.122 23.3627C192.62 20.4231 191.477 13.6044 189.508 12.1952C187.569 17.8017 184.889 18.9685 189.122 23.3627ZM192.075 30.0981C196.383 28.5828 197.723 21.802 196.376 19.7867C192.582 24.3477 189.659 24.4916 192.075 30.0981ZM190.341 33.856C190.545 27.5221 187.668 28.4919 182.284 25.5296C181.747 27.9919 185.616 34.0302 190.341 33.856ZM195.051 38.1214C199.934 36.4016 201.464 28.7116 199.934 26.4236C195.634 31.5982 192.317 31.7573 195.051 38.1214ZM192.135 42.4324C193.036 36.1667 190.076 36.8107 185.048 33.265C184.245 35.6515 187.418 42.0763 192.135 42.4324ZM196.164 46.2054C201.494 45.3796 204.515 37.7881 203.38 35.1515C197.996 39.6291 194.566 39.167 196.164 46.2054ZM195.868 54.403C195.391 46.8721 198.852 47.9176 205.159 44.1901C205.893 47.0994 201.509 54.4333 195.868 54.403ZM192.658 53.6075C194.975 46.069 191.204 46.2963 185.707 40.9626C184.253 43.7431 186.926 52.2589 192.658 53.6075ZM193.551 63.5173C199.457 64.5553 205.356 57.6456 205.106 54.4636C197.829 57.2517 194.384 55.5394 193.551 63.5173ZM190.22 70.2754C195.157 73.6772 203.395 69.8587 204.493 66.866C196.716 66.366 194.301 63.3733 190.22 70.2754ZM189.637 64.0098C193.029 56.8274 189.235 56.5092 184.51 50.4102C182.663 52.9786 184.109 61.8505 189.637 64.0098ZM185.328 76.9653C189.44 81.3368 198.299 79.3367 200.003 76.6395C192.506 74.5106 190.78 71.0785 185.328 76.9653ZM183.738 74.2908C189.038 68.8662 185.714 67.3964 183.344 60.411C180.884 62.1536 179.415 70.6163 183.738 74.2908ZM180.051 84.1477C184.162 88.5192 193.021 86.519 194.725 83.8219C187.229 81.6929 185.502 78.2608 180.051 84.1477ZM174.743 83.981C182.118 80.5792 179.354 77.8366 179.657 69.942C176.53 70.7375 171.828 78.6472 174.743 83.981ZM172.895 89.6708C176 95.2849 185.699 95.5576 188.183 93.2165C180.982 89.0344 180.096 85.0113 172.895 89.6708ZM164.718 93.5044C166.618 99.4897 175.879 101.611 178.703 99.8382C172.592 94.4363 172.517 90.4133 164.718 93.5044ZM162.65 90.8679C171.502 89.6708 169.48 85.8902 172.335 77.6926C168.784 77.5259 161.295 84.3219 162.65 90.8679Z" fill="url(#paint0_linear_1668_1194)"/>
</g>
<g clip-path="url(#clip2_1668_1194)">
<path fill-rule="evenodd" clip-rule="evenodd" d="M58.2356 95.2167C45.6436 95.2167 34.2403 89.9435 25.9945 81.4202C17.7412 72.8968 12.6377 61.108 12.6377 48.0995C12.6377 35.0909 17.7412 23.3021 25.9945 14.7788C27.7891 12.9301 29.7275 11.233 31.7946 9.71019C37.2312 10.0739 42.2968 3.67943 41.9863 0.762542C35.2701 3.55821 31.9536 2.11113 31.31 9.31622C29.2656 10.8315 27.3423 12.521 25.5705 14.3545C17.2111 22.9915 12.0396 34.9242 12.0396 48.0995C12.0396 61.2747 17.2111 73.2074 25.5705 81.8444C33.362 89.8905 43.9096 95.0727 55.6309 95.7546L58.2432 95.2242L58.2356 95.2167ZM26.6609 10.9754C24.0107 7.49032 26.5094 1.34592 28.6523 0.444336C29.2807 6.10386 31.5523 7.76307 26.6609 10.9754ZM22.2767 16.8395C18.9224 14.0211 20.0127 7.48275 21.9133 6.12658C23.7684 11.5058 26.3428 12.6271 22.2767 16.8395ZM25.8128 17.2714C27.365 11.7785 29.5685 13.3999 35.0126 12.324C34.8006 14.5818 29.8335 18.7184 25.8128 17.2714ZM21.2015 24.5295C22.2162 18.9079 24.571 20.3095 29.8789 18.7184C29.8789 20.9913 25.3358 25.575 21.2015 24.5295ZM17.514 23.3627C14.0158 20.4231 15.1592 13.6044 17.1279 12.1952C19.0663 17.8017 21.7467 18.9685 17.514 23.3627ZM14.561 30.0981C10.2526 28.5828 8.91236 21.802 10.2602 19.7867C14.0537 24.3477 16.9764 24.4916 14.561 30.0981ZM16.2949 33.856C16.0905 27.5221 18.9678 28.4919 24.3514 25.5296C24.889 27.9919 21.0198 34.0302 16.2949 33.856ZM11.5852 38.1214C6.70137 36.4016 5.17185 28.7116 6.70137 26.4236C11.0022 31.5982 14.3187 31.7573 11.5852 38.1214ZM14.5004 42.4324C13.5994 36.1667 16.56 36.8107 21.5877 33.265C22.3903 35.6515 19.2177 42.0763 14.5004 42.4324ZM10.4722 46.2054C5.14156 45.3796 2.12038 37.7881 3.25616 35.1515C8.63977 39.6291 12.0698 39.167 10.4722 46.2054ZM10.7675 54.403C11.2445 46.8721 7.78415 47.9176 1.47677 44.1901C0.742302 47.0994 5.12642 54.4333 10.7675 54.403ZM13.978 53.6075C11.661 46.069 15.4318 46.2963 20.9289 40.9626C22.3827 43.7431 19.7099 52.2589 13.978 53.6075ZM13.0845 63.5173C7.1784 64.5553 1.2799 57.6456 1.52977 54.4636C8.80635 57.2517 12.2516 55.5394 13.0845 63.5173ZM16.4161 70.2754C11.4792 73.6772 3.24102 69.8587 2.1431 66.866C9.91942 66.366 12.3349 63.3733 16.4161 70.2754ZM16.9991 64.0098C13.6069 56.8274 17.4004 56.5092 22.1253 50.4102C23.9728 52.9786 22.5266 61.8505 16.9991 64.0098ZM21.3075 76.9653C17.196 81.3368 8.33689 79.3367 6.63322 76.6395C14.1294 74.5106 15.8558 71.0785 21.3075 76.9653ZM22.8976 74.2908C17.5973 68.8662 20.9214 67.3964 23.2914 60.411C25.7522 62.1536 27.2212 70.6163 22.8976 74.2908ZM26.5851 84.1477C22.4736 88.5192 13.6145 86.519 11.9108 83.8219C19.407 81.6929 21.1334 78.2608 26.5851 84.1477ZM31.893 83.981C24.518 80.5792 27.2817 77.8366 26.9789 69.942C30.1061 70.7375 34.8082 78.6472 31.893 83.981ZM33.7406 89.6708C30.6361 95.2849 20.9365 95.5576 18.4529 93.2165C25.6538 89.0344 26.5397 85.0113 33.7406 89.6708ZM41.9182 93.5044C40.0176 99.4897 30.7572 101.611 27.9329 99.8382C34.0434 94.4363 34.1192 90.4133 41.9182 93.5044ZM43.9853 90.8679C35.1338 89.6708 37.1555 85.8902 34.3009 77.6926C37.8521 77.5259 45.3407 84.3219 43.9853 90.8679Z" fill="url(#paint1_linear_1668_1194)"/>
</g>
<path d="M51.9959 33.4443V22.9716H55.5346C56.3527 22.9716 57.0243 23.1114 57.5493 23.3909C58.0743 23.6671 58.463 24.0472 58.7152 24.5313C58.9675 25.0154 59.0936 25.5659 59.0936 26.183C59.0936 26.8 58.9675 27.3472 58.7152 27.8244C58.463 28.3017 58.076 28.6767 57.5544 28.9494C57.0329 29.2188 56.3664 29.3534 55.555 29.3534H52.6914V28.208H55.5141C56.0732 28.208 56.5232 28.1262 56.8641 27.9625C57.2084 27.7989 57.4573 27.5671 57.6107 27.2671C57.7675 26.9637 57.8459 26.6023 57.8459 26.183C57.8459 25.7637 57.7675 25.3972 57.6107 25.0835C57.4539 24.7699 57.2033 24.5279 56.859 24.3574C56.5147 24.1835 56.0596 24.0966 55.4936 24.0966H53.2641V33.4443H51.9959ZM56.9255 28.7398L59.5027 33.4443H58.03L55.4936 28.7398H56.9255ZM64.252 33.608C63.4952 33.608 62.8424 33.4409 62.2935 33.1068C61.748 32.7693 61.327 32.2989 61.0304 31.6955C60.7373 31.0887 60.5907 30.383 60.5907 29.5784C60.5907 28.7739 60.7373 28.0648 61.0304 27.4512C61.327 26.8341 61.7395 26.3534 62.2679 26.0091C62.7998 25.6614 63.4202 25.4875 64.1293 25.4875C64.5384 25.4875 64.9424 25.5557 65.3412 25.6921C65.7401 25.8284 66.1032 26.05 66.4304 26.3568C66.7577 26.6602 67.0185 27.0625 67.2128 27.5637C67.4071 28.0648 67.5043 28.6818 67.5043 29.4148V29.9262H61.4498V28.883H66.277C66.277 28.4398 66.1884 28.0443 66.0111 27.6966C65.8373 27.3489 65.5884 27.0744 65.2645 26.8733C64.9441 26.6722 64.5657 26.5716 64.1293 26.5716C63.6486 26.5716 63.2327 26.6909 62.8816 26.9296C62.5338 27.1648 62.2662 27.4716 62.0787 27.85C61.8912 28.2284 61.7975 28.6341 61.7975 29.0671V29.7625C61.7975 30.3557 61.8998 30.8585 62.1043 31.271C62.3123 31.6801 62.6003 31.9921 62.9685 32.2068C63.3367 32.4182 63.7645 32.5239 64.252 32.5239C64.5691 32.5239 64.8554 32.4796 65.1111 32.3909C65.3702 32.2989 65.5935 32.1625 65.781 31.9818C65.9685 31.7977 66.1134 31.5693 66.2157 31.2966L67.3816 31.6239C67.2588 32.0193 67.0526 32.3671 66.7628 32.6671C66.473 32.9637 66.1151 33.1955 65.689 33.3625C65.2628 33.5262 64.7838 33.608 64.252 33.608ZM72.531 33.608C71.7946 33.608 71.1605 33.4341 70.6287 33.0864C70.0969 32.7387 69.6878 32.2597 69.4015 31.6494C69.1151 31.0392 68.9719 30.3421 68.9719 29.558C68.9719 28.7602 69.1185 28.0563 69.4117 27.446C69.7083 26.8324 70.1208 26.3534 70.6492 26.0091C71.181 25.6614 71.8015 25.4875 72.5105 25.4875C73.0628 25.4875 73.5605 25.5898 74.0037 25.7943C74.4469 25.9989 74.81 26.2852 75.0929 26.6534C75.3759 27.0216 75.5515 27.4512 75.6196 27.9421H74.4128C74.3208 27.5841 74.1162 27.2671 73.7992 26.9909C73.4855 26.7114 73.0628 26.5716 72.531 26.5716C72.0605 26.5716 71.648 26.6943 71.2935 26.9398C70.9424 27.1818 70.6679 27.5244 70.4702 27.9676C70.2759 28.4074 70.1787 28.9239 70.1787 29.5171C70.1787 30.1239 70.2742 30.6523 70.4651 31.1023C70.6594 31.5523 70.9321 31.9017 71.2833 32.1506C71.6378 32.3994 72.0537 32.5239 72.531 32.5239C72.8446 32.5239 73.1293 32.4693 73.385 32.3602C73.6407 32.2512 73.8571 32.0943 74.0344 31.8898C74.2117 31.6852 74.3378 31.4398 74.4128 31.1534H75.6196C75.5515 31.6171 75.3827 32.0347 75.1134 32.4063C74.8475 32.7744 74.4946 33.0676 74.0549 33.2858C73.6185 33.5006 73.1105 33.608 72.531 33.608ZM80.5748 33.608C79.8657 33.608 79.2435 33.4392 78.7083 33.1017C78.1765 32.7642 77.7605 32.2921 77.4605 31.6852C77.164 31.0784 77.0157 30.3693 77.0157 29.558C77.0157 28.7398 77.164 28.0256 77.4605 27.4154C77.7605 26.8051 78.1765 26.3313 78.7083 25.9938C79.2435 25.6563 79.8657 25.4875 80.5748 25.4875C81.2838 25.4875 81.9043 25.6563 82.4361 25.9938C82.9713 26.3313 83.3873 26.8051 83.6838 27.4154C83.9838 28.0256 84.1338 28.7398 84.1338 29.558C84.1338 30.3693 83.9838 31.0784 83.6838 31.6852C83.3873 32.2921 82.9713 32.7642 82.4361 33.1017C81.9043 33.4392 81.2838 33.608 80.5748 33.608ZM80.5748 32.5239C81.1134 32.5239 81.5566 32.3858 81.9043 32.1097C82.252 31.8335 82.5094 31.4705 82.6765 31.0205C82.8435 30.5705 82.927 30.083 82.927 29.558C82.927 29.033 82.8435 28.5438 82.6765 28.0904C82.5094 27.6369 82.252 27.2705 81.9043 26.9909C81.5566 26.7114 81.1134 26.5716 80.5748 26.5716C80.0361 26.5716 79.5929 26.7114 79.2452 26.9909C78.8975 27.2705 78.6401 27.6369 78.473 28.0904C78.306 28.5438 78.2225 29.033 78.2225 29.558C78.2225 30.083 78.306 30.5705 78.473 31.0205C78.6401 31.4705 78.8975 31.8335 79.2452 32.1097C79.5929 32.3858 80.0361 32.5239 80.5748 32.5239ZM89.1465 36.5534C88.5635 36.5534 88.0624 36.4784 87.6431 36.3284C87.2238 36.1818 86.8743 35.9875 86.5948 35.7455C86.3186 35.5068 86.0988 35.2512 85.9351 34.9784L86.8965 34.3034C87.0056 34.4466 87.1436 34.6102 87.3107 34.7943C87.4777 34.9818 87.7061 35.1438 87.9959 35.2801C88.2891 35.4199 88.6726 35.4898 89.1465 35.4898C89.7806 35.4898 90.3039 35.3364 90.7164 35.0296C91.1289 34.7227 91.3351 34.2421 91.3351 33.5875V31.9921H91.2329C91.1442 32.1352 91.0181 32.3125 90.8544 32.5239C90.6942 32.7318 90.4624 32.9176 90.159 33.0813C89.859 33.2415 89.4533 33.3216 88.9419 33.3216C88.3079 33.3216 87.7385 33.1716 87.234 32.8716C86.7329 32.5716 86.3357 32.1352 86.0425 31.5625C85.7527 30.9898 85.6079 30.2943 85.6079 29.4762C85.6079 28.6716 85.7493 27.971 86.0323 27.3744C86.3152 26.7744 86.709 26.3108 87.2135 25.9835C87.7181 25.6529 88.301 25.4875 88.9624 25.4875C89.4738 25.4875 89.8794 25.5727 90.1794 25.7432C90.4829 25.9102 90.7147 26.1012 90.8749 26.3159C91.0385 26.5273 91.1647 26.7012 91.2533 26.8375H91.376V25.5898H92.5419V33.6693C92.5419 34.3443 92.3885 34.8932 92.0817 35.3159C91.7783 35.7421 91.3692 36.054 90.8544 36.2517C90.3431 36.4529 89.7738 36.5534 89.1465 36.5534ZM89.1056 32.2375C89.5897 32.2375 89.9988 32.1267 90.3329 31.9051C90.6669 31.6835 90.9209 31.3648 91.0948 30.9489C91.2686 30.533 91.3556 30.0352 91.3556 29.4557C91.3556 28.8898 91.2704 28.3904 91.0999 27.9574C90.9294 27.5244 90.6772 27.1852 90.3431 26.9398C90.009 26.6943 89.5965 26.5716 89.1056 26.5716C88.5942 26.5716 88.1681 26.7012 87.8272 26.9602C87.4897 27.2193 87.2357 27.5671 87.0652 28.0034C86.8982 28.4398 86.8147 28.9239 86.8147 29.4557C86.8147 30.0012 86.8999 30.4835 87.0704 30.9029C87.2442 31.3188 87.4999 31.646 87.8374 31.8847C88.1783 32.1199 88.601 32.2375 89.1056 32.2375ZM95.9578 28.7193V33.4443H94.751V25.5898H95.9169V26.8171H96.0192C96.2033 26.4182 96.4828 26.0977 96.8578 25.8557C97.2328 25.6102 97.7169 25.4875 98.3101 25.4875C98.8419 25.4875 99.3073 25.5966 99.7061 25.8148C100.105 26.0296 100.415 26.3568 100.637 26.7966C100.858 27.233 100.969 27.7852 100.969 28.4534V33.4443H99.7624V28.5352C99.7624 27.9182 99.6022 27.4375 99.2817 27.0932C98.9613 26.7455 98.5215 26.5716 97.9624 26.5716C97.5772 26.5716 97.2328 26.6551 96.9294 26.8222C96.6294 26.9892 96.3925 27.233 96.2186 27.5534C96.0448 27.8739 95.9578 28.2625 95.9578 28.7193ZM103.174 33.4443V25.5898H104.381V33.4443H103.174ZM103.788 24.2807C103.553 24.2807 103.35 24.2006 103.18 24.0404C103.013 23.8801 102.929 23.6875 102.929 23.4625C102.929 23.2375 103.013 23.0449 103.18 22.8847C103.35 22.7244 103.553 22.6443 103.788 22.6443C104.023 22.6443 104.224 22.7244 104.392 22.8847C104.562 23.0449 104.647 23.2375 104.647 23.4625C104.647 23.6875 104.562 23.8801 104.392 24.0404C104.224 24.2006 104.023 24.2807 103.788 24.2807ZM112.155 27.3489L111.071 27.6557C111.003 27.475 110.902 27.2994 110.769 27.129C110.64 26.9551 110.463 26.8119 110.238 26.6994C110.013 26.5869 109.725 26.5307 109.373 26.5307C108.893 26.5307 108.492 26.6415 108.172 26.8631C107.855 27.0813 107.696 27.3591 107.696 27.6966C107.696 27.9966 107.805 28.2335 108.023 28.4074C108.242 28.5813 108.583 28.7262 109.046 28.8421L110.212 29.1284C110.914 29.2989 111.438 29.5597 111.782 29.9108C112.126 30.2585 112.298 30.7068 112.298 31.2557C112.298 31.7057 112.169 32.108 111.91 32.4625C111.654 32.8171 111.296 33.0966 110.836 33.3012C110.376 33.5057 109.841 33.608 109.23 33.608C108.429 33.608 107.766 33.4341 107.241 33.0864C106.716 32.7387 106.384 32.2307 106.244 31.5625L107.389 31.2762C107.498 31.6989 107.705 32.0159 108.008 32.2273C108.315 32.4387 108.716 32.5443 109.21 32.5443C109.772 32.5443 110.219 32.425 110.55 32.1864C110.884 31.9443 111.051 31.6546 111.051 31.3171C111.051 31.0443 110.955 30.8159 110.764 30.6318C110.573 30.4443 110.28 30.3046 109.885 30.2125L108.576 29.9057C107.856 29.7352 107.328 29.471 106.991 29.1131C106.656 28.7517 106.489 28.3 106.489 27.758C106.489 27.3148 106.614 26.9227 106.863 26.5818C107.115 26.2409 107.458 25.9733 107.891 25.779C108.327 25.5847 108.821 25.4875 109.373 25.4875C110.151 25.4875 110.761 25.658 111.204 25.9989C111.651 26.3398 111.968 26.7898 112.155 27.3489ZM117.408 33.608C116.651 33.608 115.999 33.4409 115.45 33.1068C114.904 32.7693 114.483 32.2989 114.187 31.6955C113.893 31.0887 113.747 30.383 113.747 29.5784C113.747 28.7739 113.893 28.0648 114.187 27.4512C114.483 26.8341 114.896 26.3534 115.424 26.0091C115.956 25.6614 116.576 25.4875 117.286 25.4875C117.695 25.4875 118.099 25.5557 118.497 25.6921C118.896 25.8284 119.259 26.05 119.587 26.3568C119.914 26.6602 120.175 27.0625 120.369 27.5637C120.563 28.0648 120.661 28.6818 120.661 29.4148V29.9262H114.606V28.883H119.433C119.433 28.4398 119.345 28.0443 119.167 27.6966C118.993 27.3489 118.745 27.0744 118.421 26.8733C118.1 26.6722 117.722 26.5716 117.286 26.5716C116.805 26.5716 116.389 26.6909 116.038 26.9296C115.69 27.1648 115.422 27.4716 115.235 27.85C115.047 28.2284 114.954 28.6341 114.954 29.0671V29.7625C114.954 30.3557 115.056 30.8585 115.261 31.271C115.468 31.6801 115.757 31.9921 116.125 32.2068C116.493 32.4182 116.921 32.5239 117.408 32.5239C117.725 32.5239 118.012 32.4796 118.267 32.3909C118.526 32.2989 118.75 32.1625 118.937 31.9818C119.125 31.7977 119.27 31.5693 119.372 31.2966L120.538 31.6239C120.415 32.0193 120.209 32.3671 119.919 32.6671C119.629 32.9637 119.271 33.1955 118.845 33.3625C118.419 33.5262 117.94 33.608 117.408 33.608ZM125.462 33.608C124.808 33.608 124.23 33.4426 123.729 33.1119C123.228 32.7779 122.836 32.3074 122.553 31.7006C122.27 31.0904 122.128 30.3693 122.128 29.5375C122.128 28.7125 122.27 27.9966 122.553 27.3898C122.836 26.783 123.229 26.3142 123.734 25.9835C124.238 25.6529 124.821 25.4875 125.483 25.4875C125.994 25.4875 126.398 25.5727 126.695 25.7432C126.995 25.9102 127.223 26.1012 127.38 26.3159C127.54 26.5273 127.665 26.7012 127.753 26.8375H127.855V22.9716H129.062V33.4443H127.896V32.2375H127.753C127.665 32.3807 127.538 32.5614 127.375 32.7796C127.211 32.9943 126.978 33.1869 126.674 33.3574C126.371 33.5244 125.967 33.608 125.462 33.608ZM125.626 32.5239C126.11 32.5239 126.519 32.3977 126.853 32.1455C127.187 31.8898 127.441 31.5369 127.615 31.0869C127.789 30.6335 127.876 30.1102 127.876 29.5171C127.876 28.9307 127.791 28.4176 127.62 27.9779C127.45 27.5347 127.197 27.1904 126.863 26.9449C126.529 26.696 126.117 26.5716 125.626 26.5716C125.115 26.5716 124.688 26.7029 124.347 26.9654C124.01 27.2244 123.756 27.5773 123.586 28.0239C123.419 28.4671 123.335 28.9648 123.335 29.5171C123.335 30.0762 123.42 30.5841 123.591 31.0409C123.765 31.4943 124.02 31.8557 124.358 32.125C124.699 32.3909 125.121 32.5239 125.626 32.5239ZM137.801 33.6284C137.304 33.6284 136.852 33.5347 136.446 33.3472C136.041 33.1563 135.718 32.8818 135.48 32.5239C135.241 32.1625 135.122 31.7262 135.122 31.2148C135.122 30.7648 135.211 30.4 135.388 30.1205C135.565 29.8375 135.802 29.6159 136.099 29.4557C136.395 29.2955 136.722 29.1762 137.08 29.0977C137.442 29.0159 137.805 28.9512 138.17 28.9034C138.647 28.8421 139.034 28.796 139.33 28.7654C139.63 28.7313 139.849 28.675 139.985 28.5966C140.125 28.5182 140.195 28.3818 140.195 28.1875V28.1466C140.195 27.6421 140.057 27.25 139.78 26.9705C139.508 26.6909 139.093 26.5512 138.538 26.5512C137.962 26.5512 137.51 26.6773 137.183 26.9296C136.855 27.1818 136.625 27.4512 136.492 27.7375L135.347 27.3284C135.551 26.8512 135.824 26.4796 136.165 26.2137C136.509 25.9443 136.884 25.7568 137.29 25.6512C137.699 25.5421 138.101 25.4875 138.497 25.4875C138.749 25.4875 139.039 25.5182 139.366 25.5796C139.697 25.6375 140.016 25.7585 140.322 25.9426C140.633 26.1267 140.89 26.4046 141.095 26.7762C141.299 27.1477 141.401 27.6455 141.401 28.2693V33.4443H140.195V32.3807H140.133C140.051 32.5512 139.915 32.7335 139.724 32.9279C139.533 33.1222 139.279 33.2875 138.962 33.4239C138.645 33.5602 138.258 33.6284 137.801 33.6284ZM137.986 32.5443C138.463 32.5443 138.865 32.4506 139.192 32.2631C139.523 32.0756 139.772 31.8335 139.939 31.5369C140.109 31.2404 140.195 30.9284 140.195 30.6012V29.4966C140.143 29.558 140.031 29.6142 139.857 29.6654C139.687 29.7131 139.489 29.7557 139.264 29.7932C139.042 29.8273 138.826 29.858 138.615 29.8852C138.407 29.9091 138.238 29.9296 138.108 29.9466C137.795 29.9875 137.501 30.054 137.229 30.146C136.959 30.2347 136.741 30.3693 136.574 30.55C136.411 30.7273 136.329 30.9693 136.329 31.2762C136.329 31.6955 136.484 32.0125 136.794 32.2273C137.108 32.4387 137.505 32.5443 137.986 32.5443ZM149.168 27.3489L148.084 27.6557C148.016 27.475 147.915 27.2994 147.782 27.129C147.652 26.9551 147.475 26.8119 147.25 26.6994C147.025 26.5869 146.737 26.5307 146.386 26.5307C145.905 26.5307 145.505 26.6415 145.184 26.8631C144.867 27.0813 144.709 27.3591 144.709 27.6966C144.709 27.9966 144.818 28.2335 145.036 28.4074C145.254 28.5813 145.595 28.7262 146.059 28.8421L147.225 29.1284C147.927 29.2989 148.45 29.5597 148.794 29.9108C149.139 30.2585 149.311 30.7068 149.311 31.2557C149.311 31.7057 149.181 32.108 148.922 32.4625C148.667 32.8171 148.309 33.0966 147.848 33.3012C147.388 33.5057 146.853 33.608 146.243 33.608C145.442 33.608 144.779 33.4341 144.254 33.0864C143.729 32.7387 143.396 32.2307 143.256 31.5625L144.402 31.2762C144.511 31.6989 144.717 32.0159 145.021 32.2273C145.327 32.4387 145.728 32.5443 146.222 32.5443C146.785 32.5443 147.231 32.425 147.562 32.1864C147.896 31.9443 148.063 31.6546 148.063 31.3171C148.063 31.0443 147.968 30.8159 147.777 30.6318C147.586 30.4443 147.293 30.3046 146.897 30.2125L145.588 29.9057C144.869 29.7352 144.341 29.471 144.003 29.1131C143.669 28.7517 143.502 28.3 143.502 27.758C143.502 27.3148 143.626 26.9227 143.875 26.5818C144.127 26.2409 144.47 25.9733 144.903 25.779C145.339 25.5847 145.834 25.4875 146.386 25.4875C147.163 25.4875 147.773 25.658 148.217 25.9989C148.663 26.3398 148.98 26.7898 149.168 27.3489ZM56.4333 55.4443H55.1037L58.9492 44.9716H60.2583L64.1037 55.4443H62.7742L59.6446 46.6284H59.5628L56.4333 55.4443ZM56.9242 51.3534H62.2833V52.4784H56.9242V51.3534ZM66.7782 44.9716V55.4443H65.5713V44.9716H66.7782ZM68.9885 58.3898V47.5898H70.1544V48.8375H70.2976C70.3863 48.7012 70.509 48.5273 70.6658 48.3159C70.826 48.1012 71.0544 47.9102 71.351 47.7432C71.651 47.5727 72.0567 47.4875 72.5681 47.4875C73.2294 47.4875 73.8124 47.6529 74.3169 47.9835C74.8215 48.3142 75.2152 48.783 75.4982 49.3898C75.7811 49.9966 75.9226 50.7125 75.9226 51.5375C75.9226 52.3693 75.7811 53.0904 75.4982 53.7006C75.2152 54.3074 74.8232 54.7779 74.3221 55.1119C73.8209 55.4426 73.2431 55.608 72.5885 55.608C72.084 55.608 71.68 55.5244 71.3766 55.3574C71.0732 55.1869 70.8397 54.9943 70.676 54.7796C70.5124 54.5614 70.3863 54.3807 70.2976 54.2375H70.1954V58.3898H68.9885ZM70.1749 51.5171C70.1749 52.1102 70.2618 52.6335 70.4357 53.0869C70.6096 53.5369 70.8635 53.8898 71.1976 54.1455C71.5317 54.3977 71.9408 54.5239 72.4249 54.5239C72.9294 54.5239 73.3505 54.3909 73.688 54.125C74.0289 53.8557 74.2846 53.4943 74.455 53.0409C74.6289 52.5841 74.7158 52.0762 74.7158 51.5171C74.7158 50.9648 74.6306 50.4671 74.4601 50.0239C74.2931 49.5773 74.0391 49.2244 73.6982 48.9654C73.3607 48.7029 72.9363 48.5716 72.4249 48.5716C71.934 48.5716 71.5215 48.696 71.1874 48.9449C70.8533 49.1904 70.601 49.5347 70.4306 49.9779C70.2601 50.4176 70.1749 50.9307 70.1749 51.5171ZM78.9704 50.7193V55.4443H77.7635V44.9716H78.9704V48.8171H79.0726C79.2567 48.4114 79.5329 48.0892 79.901 47.8506C80.2726 47.6085 80.7669 47.4875 81.384 47.4875C81.9192 47.4875 82.388 47.5949 82.7902 47.8097C83.1925 48.021 83.5044 48.3466 83.726 48.7864C83.951 49.2227 84.0635 49.7784 84.0635 50.4534V55.4443H82.8567V50.5352C82.8567 49.9114 82.6948 49.429 82.3709 49.0881C82.0505 48.7438 81.6056 48.5716 81.0363 48.5716C80.6408 48.5716 80.2863 48.6551 79.9726 48.8222C79.6624 48.9892 79.4169 49.233 79.2363 49.5534C79.059 49.8739 78.9704 50.2625 78.9704 50.7193ZM88.5827 55.6284C88.085 55.6284 87.6333 55.5347 87.2276 55.3472C86.8219 55.1563 86.4998 54.8818 86.2611 54.5239C86.0225 54.1625 85.9032 53.7262 85.9032 53.2148C85.9032 52.7648 85.9918 52.4 86.1691 52.1205C86.3463 51.8375 86.5833 51.6159 86.8799 51.4557C87.1765 51.2955 87.5037 51.1762 87.8617 51.0977C88.2231 51.0159 88.5861 50.9512 88.9509 50.9034C89.4282 50.8421 89.8151 50.796 90.1117 50.7654C90.4117 50.7313 90.6299 50.675 90.7662 50.5966C90.906 50.5182 90.9759 50.3818 90.9759 50.1875V50.1466C90.9759 49.6421 90.8378 49.25 90.5617 48.9705C90.289 48.6909 89.8748 48.5512 89.3191 48.5512C88.7429 48.5512 88.2912 48.6773 87.964 48.9296C87.6367 49.1818 87.4066 49.4512 87.2736 49.7375L86.1282 49.3284C86.3327 48.8512 86.6054 48.4796 86.9463 48.2137C87.2907 47.9443 87.6657 47.7568 88.0713 47.6512C88.4804 47.5421 88.8827 47.4875 89.2782 47.4875C89.5304 47.4875 89.8202 47.5182 90.1475 47.5796C90.4782 47.6375 90.7969 47.7585 91.1037 47.9426C91.414 48.1267 91.6713 48.4046 91.8759 48.7762C92.0804 49.1477 92.1827 49.6455 92.1827 50.2693V55.4443H90.9759V54.3807H90.9145C90.8327 54.5512 90.6963 54.7335 90.5054 54.9279C90.3145 55.1222 90.0606 55.2875 89.7435 55.4239C89.4265 55.5602 89.0395 55.6284 88.5827 55.6284ZM88.7668 54.5443C89.2441 54.5443 89.6463 54.4506 89.9736 54.2631C90.3043 54.0756 90.5532 53.8335 90.7202 53.5369C90.8907 53.2404 90.9759 52.9284 90.9759 52.6012V51.4966C90.9248 51.558 90.8123 51.6142 90.6384 51.6654C90.4679 51.7131 90.2702 51.7557 90.0452 51.7932C89.8236 51.8273 89.6071 51.858 89.3958 51.8852C89.1878 51.9091 89.0191 51.9296 88.8895 51.9466C88.5759 51.9875 88.2827 52.054 88.01 52.146C87.7407 52.2347 87.5225 52.3693 87.3554 52.55C87.1918 52.7273 87.11 52.9693 87.11 53.2762C87.11 53.6955 87.2651 54.0125 87.5753 54.2273C87.889 54.4387 88.2861 54.5443 88.7668 54.5443ZM98.599 55.4443V44.9716H104.879V46.0966H99.8672V49.6352H104.408V50.7602H99.8672V55.4443H98.599ZM109.604 55.608C108.847 55.608 108.194 55.4409 107.645 55.1068C107.1 54.7693 106.679 54.2989 106.382 53.6955C106.089 53.0887 105.942 52.383 105.942 51.5784C105.942 50.7739 106.089 50.0648 106.382 49.4512C106.679 48.8341 107.091 48.3534 107.619 48.0091C108.151 47.6614 108.772 47.4875 109.481 47.4875C109.89 47.4875 110.294 47.5557 110.693 47.6921C111.092 47.8284 111.455 48.05 111.782 48.3568C112.109 48.6602 112.37 49.0625 112.564 49.5637C112.759 50.0648 112.856 50.6818 112.856 51.4148V51.9262H106.801V50.883H111.629C111.629 50.4398 111.54 50.0443 111.363 49.6966C111.189 49.3489 110.94 49.0744 110.616 48.8733C110.296 48.6722 109.917 48.5716 109.481 48.5716C109 48.5716 108.584 48.6909 108.233 48.9296C107.885 49.1648 107.618 49.4716 107.43 49.85C107.243 50.2284 107.149 50.6341 107.149 51.0671V51.7625C107.149 52.3557 107.251 52.8585 107.456 53.271C107.664 53.6801 107.952 53.9921 108.32 54.2068C108.688 54.4182 109.116 54.5239 109.604 54.5239C109.921 54.5239 110.207 54.4796 110.463 54.3909C110.722 54.2989 110.945 54.1625 111.133 53.9818C111.32 53.7977 111.465 53.5693 111.567 53.2966L112.733 53.6239C112.61 54.0193 112.404 54.3671 112.114 54.6671C111.825 54.9637 111.467 55.1955 111.041 55.3625C110.614 55.5262 110.135 55.608 109.604 55.608ZM114.692 55.4443V47.5898H115.858V48.8171H115.96C116.123 48.3977 116.388 48.0722 116.752 47.8404C117.117 47.6051 117.555 47.4875 118.067 47.4875C118.585 47.4875 119.016 47.6051 119.36 47.8404C119.708 48.0722 119.979 48.3977 120.173 48.8171H120.255C120.456 48.4114 120.758 48.0892 121.16 47.8506C121.563 47.6085 122.045 47.4875 122.608 47.4875C123.31 47.4875 123.884 47.7074 124.331 48.1472C124.777 48.5835 125.001 49.2637 125.001 50.1875V55.4443H123.794V50.1875C123.794 49.608 123.635 49.1938 123.318 48.9449C123.001 48.696 122.628 48.5716 122.198 48.5716C121.646 48.5716 121.218 48.7387 120.915 49.0727C120.612 49.4034 120.46 49.8227 120.46 50.3307V55.4443H119.233V50.0648C119.233 49.6182 119.088 49.2585 118.798 48.9858C118.508 48.7097 118.135 48.5716 117.678 48.5716C117.364 48.5716 117.071 48.6551 116.798 48.8222C116.529 48.9892 116.311 49.221 116.144 49.5176C115.98 49.8108 115.898 50.15 115.898 50.5352V55.4443H114.692ZM129.519 55.6284C129.021 55.6284 128.569 55.5347 128.164 55.3472C127.758 55.1563 127.436 54.8818 127.197 54.5239C126.958 54.1625 126.839 53.7262 126.839 53.2148C126.839 52.7648 126.928 52.4 127.105 52.1205C127.282 51.8375 127.519 51.6159 127.816 51.4557C128.112 51.2955 128.44 51.1762 128.798 51.0977C129.159 51.0159 129.522 50.9512 129.887 50.9034C130.364 50.8421 130.751 50.796 131.048 50.7654C131.348 50.7313 131.566 50.675 131.702 50.5966C131.842 50.5182 131.912 50.3818 131.912 50.1875V50.1466C131.912 49.6421 131.774 49.25 131.498 48.9705C131.225 48.6909 130.811 48.5512 130.255 48.5512C129.679 48.5512 129.227 48.6773 128.9 48.9296C128.573 49.1818 128.343 49.4512 128.21 49.7375L127.064 49.3284C127.269 48.8512 127.541 48.4796 127.882 48.2137C128.227 47.9443 128.602 47.7568 129.007 47.6512C129.416 47.5421 129.819 47.4875 130.214 47.4875C130.466 47.4875 130.756 47.5182 131.083 47.5796C131.414 47.6375 131.733 47.7585 132.04 47.9426C132.35 48.1267 132.607 48.4046 132.812 48.7762C133.016 49.1477 133.119 49.6455 133.119 50.2693V55.4443H131.912V54.3807H131.85C131.769 54.5512 131.632 54.7335 131.441 54.9279C131.25 55.1222 130.996 55.2875 130.679 55.4239C130.362 55.5602 129.975 55.6284 129.519 55.6284ZM129.703 54.5443C130.18 54.5443 130.582 54.4506 130.91 54.2631C131.24 54.0756 131.489 53.8335 131.656 53.5369C131.827 53.2404 131.912 52.9284 131.912 52.6012V51.4966C131.861 51.558 131.748 51.6142 131.574 51.6654C131.404 51.7131 131.206 51.7557 130.981 51.7932C130.76 51.8273 130.543 51.858 130.332 51.8852C130.124 51.9091 129.955 51.9296 129.825 51.9466C129.512 51.9875 129.219 52.054 128.946 52.146C128.677 52.2347 128.458 52.3693 128.291 52.55C128.128 52.7273 128.046 52.9693 128.046 53.2762C128.046 53.6955 128.201 54.0125 128.511 54.2273C128.825 54.4387 129.222 54.5443 129.703 54.5443ZM136.528 44.9716V55.4443H135.321V44.9716H136.528ZM142.032 55.608C141.275 55.608 140.622 55.4409 140.073 55.1068C139.528 54.7693 139.107 54.2989 138.81 53.6955C138.517 53.0887 138.37 52.383 138.37 51.5784C138.37 50.7739 138.517 50.0648 138.81 49.4512C139.107 48.8341 139.519 48.3534 140.048 48.0091C140.579 47.6614 141.2 47.4875 141.909 47.4875C142.318 47.4875 142.722 47.5557 143.121 47.6921C143.52 47.8284 143.883 48.05 144.21 48.3568C144.537 48.6602 144.798 49.0625 144.993 49.5637C145.187 50.0648 145.284 50.6818 145.284 51.4148V51.9262H139.229V50.883H144.057C144.057 50.4398 143.968 50.0443 143.791 49.6966C143.617 49.3489 143.368 49.0744 143.044 48.8733C142.724 48.6722 142.345 48.5716 141.909 48.5716C141.428 48.5716 141.012 48.6909 140.661 48.9296C140.314 49.1648 140.046 49.4716 139.858 49.85C139.671 50.2284 139.577 50.6341 139.577 51.0671V51.7625C139.577 52.3557 139.679 52.8585 139.884 53.271C140.092 53.6801 140.38 53.9921 140.748 54.2068C141.116 54.4182 141.544 54.5239 142.032 54.5239C142.349 54.5239 142.635 54.4796 142.891 54.3909C143.15 54.2989 143.373 54.1625 143.561 53.9818C143.748 53.7977 143.893 53.5693 143.995 53.2966L145.161 53.6239C145.039 54.0193 144.832 54.3671 144.543 54.6671C144.253 54.9637 143.895 55.1955 143.469 55.3625C143.043 55.5262 142.564 55.608 142.032 55.608ZM45.5412 77.4443V66.9716H46.748V70.8375H46.8503C46.939 70.7012 47.0617 70.5273 47.2185 70.3159C47.3787 70.1012 47.6071 69.9102 47.9037 69.7432C48.2037 69.5727 48.6094 69.4875 49.1208 69.4875C49.7821 69.4875 50.3651 69.6529 50.8696 69.9835C51.3742 70.3142 51.7679 70.783 52.0509 71.3898C52.3338 71.9966 52.4753 72.7125 52.4753 73.5375C52.4753 74.3693 52.3338 75.0904 52.0509 75.7006C51.7679 76.3074 51.3759 76.7779 50.8748 77.1119C50.3736 77.4426 49.7958 77.608 49.1412 77.608C48.6367 77.608 48.2327 77.5244 47.9293 77.3574C47.6259 77.1869 47.3924 76.9943 47.2287 76.7796C47.0651 76.5614 46.939 76.3807 46.8503 76.2375H46.7071V77.4443H45.5412ZM46.7276 73.5171C46.7276 74.1102 46.8145 74.6335 46.9884 75.0869C47.1623 75.5369 47.4162 75.8898 47.7503 76.1455C48.0844 76.3977 48.4935 76.5239 48.9776 76.5239C49.4821 76.5239 49.9032 76.3909 50.2407 76.125C50.5816 75.8557 50.8373 75.4943 51.0077 75.0409C51.1816 74.5841 51.2685 74.0762 51.2685 73.5171C51.2685 72.9648 51.1833 72.4671 51.0128 72.0239C50.8458 71.5773 50.5918 71.2244 50.2509 70.9654C49.9134 70.7029 49.489 70.5716 48.9776 70.5716C48.4867 70.5716 48.0742 70.696 47.7401 70.9449C47.406 71.1904 47.1537 71.5347 46.9833 71.9779C46.8128 72.4176 46.7276 72.9307 46.7276 73.5171ZM54.8174 80.3898C54.6128 80.3898 54.4304 80.3727 54.2702 80.3387C54.11 80.308 53.9992 80.2773 53.9378 80.2466L54.2446 79.183C54.5378 79.258 54.7969 79.2852 55.0219 79.2648C55.2469 79.2443 55.4463 79.1438 55.6202 78.9631C55.7975 78.7858 55.9594 78.4977 56.106 78.0989L56.331 77.4852L53.4265 69.5898H54.7355L56.9037 75.8489H56.9855L59.1537 69.5898H60.4628L57.1287 78.5898C56.9787 78.9955 56.7929 79.3313 56.5713 79.5972C56.3498 79.8665 56.0924 80.0659 55.7992 80.1955C55.5094 80.325 55.1821 80.3898 54.8174 80.3898ZM66.2694 77.4443V66.9716H69.808C70.6262 66.9716 71.2978 67.1114 71.8228 67.3909C72.3478 67.6671 72.7364 68.0472 72.9887 68.5313C73.2409 69.0154 73.3671 69.5659 73.3671 70.183C73.3671 70.8 73.2409 71.3472 72.9887 71.8244C72.7364 72.3017 72.3495 72.6767 71.8279 72.9494C71.3063 73.2188 70.6398 73.3534 69.8284 73.3534H66.9648V72.208H69.7875C70.3466 72.208 70.7966 72.1262 71.1375 71.9625C71.4819 71.7989 71.7307 71.5671 71.8841 71.2671C72.0409 70.9637 72.1194 70.6023 72.1194 70.183C72.1194 69.7637 72.0409 69.3972 71.8841 69.0835C71.7273 68.7699 71.4767 68.5279 71.1324 68.3574C70.7881 68.1835 70.333 68.0966 69.7671 68.0966H67.5375V77.4443H66.2694ZM71.1989 72.7398L73.7762 77.4443H72.3034L69.7671 72.7398H71.1989ZM75.3167 77.4443V69.5898H76.5235V77.4443H75.3167ZM75.9303 68.2807C75.6951 68.2807 75.4922 68.2006 75.3218 68.0404C75.1547 67.8801 75.0712 67.6875 75.0712 67.4625C75.0712 67.2375 75.1547 67.0449 75.3218 66.8847C75.4922 66.7244 75.6951 66.6443 75.9303 66.6443C76.1655 66.6443 76.3667 66.7244 76.5337 66.8847C76.7042 67.0449 76.7894 67.2375 76.7894 67.4625C76.7894 67.6875 76.7042 67.8801 76.5337 68.0404C76.3667 68.2006 76.1655 68.2807 75.9303 68.2807ZM82.1498 69.5898V70.6125H78.0793V69.5898H82.1498ZM79.2657 67.708H80.4725V75.1943C80.4725 75.5352 80.5219 75.7909 80.6208 75.9614C80.723 76.1284 80.8526 76.2409 81.0094 76.2989C81.1696 76.3534 81.3384 76.3807 81.5157 76.3807C81.6486 76.3807 81.7577 76.3739 81.8429 76.3602C81.9282 76.3432 81.9963 76.3296 82.0475 76.3193L82.2929 77.4034C82.2111 77.4341 82.0969 77.4648 81.9503 77.4955C81.8037 77.5296 81.6179 77.5466 81.3929 77.5466C81.052 77.5466 80.7179 77.4733 80.3907 77.3267C80.0668 77.1801 79.7975 76.9568 79.5827 76.6568C79.3713 76.3568 79.2657 75.9784 79.2657 75.5216V67.708ZM83.7401 77.4443V76.5239L88.1992 70.7966V70.7148H83.8833V69.5898H89.7537V70.5512L85.4174 76.2375V76.3193H89.8969V77.4443H83.7401ZM95.9694 66.9716H97.483L101.042 75.6648H101.165L104.724 66.9716H106.238V77.4443H105.051V69.4875H104.949L101.676 77.4443H100.531L97.258 69.4875H97.1557V77.4443H95.9694V66.9716ZM110.928 77.6284C110.43 77.6284 109.979 77.5347 109.573 77.3472C109.167 77.1563 108.845 76.8818 108.606 76.5239C108.368 76.1625 108.248 75.7262 108.248 75.2148C108.248 74.7648 108.337 74.4 108.514 74.1205C108.692 73.8375 108.929 73.6159 109.225 73.4557C109.522 73.2955 109.849 73.1762 110.207 73.0977C110.568 73.0159 110.931 72.9512 111.296 72.9034C111.773 72.8421 112.16 72.796 112.457 72.7654C112.757 72.7313 112.975 72.675 113.112 72.5966C113.251 72.5182 113.321 72.3818 113.321 72.1875V72.1466C113.321 71.6421 113.183 71.25 112.907 70.9705C112.634 70.6909 112.22 70.5512 111.664 70.5512C111.088 70.5512 110.637 70.6773 110.309 70.9296C109.982 71.1818 109.752 71.4512 109.619 71.7375L108.473 71.3284C108.678 70.8512 108.951 70.4796 109.292 70.2137C109.636 69.9443 110.011 69.7568 110.417 69.6512C110.826 69.5421 111.228 69.4875 111.623 69.4875C111.876 69.4875 112.166 69.5182 112.493 69.5796C112.823 69.6375 113.142 69.7585 113.449 69.9426C113.759 70.1267 114.017 70.4046 114.221 70.7762C114.426 71.1477 114.528 71.6455 114.528 72.2693V77.4443H113.321V76.3807H113.26C113.178 76.5512 113.042 76.7335 112.851 76.9279C112.66 77.1222 112.406 77.2875 112.089 77.4239C111.772 77.5602 111.385 77.6284 110.928 77.6284ZM111.112 76.5443C111.589 76.5443 111.992 76.4506 112.319 76.2631C112.65 76.0756 112.898 75.8335 113.066 75.5369C113.236 75.2404 113.321 74.9284 113.321 74.6012V73.4966C113.27 73.558 113.158 73.6142 112.984 73.6654C112.813 73.7131 112.616 73.7557 112.391 73.7932C112.169 73.8273 111.952 73.858 111.741 73.8852C111.533 73.9091 111.364 73.9296 111.235 73.9466C110.921 73.9875 110.628 74.054 110.355 74.146C110.086 74.2347 109.868 74.3693 109.701 74.55C109.537 74.7273 109.455 74.9693 109.455 75.2762C109.455 75.6955 109.61 76.0125 109.921 76.2273C110.234 76.4387 110.631 76.5443 111.112 76.5443ZM119.901 80.5534C119.318 80.5534 118.817 80.4784 118.398 80.3284C117.978 80.1818 117.629 79.9875 117.349 79.7455C117.073 79.5068 116.853 79.2512 116.69 78.9784L117.651 78.3034C117.76 78.4466 117.898 78.6102 118.065 78.7943C118.232 78.9818 118.461 79.1438 118.751 79.2801C119.044 79.4199 119.427 79.4898 119.901 79.4898C120.535 79.4898 121.059 79.3364 121.471 79.0296C121.884 78.7227 122.09 78.2421 122.09 77.5875V75.9921H121.988C121.899 76.1352 121.773 76.3125 121.609 76.5239C121.449 76.7318 121.217 76.9176 120.914 77.0813C120.614 77.2415 120.208 77.3216 119.697 77.3216C119.063 77.3216 118.493 77.1716 117.989 76.8716C117.488 76.5716 117.09 76.1352 116.797 75.5625C116.507 74.9898 116.363 74.2943 116.363 73.4762C116.363 72.6716 116.504 71.971 116.787 71.3744C117.07 70.7744 117.464 70.3108 117.968 69.9835C118.473 69.6529 119.056 69.4875 119.717 69.4875C120.228 69.4875 120.634 69.5727 120.934 69.7432C121.238 69.9102 121.469 70.1012 121.63 70.3159C121.793 70.5273 121.919 70.7012 122.008 70.8375H122.131V69.5898H123.297V77.6693C123.297 78.3443 123.143 78.8932 122.836 79.3159C122.533 79.7421 122.124 80.054 121.609 80.2517C121.098 80.4529 120.528 80.5534 119.901 80.5534ZM119.86 76.2375C120.344 76.2375 120.753 76.1267 121.088 75.9051C121.422 75.6835 121.676 75.3648 121.849 74.9489C122.023 74.533 122.11 74.0352 122.11 73.4557C122.11 72.8898 122.025 72.3904 121.855 71.9574C121.684 71.5244 121.432 71.1852 121.098 70.9398C120.764 70.6943 120.351 70.5716 119.86 70.5716C119.349 70.5716 118.923 70.7012 118.582 70.9602C118.244 71.2193 117.99 71.5671 117.82 72.0034C117.653 72.4398 117.569 72.9239 117.569 73.4557C117.569 74.0012 117.655 74.4835 117.825 74.9029C117.999 75.3188 118.255 75.646 118.592 75.8847C118.933 76.1199 119.356 76.2375 119.86 76.2375ZM127.817 77.6284C127.319 77.6284 126.868 77.5347 126.462 77.3472C126.056 77.1563 125.734 76.8818 125.495 76.5239C125.257 76.1625 125.138 75.7262 125.138 75.2148C125.138 74.7648 125.226 74.4 125.403 74.1205C125.581 73.8375 125.818 73.6159 126.114 73.4557C126.411 73.2955 126.738 73.1762 127.096 73.0977C127.457 73.0159 127.82 72.9512 128.185 72.9034C128.663 72.8421 129.049 72.796 129.346 72.7654C129.646 72.7313 129.864 72.675 130.001 72.5966C130.14 72.5182 130.21 72.3818 130.21 72.1875V72.1466C130.21 71.6421 130.072 71.25 129.796 70.9705C129.523 70.6909 129.109 70.5512 128.553 70.5512C127.977 70.5512 127.526 70.6773 127.198 70.9296C126.871 71.1818 126.641 71.4512 126.508 71.7375L125.363 71.3284C125.567 70.8512 125.84 70.4796 126.181 70.2137C126.525 69.9443 126.9 69.7568 127.306 69.6512C127.715 69.5421 128.117 69.4875 128.513 69.4875C128.765 69.4875 129.055 69.5182 129.382 69.5796C129.713 69.6375 130.031 69.7585 130.338 69.9426C130.648 70.1267 130.906 70.4046 131.11 70.7762C131.315 71.1477 131.417 71.6455 131.417 72.2693V77.4443H130.21V76.3807H130.149C130.067 76.5512 129.931 76.7335 129.74 76.9279C129.549 77.1222 129.295 77.2875 128.978 77.4239C128.661 77.5602 128.274 77.6284 127.817 77.6284ZM128.001 76.5443C128.478 76.5443 128.881 76.4506 129.208 76.2631C129.539 76.0756 129.788 75.8335 129.955 75.5369C130.125 75.2404 130.21 74.9284 130.21 74.6012V73.4966C130.159 73.558 130.047 73.6142 129.873 73.6654C129.702 73.7131 129.505 73.7557 129.28 73.7932C129.058 73.8273 128.842 73.858 128.63 73.8852C128.422 73.9091 128.253 73.9296 128.124 73.9466C127.81 73.9875 127.517 74.054 127.244 74.146C126.975 74.2347 126.757 74.3693 126.59 74.55C126.426 74.7273 126.344 74.9693 126.344 75.2762C126.344 75.6955 126.499 76.0125 126.81 76.2273C127.123 76.4387 127.52 76.5443 128.001 76.5443ZM133.395 77.4443V76.5239L137.854 70.7966V70.7148H133.538V69.5898H139.408V70.5512L135.072 76.2375V76.3193H139.552V77.4443H133.395ZM141.41 77.4443V69.5898H142.617V77.4443H141.41ZM142.024 68.2807C141.789 68.2807 141.586 68.2006 141.416 68.0404C141.248 67.8801 141.165 67.6875 141.165 67.4625C141.165 67.2375 141.248 67.0449 141.416 66.8847C141.586 66.7244 141.789 66.6443 142.024 66.6443C142.259 66.6443 142.46 66.7244 142.627 66.8847C142.798 67.0449 142.883 67.2375 142.883 67.4625C142.883 67.6875 142.798 67.8801 142.627 68.0404C142.46 68.2006 142.259 68.2807 142.024 68.2807ZM146.034 72.7193V77.4443H144.828V69.5898H145.993V70.8171H146.096C146.28 70.4182 146.559 70.0977 146.934 69.8557C147.309 69.6102 147.793 69.4875 148.387 69.4875C148.918 69.4875 149.384 69.5966 149.783 69.8148C150.182 70.0296 150.492 70.3568 150.713 70.7966C150.935 71.233 151.046 71.7852 151.046 72.4534V77.4443H149.839V72.5352C149.839 71.9182 149.679 71.4375 149.358 71.0932C149.038 70.7455 148.598 70.5716 148.039 70.5716C147.654 70.5716 147.309 70.6551 147.006 70.8222C146.706 70.9892 146.469 71.233 146.295 71.5534C146.121 71.8739 146.034 72.2625 146.034 72.7193ZM156.544 77.608C155.787 77.608 155.135 77.4409 154.586 77.1068C154.04 76.7693 153.619 76.2989 153.323 75.6955C153.029 75.0887 152.883 74.383 152.883 73.5784C152.883 72.7739 153.029 72.0648 153.323 71.4512C153.619 70.8341 154.032 70.3534 154.56 70.0091C155.092 69.6614 155.712 69.4875 156.421 69.4875C156.831 69.4875 157.235 69.5557 157.633 69.6921C158.032 69.8284 158.395 70.05 158.723 70.3568C159.05 70.6602 159.311 71.0625 159.505 71.5637C159.699 72.0648 159.796 72.6818 159.796 73.4148V73.9262H153.742V72.883H158.569C158.569 72.4398 158.481 72.0443 158.303 71.6966C158.129 71.3489 157.881 71.0744 157.557 70.8733C157.236 70.6722 156.858 70.5716 156.421 70.5716C155.941 70.5716 155.525 70.6909 155.174 70.9296C154.826 71.1648 154.558 71.4716 154.371 71.85C154.183 72.2284 154.09 72.6341 154.09 73.0671V73.7625C154.09 74.3557 154.192 74.8585 154.396 75.271C154.604 75.6801 154.893 75.9921 155.261 76.2068C155.629 76.4182 156.057 76.5239 156.544 76.5239C156.861 76.5239 157.148 76.4796 157.403 76.3909C157.662 76.2989 157.886 76.1625 158.073 75.9818C158.261 75.7977 158.406 75.5693 158.508 75.2966L159.674 75.6239C159.551 76.0193 159.345 76.3671 159.055 76.6671C158.765 76.9637 158.407 77.1955 157.981 77.3625C157.555 77.5262 157.076 77.608 156.544 77.608Z" fill="#F6F9FC"/>
</g>
<defs>
<linearGradient id="paint0_linear_1668_1194" x1="173.803" y1="88.1152" x2="173.803" y2="0.444332" gradientUnits="userSpaceOnUse">
<stop stop-color="#EED575"/>
<stop offset="1" stop-color="#BC7A2E"/>
</linearGradient>
<linearGradient id="paint1_linear_1668_1194" x1="32.8323" y1="88.1152" x2="32.8323" y2="0.444332" gradientUnits="userSpaceOnUse">
<stop stop-color="#EED575"/>
<stop offset="1" stop-color="#BC7A2E"/>
</linearGradient>
<clipPath id="clip0_1668_1194">
<rect width="205" height="100" fill="white" transform="translate(0.400391 0.444336)"/>
</clipPath>
<clipPath id="clip1_1668_1194">
<rect width="56.8345" height="100" fill="white" transform="translate(148.4 0.444336)"/>
</clipPath>
<clipPath id="clip2_1668_1194">
<rect width="56.8345" height="100" fill="white" transform="matrix(-1 0 0 1 58.2354 0.444336)"/>
</clipPath>
</defs>
</svg>
