<svg width="231" height="101" viewBox="0 0 231 101" fill="none" xmlns="http://www.w3.org/2000/svg">
<g clip-path="url(#clip0_1661_978)">
<g clip-path="url(#clip1_1661_978)">
<path fill-rule="evenodd" clip-rule="evenodd" d="M174 95.2167C186.592 95.2167 197.995 89.9435 206.241 81.4202C214.494 72.8968 219.598 61.108 219.598 48.0995C219.598 35.0909 214.494 23.3021 206.241 14.7788C204.446 12.9301 202.508 11.233 200.441 9.71019C195.004 10.0739 189.939 3.67943 190.249 0.762542C196.965 3.55821 200.282 2.11113 200.925 9.31622C202.97 10.8315 204.893 12.521 206.665 14.3545C215.024 22.9915 220.196 34.9242 220.196 48.0995C220.196 61.2747 215.024 73.2074 206.665 81.8444C198.873 89.8905 188.326 95.0727 176.604 95.7546L173.992 95.2242L174 95.2167ZM205.575 10.9754C208.225 7.49032 205.726 1.34592 203.583 0.444336C202.955 6.10386 200.683 7.76307 205.575 10.9754ZM209.959 16.8395C213.313 14.0211 212.223 7.48275 210.322 6.12658C208.467 11.5058 205.893 12.6271 209.959 16.8395ZM206.423 17.2714C204.87 11.7785 202.667 13.3999 197.223 12.324C197.435 14.5818 202.402 18.7184 206.423 17.2714ZM211.034 24.5295C210.019 18.9079 207.664 20.3095 202.356 18.7184C202.356 20.9913 206.9 25.575 211.034 24.5295ZM214.721 23.3627C218.22 20.4231 217.076 13.6044 215.107 12.1952C213.169 17.8017 210.489 18.9685 214.721 23.3627ZM217.674 30.0981C221.983 28.5828 223.323 21.802 221.975 19.7867C218.182 24.3477 215.259 24.4916 217.674 30.0981ZM215.94 33.856C216.145 27.5221 213.268 28.4919 207.884 25.5296C207.346 27.9919 211.216 34.0302 215.94 33.856ZM220.65 38.1214C225.534 36.4016 227.063 28.7116 225.534 26.4236C221.233 31.5982 217.917 31.7573 220.65 38.1214ZM217.735 42.4324C218.636 36.1667 215.675 36.8107 210.648 33.265C209.845 35.6515 213.018 42.0763 217.735 42.4324ZM221.763 46.2054C227.094 45.3796 230.115 37.7881 228.979 35.1515C223.596 39.6291 220.166 39.167 221.763 46.2054ZM221.468 54.403C220.991 46.8721 224.451 47.9176 230.759 44.1901C231.493 47.0994 227.109 54.4333 221.468 54.403ZM218.257 53.6075C220.574 46.069 216.804 46.2963 211.306 40.9626C209.853 43.7431 212.525 52.2589 218.257 53.6075ZM219.151 63.5173C225.057 64.5553 230.955 57.6456 230.706 54.4636C223.429 57.2517 219.984 55.5394 219.151 63.5173ZM215.819 70.2754C220.756 73.6772 228.994 69.8587 230.092 66.866C222.316 66.366 219.9 63.3733 215.819 70.2754ZM215.236 64.0098C218.628 56.8274 214.835 56.5092 210.11 50.4102C208.263 52.9786 209.709 61.8505 215.236 64.0098ZM210.928 76.9653C215.039 81.3368 223.898 79.3367 225.602 76.6395C218.106 74.5106 216.38 71.0785 210.928 76.9653ZM209.338 74.2908C214.638 68.8662 211.314 67.3964 208.944 60.411C206.483 62.1536 205.014 70.6163 209.338 74.2908ZM205.65 84.1477C209.762 88.5192 218.621 86.519 220.325 83.8219C212.828 81.6929 211.102 78.2608 205.65 84.1477ZM200.342 83.981C207.717 80.5792 204.954 77.8366 205.256 69.942C202.129 70.7375 197.427 78.6472 200.342 83.981ZM198.495 89.6708C201.599 95.2849 211.299 95.5576 213.782 93.2165C206.582 89.0344 205.696 85.0113 198.495 89.6708ZM190.317 93.5044C192.218 99.4897 201.478 101.611 204.302 99.8382C198.192 94.4363 198.116 90.4133 190.317 93.5044ZM188.25 90.8679C197.102 89.6708 195.08 85.8902 197.934 77.6926C194.383 77.5259 186.895 84.3219 188.25 90.8679Z" fill="url(#paint0_linear_1661_978)"/>
</g>
<g clip-path="url(#clip2_1661_978)">
<path fill-rule="evenodd" clip-rule="evenodd" d="M56.8352 95.2167C44.2432 95.2167 32.8399 89.9435 24.5941 81.4202C16.3408 72.8968 11.2373 61.108 11.2373 48.0995C11.2373 35.0909 16.3408 23.3021 24.5941 14.7788C26.3887 12.9301 28.3271 11.233 30.3942 9.71019C35.8308 10.0739 40.8964 3.67943 40.5859 0.762542C33.8697 3.55821 30.5532 2.11113 29.9096 9.31622C27.8652 10.8315 25.9419 12.521 24.1701 14.3545C15.8108 22.9915 10.6392 34.9242 10.6392 48.0995C10.6392 61.2747 15.8108 73.2074 24.1701 81.8444C31.9616 89.8905 42.5092 95.0727 54.2305 95.7546L56.8428 95.2242L56.8352 95.2167ZM25.2605 10.9754C22.6103 7.49032 25.109 1.34592 27.2519 0.444336C27.8803 6.10386 30.1519 7.76307 25.2605 10.9754ZM20.8763 16.8395C17.522 14.0211 18.6123 7.48275 20.5129 6.12658C22.368 11.5058 24.9424 12.6271 20.8763 16.8395ZM24.4124 17.2714C25.9646 11.7785 28.1681 13.3999 33.6122 12.324C33.4002 14.5818 28.4331 18.7184 24.4124 17.2714ZM19.8011 24.5295C20.8158 18.9079 23.1706 20.3095 28.4785 18.7184C28.4785 20.9913 23.9354 25.575 19.8011 24.5295ZM16.1136 23.3627C12.6154 20.4231 13.7588 13.6044 15.7275 12.1952C17.6659 17.8017 20.3463 18.9685 16.1136 23.3627ZM13.1606 30.0981C8.85219 28.5828 7.51197 21.802 8.85976 19.7867C12.6533 24.3477 15.576 24.4916 13.1606 30.0981ZM14.8946 33.856C14.6901 27.5221 17.5674 28.4919 22.951 25.5296C23.4886 27.9919 19.6194 34.0302 14.8946 33.856ZM10.1848 38.1214C5.30098 36.4016 3.77146 28.7116 5.30098 26.4236C9.60181 31.5982 12.9183 31.7573 10.1848 38.1214ZM13.1 42.4324C12.199 36.1667 15.1596 36.8107 20.1873 33.265C20.9899 35.6515 17.8173 42.0763 13.1 42.4324ZM9.07178 46.2054C3.74117 45.3796 0.71999 37.7881 1.85577 35.1515C7.23938 39.6291 10.6694 39.167 9.07178 46.2054ZM9.36708 54.403C9.84411 46.8721 6.38376 47.9176 0.0763817 44.1901C-0.658089 47.0994 3.72603 54.4333 9.36708 54.403ZM12.5776 53.6075C10.2606 46.069 14.0314 46.2963 19.5285 40.9626C20.9823 43.7431 18.3095 52.2589 12.5776 53.6075ZM11.6841 63.5173C5.77801 64.5553 -0.120487 57.6456 0.129383 54.4636C7.40596 57.2517 10.8512 55.5394 11.6841 63.5173ZM15.0157 70.2754C10.0788 73.6772 1.84063 69.8587 0.742706 66.866C8.51903 66.366 10.9345 63.3733 15.0157 70.2754ZM15.5987 64.0098C12.2065 56.8274 16 56.5092 20.7249 50.4102C22.5724 52.9786 21.1262 61.8505 15.5987 64.0098ZM19.9071 76.9653C15.7956 81.3368 6.9365 79.3367 5.23283 76.6395C12.729 74.5106 14.4554 71.0785 19.9071 76.9653ZM21.4972 74.2908C16.1969 68.8662 19.521 67.3964 21.891 60.411C24.3518 62.1536 25.8208 70.6163 21.4972 74.2908ZM25.1847 84.1477C21.0732 88.5192 12.2141 86.519 10.5104 83.8219C18.0066 81.6929 19.733 78.2608 25.1847 84.1477ZM30.4926 83.981C23.1176 80.5792 25.8814 77.8366 25.5785 69.942C28.7057 70.7375 33.4078 78.6472 30.4926 83.981ZM32.3402 89.6708C29.2357 95.2849 19.5361 95.5576 17.0525 93.2165C24.2534 89.0344 25.1393 85.0113 32.3402 89.6708ZM40.5178 93.5044C38.6173 99.4897 29.3568 101.611 26.5325 99.8382C32.643 94.4363 32.7188 90.4133 40.5178 93.5044ZM42.5849 90.8679C33.7334 89.6708 35.7551 85.8902 32.9005 77.6926C36.4517 77.5259 43.9403 84.3219 42.5849 90.8679Z" fill="url(#paint1_linear_1661_978)"/>
</g>
<path d="M41.2096 33.4443V22.9716H47.53V24.0966H42.4778V27.6352H47.2028V28.7602H42.4778V32.3193H47.6119V33.4443H41.2096ZM52.8431 33.608C52.1067 33.608 51.4727 33.4341 50.9408 33.0864C50.409 32.7387 49.9999 32.2597 49.7136 31.6494C49.4272 31.0392 49.284 30.3421 49.284 29.558C49.284 28.7602 49.4306 28.0563 49.7238 27.446C50.0204 26.8324 50.4329 26.3534 50.9613 26.0091C51.4931 25.6614 52.1136 25.4875 52.8227 25.4875C53.3749 25.4875 53.8727 25.5898 54.3158 25.7943C54.759 25.9989 55.1221 26.2852 55.405 26.6534C55.688 27.0216 55.8636 27.4512 55.9317 27.9421H54.7249C54.6329 27.5841 54.4283 27.2671 54.1113 26.9909C53.7977 26.7114 53.3749 26.5716 52.8431 26.5716C52.3727 26.5716 51.9602 26.6943 51.6056 26.9398C51.2545 27.1818 50.98 27.5244 50.7823 27.9676C50.588 28.4074 50.4908 28.9239 50.4908 29.5171C50.4908 30.1239 50.5863 30.6523 50.7772 31.1023C50.9715 31.5523 51.2442 31.9017 51.5954 32.1506C51.9499 32.3994 52.3658 32.5239 52.8431 32.5239C53.1567 32.5239 53.4414 32.4693 53.6971 32.3602C53.9528 32.2512 54.1692 32.0943 54.3465 31.8898C54.5238 31.6852 54.6499 31.4398 54.7249 31.1534H55.9317C55.8636 31.6171 55.6948 32.0347 55.4255 32.4063C55.1596 32.7744 54.8067 33.0676 54.367 33.2858C53.9306 33.5006 53.4227 33.608 52.8431 33.608ZM60.8869 33.608C60.1778 33.608 59.5556 33.4392 59.0204 33.1017C58.4886 32.7642 58.0727 32.2921 57.7727 31.6852C57.4761 31.0784 57.3278 30.3693 57.3278 29.558C57.3278 28.7398 57.4761 28.0256 57.7727 27.4154C58.0727 26.8051 58.4886 26.3313 59.0204 25.9938C59.5556 25.6563 60.1778 25.4875 60.8869 25.4875C61.596 25.4875 62.2164 25.6563 62.7482 25.9938C63.2835 26.3313 63.6994 26.8051 63.996 27.4154C64.296 28.0256 64.446 28.7398 64.446 29.558C64.446 30.3693 64.296 31.0784 63.996 31.6852C63.6994 32.2921 63.2835 32.7642 62.7482 33.1017C62.2164 33.4392 61.596 33.608 60.8869 33.608ZM60.8869 32.5239C61.4255 32.5239 61.8687 32.3858 62.2164 32.1097C62.5641 31.8335 62.8215 31.4705 62.9886 31.0205C63.1556 30.5705 63.2391 30.083 63.2391 29.558C63.2391 29.033 63.1556 28.5438 62.9886 28.0904C62.8215 27.6369 62.5641 27.2705 62.2164 26.9909C61.8687 26.7114 61.4255 26.5716 60.8869 26.5716C60.3482 26.5716 59.905 26.7114 59.5573 26.9909C59.2096 27.2705 58.9522 27.6369 58.7852 28.0904C58.6181 28.5438 58.5346 29.033 58.5346 29.558C58.5346 30.083 58.6181 30.5705 58.7852 31.0205C58.9522 31.4705 59.2096 31.8335 59.5573 32.1097C59.905 32.3858 60.3482 32.5239 60.8869 32.5239ZM67.495 28.7193V33.4443H66.2881V25.5898H67.454V26.8171H67.5563C67.7404 26.4182 68.02 26.0977 68.395 25.8557C68.77 25.6102 69.254 25.4875 69.8472 25.4875C70.379 25.4875 70.8444 25.5966 71.2433 25.8148C71.6421 26.0296 71.9523 26.3568 72.1739 26.7966C72.3955 27.233 72.5063 27.7852 72.5063 28.4534V33.4443H71.2995V28.5352C71.2995 27.9182 71.1393 27.4375 70.8188 27.0932C70.4984 26.7455 70.0586 26.5716 69.4995 26.5716C69.1143 26.5716 68.77 26.6551 68.4665 26.8222C68.1665 26.9892 67.9296 27.233 67.7558 27.5534C67.5819 27.8739 67.495 28.2625 67.495 28.7193ZM77.9025 33.608C77.1934 33.608 76.5712 33.4392 76.036 33.1017C75.5042 32.7642 75.0883 32.2921 74.7883 31.6852C74.4917 31.0784 74.3434 30.3693 74.3434 29.558C74.3434 28.7398 74.4917 28.0256 74.7883 27.4154C75.0883 26.8051 75.5042 26.3313 76.036 25.9938C76.5712 25.6563 77.1934 25.4875 77.9025 25.4875C78.6116 25.4875 79.232 25.6563 79.7638 25.9938C80.2991 26.3313 80.715 26.8051 81.0116 27.4154C81.3116 28.0256 81.4616 28.7398 81.4616 29.558C81.4616 30.3693 81.3116 31.0784 81.0116 31.6852C80.715 32.2921 80.2991 32.7642 79.7638 33.1017C79.232 33.4392 78.6116 33.608 77.9025 33.608ZM77.9025 32.5239C78.4411 32.5239 78.8843 32.3858 79.232 32.1097C79.5798 31.8335 79.8371 31.4705 80.0042 31.0205C80.1712 30.5705 80.2548 30.083 80.2548 29.558C80.2548 29.033 80.1712 28.5438 80.0042 28.0904C79.8371 27.6369 79.5798 27.2705 79.232 26.9909C78.8843 26.7114 78.4411 26.5716 77.9025 26.5716C77.3638 26.5716 76.9207 26.7114 76.5729 26.9909C76.2252 27.2705 75.9678 27.6369 75.8008 28.0904C75.6337 28.5438 75.5502 29.033 75.5502 29.558C75.5502 30.083 75.6337 30.5705 75.8008 31.0205C75.9678 31.4705 76.2252 31.8335 76.5729 32.1097C76.9207 32.3858 77.3638 32.5239 77.9025 32.5239ZM83.3038 33.4443V25.5898H84.4697V26.8171H84.5719C84.7356 26.3977 84.9998 26.0722 85.3646 25.8404C85.7293 25.6051 86.1674 25.4875 86.6788 25.4875C87.1969 25.4875 87.6282 25.6051 87.9725 25.8404C88.3202 26.0722 88.5913 26.3977 88.7856 26.8171H88.8674C89.0685 26.4114 89.3702 26.0892 89.7725 25.8506C90.1748 25.6085 90.6572 25.4875 91.2197 25.4875C91.9219 25.4875 92.4964 25.7074 92.943 26.1472C93.3896 26.5835 93.6129 27.2637 93.6129 28.1875V33.4443H92.406V28.1875C92.406 27.608 92.2475 27.1938 91.9305 26.9449C91.6134 26.696 91.2401 26.5716 90.8106 26.5716C90.2583 26.5716 89.8305 26.7387 89.5271 27.0727C89.2237 27.4034 89.0719 27.8227 89.0719 28.3307V33.4443H87.8447V28.0648C87.8447 27.6182 87.6998 27.2585 87.41 26.9858C87.1202 26.7097 86.7469 26.5716 86.2901 26.5716C85.9765 26.5716 85.6833 26.6551 85.4106 26.8222C85.1413 26.9892 84.9231 27.221 84.756 27.5176C84.5924 27.8108 84.5106 28.15 84.5106 28.5352V33.4443H83.3038ZM95.8194 33.4443V25.5898H97.0262V33.4443H95.8194ZM96.433 24.2807C96.1978 24.2807 95.995 24.2006 95.8245 24.0404C95.6575 23.8801 95.5739 23.6875 95.5739 23.4625C95.5739 23.2375 95.6575 23.0449 95.8245 22.8847C95.995 22.7244 96.1978 22.6443 96.433 22.6443C96.6683 22.6443 96.8694 22.7244 97.0364 22.8847C97.2069 23.0449 97.2921 23.2375 97.2921 23.4625C97.2921 23.6875 97.2069 23.8801 97.0364 24.0404C96.8694 24.2006 96.6683 24.2807 96.433 24.2807ZM102.427 33.608C101.691 33.608 101.057 33.4341 100.525 33.0864C99.9934 32.7387 99.5843 32.2597 99.2979 31.6494C99.0116 31.0392 98.8684 30.3421 98.8684 29.558C98.8684 28.7602 99.015 28.0563 99.3082 27.446C99.6048 26.8324 100.017 26.3534 100.546 26.0091C101.077 25.6614 101.698 25.4875 102.407 25.4875C102.959 25.4875 103.457 25.5898 103.9 25.7943C104.343 25.9989 104.706 26.2852 104.989 26.6534C105.272 27.0216 105.448 27.4512 105.516 27.9421H104.309C104.217 27.5841 104.013 27.2671 103.696 26.9909C103.382 26.7114 102.959 26.5716 102.427 26.5716C101.957 26.5716 101.545 26.6943 101.19 26.9398C100.839 27.1818 100.564 27.5244 100.367 27.9676C100.172 28.4074 100.075 28.9239 100.075 29.5171C100.075 30.1239 100.171 30.6523 100.362 31.1023C100.556 31.5523 100.829 31.9017 101.18 32.1506C101.534 32.3994 101.95 32.5239 102.427 32.5239C102.741 32.5239 103.026 32.4693 103.281 32.3602C103.537 32.2512 103.754 32.0943 103.931 31.8898C104.108 31.6852 104.234 31.4398 104.309 31.1534H105.516C105.448 31.6171 105.279 32.0347 105.01 32.4063C104.744 32.7744 104.391 33.0676 103.951 33.2858C103.515 33.5006 103.007 33.608 102.427 33.608ZM110.921 24.0966V22.9716H118.776V24.0966H115.483V33.4443H114.214V24.0966H110.921ZM120.569 33.4443V25.5898H121.776V33.4443H120.569ZM121.183 24.2807C120.948 24.2807 120.745 24.2006 120.575 24.0404C120.407 23.8801 120.324 23.6875 120.324 23.4625C120.324 23.2375 120.407 23.0449 120.575 22.8847C120.745 22.7244 120.948 22.6443 121.183 22.6443C121.418 22.6443 121.619 22.7244 121.786 22.8847C121.957 23.0449 122.042 23.2375 122.042 23.4625C122.042 23.6875 121.957 23.8801 121.786 24.0404C121.619 24.2006 121.418 24.2807 121.183 24.2807ZM123.987 33.4443V25.5898H125.152V26.8171H125.255C125.418 26.3977 125.683 26.0722 126.047 25.8404C126.412 25.6051 126.85 25.4875 127.362 25.4875C127.88 25.4875 128.311 25.6051 128.655 25.8404C129.003 26.0722 129.274 26.3977 129.468 26.8171H129.55C129.751 26.4114 130.053 26.0892 130.455 25.8506C130.858 25.6085 131.34 25.4875 131.902 25.4875C132.605 25.4875 133.179 25.7074 133.626 26.1472C134.072 26.5835 134.296 27.2637 134.296 28.1875V33.4443H133.089V28.1875C133.089 27.608 132.93 27.1938 132.613 26.9449C132.296 26.696 131.923 26.5716 131.493 26.5716C130.941 26.5716 130.513 26.7387 130.21 27.0727C129.906 27.4034 129.755 27.8227 129.755 28.3307V33.4443H128.527V28.0648C128.527 27.6182 128.383 27.2585 128.093 26.9858C127.803 26.7097 127.43 26.5716 126.973 26.5716C126.659 26.5716 126.366 26.6551 126.093 26.8222C125.824 26.9892 125.606 27.221 125.439 27.5176C125.275 27.8108 125.193 28.15 125.193 28.5352V33.4443H123.987ZM139.795 33.608C139.039 33.608 138.386 33.4409 137.837 33.1068C137.291 32.7693 136.87 32.2989 136.574 31.6955C136.281 31.0887 136.134 30.383 136.134 29.5784C136.134 28.7739 136.281 28.0648 136.574 27.4512C136.87 26.8341 137.283 26.3534 137.811 26.0091C138.343 25.6614 138.964 25.4875 139.673 25.4875C140.082 25.4875 140.486 25.5557 140.885 25.6921C141.283 25.8284 141.647 26.05 141.974 26.3568C142.301 26.6602 142.562 27.0625 142.756 27.5637C142.95 28.0648 143.048 28.6818 143.048 29.4148V29.9262H136.993V28.883H141.82C141.82 28.4398 141.732 28.0443 141.554 27.6966C141.381 27.3489 141.132 27.0744 140.808 26.8733C140.487 26.6722 140.109 26.5716 139.673 26.5716C139.192 26.5716 138.776 26.6909 138.425 26.9296C138.077 27.1648 137.81 27.4716 137.622 27.85C137.435 28.2284 137.341 28.6341 137.341 29.0671V29.7625C137.341 30.3557 137.443 30.8585 137.648 31.271C137.856 31.6801 138.144 31.9921 138.512 32.2068C138.88 32.4182 139.308 32.5239 139.795 32.5239C140.112 32.5239 140.399 32.4796 140.654 32.3909C140.914 32.2989 141.137 32.1625 141.324 31.9818C141.512 31.7977 141.657 31.5693 141.759 31.2966L142.925 31.6239C142.802 32.0193 142.596 32.3671 142.306 32.6671C142.016 32.9637 141.658 33.1955 141.232 33.3625C140.806 33.5262 140.327 33.608 139.795 33.608ZM150.447 27.3489L149.363 27.6557C149.295 27.475 149.194 27.2994 149.061 27.129C148.932 26.9551 148.754 26.8119 148.529 26.6994C148.304 26.5869 148.016 26.5307 147.665 26.5307C147.185 26.5307 146.784 26.6415 146.464 26.8631C146.147 27.0813 145.988 27.3591 145.988 27.6966C145.988 27.9966 146.097 28.2335 146.315 28.4074C146.533 28.5813 146.874 28.7262 147.338 28.8421L148.504 29.1284C149.206 29.2989 149.729 29.5597 150.074 29.9108C150.418 30.2585 150.59 30.7068 150.59 31.2557C150.59 31.7057 150.461 32.108 150.202 32.4625C149.946 32.8171 149.588 33.0966 149.128 33.3012C148.668 33.5057 148.132 33.608 147.522 33.608C146.721 33.608 146.058 33.4341 145.533 33.0864C145.008 32.7387 144.675 32.2307 144.536 31.5625L145.681 31.2762C145.79 31.6989 145.997 32.0159 146.3 32.2273C146.607 32.4387 147.007 32.5443 147.502 32.5443C148.064 32.5443 148.511 32.425 148.841 32.1864C149.175 31.9443 149.343 31.6546 149.343 31.3171C149.343 31.0443 149.247 30.8159 149.056 30.6318C148.865 30.4443 148.572 30.3046 148.177 30.2125L146.868 29.9057C146.148 29.7352 145.62 29.471 145.282 29.1131C144.948 28.7517 144.781 28.3 144.781 27.758C144.781 27.3148 144.906 26.9227 145.154 26.5818C145.407 26.2409 145.749 25.9733 146.182 25.779C146.619 25.5847 147.113 25.4875 147.665 25.4875C148.443 25.4875 149.053 25.658 149.496 25.9989C149.943 26.3398 150.26 26.7898 150.447 27.3489ZM156.621 33.4443V22.9716H162.941V24.0966H157.889V27.6352H162.614V28.7602H157.889V32.3193H163.023V33.4443H156.621ZM168.029 33.608C167.374 33.608 166.797 33.4426 166.296 33.1119C165.794 32.7779 165.402 32.3074 165.119 31.7006C164.836 31.0904 164.695 30.3693 164.695 29.5375C164.695 28.7125 164.836 27.9966 165.119 27.3898C165.402 26.783 165.796 26.3142 166.301 25.9835C166.805 25.6529 167.388 25.4875 168.049 25.4875C168.561 25.4875 168.965 25.5727 169.261 25.7432C169.561 25.9102 169.79 26.1012 169.947 26.3159C170.107 26.5273 170.231 26.7012 170.32 26.8375H170.422V22.9716H171.629V33.4443H170.463V32.2375H170.32C170.231 32.3807 170.105 32.5614 169.942 32.7796C169.778 32.9943 169.544 33.1869 169.241 33.3574C168.938 33.5244 168.534 33.608 168.029 33.608ZM168.193 32.5239C168.677 32.5239 169.086 32.3977 169.42 32.1455C169.754 31.8898 170.008 31.5369 170.182 31.0869C170.356 30.6335 170.443 30.1102 170.443 29.5171C170.443 28.9307 170.357 28.4176 170.187 27.9779C170.017 27.5347 169.764 27.1904 169.43 26.9449C169.096 26.696 168.684 26.5716 168.193 26.5716C167.681 26.5716 167.255 26.7029 166.914 26.9654C166.577 27.2244 166.323 27.5773 166.152 28.0239C165.985 28.4671 165.902 28.9648 165.902 29.5171C165.902 30.0762 165.987 30.5841 166.157 31.0409C166.331 31.4943 166.587 31.8557 166.924 32.125C167.265 32.3909 167.688 32.5239 168.193 32.5239ZM177.177 36.5534C176.594 36.5534 176.093 36.4784 175.674 36.3284C175.255 36.1818 174.905 35.9875 174.626 35.7455C174.35 35.5068 174.13 35.2512 173.966 34.9784L174.927 34.3034C175.036 34.4466 175.175 34.6102 175.342 34.7943C175.509 34.9818 175.737 35.1438 176.027 35.2801C176.32 35.4199 176.703 35.4898 177.177 35.4898C177.811 35.4898 178.335 35.3364 178.747 35.0296C179.16 34.7227 179.366 34.2421 179.366 33.5875V31.9921H179.264C179.175 32.1352 179.049 32.3125 178.885 32.5239C178.725 32.7318 178.493 32.9176 178.19 33.0813C177.89 33.2415 177.484 33.3216 176.973 33.3216C176.339 33.3216 175.769 33.1716 175.265 32.8716C174.764 32.5716 174.367 32.1352 174.073 31.5625C173.784 30.9898 173.639 30.2943 173.639 29.4762C173.639 28.6716 173.78 27.971 174.063 27.3744C174.346 26.7744 174.74 26.3108 175.244 25.9835C175.749 25.6529 176.332 25.4875 176.993 25.4875C177.505 25.4875 177.91 25.5727 178.21 25.7432C178.514 25.9102 178.746 26.1012 178.906 26.3159C179.069 26.5273 179.196 26.7012 179.284 26.8375H179.407V25.5898H180.573V33.6693C180.573 34.3443 180.419 34.8932 180.113 35.3159C179.809 35.7421 179.4 36.054 178.885 36.2517C178.374 36.4529 177.805 36.5534 177.177 36.5534ZM177.136 32.2375C177.621 32.2375 178.03 32.1267 178.364 31.9051C178.698 31.6835 178.952 31.3648 179.126 30.9489C179.3 30.533 179.386 30.0352 179.386 29.4557C179.386 28.8898 179.301 28.3904 179.131 27.9574C178.96 27.5244 178.708 27.1852 178.374 26.9398C178.04 26.6943 177.627 26.5716 177.136 26.5716C176.625 26.5716 176.199 26.7012 175.858 26.9602C175.521 27.2193 175.267 27.5671 175.096 28.0034C174.929 28.4398 174.846 28.9239 174.846 29.4557C174.846 30.0012 174.931 30.4835 175.101 30.9029C175.275 31.3188 175.531 31.646 175.868 31.8847C176.209 32.1199 176.632 32.2375 177.136 32.2375ZM186.075 33.608C185.318 33.608 184.665 33.4409 184.117 33.1068C183.571 32.7693 183.15 32.2989 182.853 31.6955C182.56 31.0887 182.414 30.383 182.414 29.5784C182.414 28.7739 182.56 28.0648 182.853 27.4512C183.15 26.8341 183.563 26.3534 184.091 26.0091C184.623 25.6614 185.243 25.4875 185.952 25.4875C186.361 25.4875 186.765 25.5557 187.164 25.6921C187.563 25.8284 187.926 26.05 188.253 26.3568C188.581 26.6602 188.842 27.0625 189.036 27.5637C189.23 28.0648 189.327 28.6818 189.327 29.4148V29.9262H183.273V28.883H188.1C188.1 28.4398 188.011 28.0443 187.834 27.6966C187.66 27.3489 187.411 27.0744 187.088 26.8733C186.767 26.6722 186.389 26.5716 185.952 26.5716C185.472 26.5716 185.056 26.6909 184.705 26.9296C184.357 27.1648 184.089 27.4716 183.902 27.85C183.714 28.2284 183.621 28.6341 183.621 29.0671V29.7625C183.621 30.3557 183.723 30.8585 183.927 31.271C184.135 31.6801 184.423 31.9921 184.792 32.2068C185.16 32.4182 185.588 32.5239 186.075 32.5239C186.392 32.5239 186.678 32.4796 186.934 32.3909C187.193 32.2989 187.417 32.1625 187.604 31.9818C187.792 31.7977 187.936 31.5693 188.039 31.2966L189.205 31.6239C189.082 32.0193 188.876 32.3671 188.586 32.6671C188.296 32.9637 187.938 33.1955 187.512 33.3625C187.086 33.5262 186.607 33.608 186.075 33.608ZM49.6822 55.4443V44.9716H56.0027V46.0966H50.9504V49.6352H55.6754V50.7602H50.9504V54.3193H56.0845V55.4443H49.6822ZM58.1249 55.4443V47.5898H59.2908V48.8171H59.393C59.5567 48.3977 59.8209 48.0722 60.1857 47.8404C60.5504 47.6051 60.9885 47.4875 61.4999 47.4875C62.018 47.4875 62.4493 47.6051 62.7936 47.8404C63.1413 48.0722 63.4124 48.3977 63.6067 48.8171H63.6885C63.8896 48.4114 64.1913 48.0892 64.5936 47.8506C64.9959 47.6085 65.4783 47.4875 66.0408 47.4875C66.743 47.4875 67.3175 47.7074 67.7641 48.1472C68.2107 48.5835 68.434 49.2637 68.434 50.1875V55.4443H67.2271V50.1875C67.2271 49.608 67.0686 49.1938 66.7516 48.9449C66.4345 48.696 66.0612 48.5716 65.6317 48.5716C65.0794 48.5716 64.6516 48.7387 64.3482 49.0727C64.0447 49.4034 63.893 49.8227 63.893 50.3307V55.4443H62.6658V50.0648C62.6658 49.6182 62.5209 49.2585 62.2311 48.9858C61.9413 48.7097 61.568 48.5716 61.1112 48.5716C60.7976 48.5716 60.5044 48.6551 60.2317 48.8222C59.9624 48.9892 59.7442 49.221 59.5771 49.5176C59.4135 49.8108 59.3317 50.15 59.3317 50.5352V55.4443H58.1249ZM73.9337 55.608C73.1768 55.608 72.524 55.4409 71.9751 55.1068C71.4297 54.7693 71.0087 54.2989 70.7121 53.6955C70.4189 53.0887 70.2723 52.383 70.2723 51.5784C70.2723 50.7739 70.4189 50.0648 70.7121 49.4512C71.0087 48.8341 71.4212 48.3534 71.9496 48.0091C72.4814 47.6614 73.1018 47.4875 73.8109 47.4875C74.22 47.4875 74.624 47.5557 75.0229 47.6921C75.4217 47.8284 75.7848 48.05 76.1121 48.3568C76.4393 48.6602 76.7001 49.0625 76.8945 49.5637C77.0888 50.0648 77.1859 50.6818 77.1859 51.4148V51.9262H71.1314V50.883H75.9587C75.9587 50.4398 75.87 50.0443 75.6928 49.6966C75.5189 49.3489 75.27 49.0744 74.9462 48.8733C74.6257 48.6722 74.2473 48.5716 73.8109 48.5716C73.3303 48.5716 72.9143 48.6909 72.5632 48.9296C72.2155 49.1648 71.9479 49.4716 71.7604 49.85C71.5729 50.2284 71.4791 50.6341 71.4791 51.0671V51.7625C71.4791 52.3557 71.5814 52.8585 71.7859 53.271C71.9939 53.6801 72.282 53.9921 72.6501 54.2068C73.0183 54.4182 73.4462 54.5239 73.9337 54.5239C74.2507 54.5239 74.5371 54.4796 74.7928 54.3909C75.0518 54.2989 75.2751 54.1625 75.4626 53.9818C75.6501 53.7977 75.795 53.5693 75.8973 53.2966L77.0632 53.6239C76.9405 54.0193 76.7342 54.3671 76.4445 54.6671C76.1547 54.9637 75.7967 55.1955 75.3706 55.3625C74.9445 55.5262 74.4655 55.608 73.9337 55.608ZM79.0217 55.4443V47.5898H80.1876V48.7762H80.2695C80.4126 48.3875 80.6717 48.0722 81.0467 47.8301C81.4217 47.5881 81.8445 47.4671 82.3149 47.4671C82.4036 47.4671 82.5143 47.4688 82.6473 47.4722C82.7803 47.4756 82.8808 47.4807 82.949 47.4875V48.7148C82.9081 48.7046 82.8143 48.6892 82.6678 48.6688C82.5246 48.6449 82.3729 48.633 82.2126 48.633C81.8308 48.633 81.4899 48.7131 81.1899 48.8733C80.8933 49.0301 80.6581 49.2483 80.4842 49.5279C80.3138 49.804 80.2286 50.1193 80.2286 50.4739V55.4443H79.0217ZM87.3109 58.5534C86.728 58.5534 86.2268 58.4784 85.8075 58.3284C85.3882 58.1818 85.0388 57.9875 84.7592 57.7455C84.4831 57.5068 84.2632 57.2512 84.0996 56.9784L85.0609 56.3034C85.17 56.4466 85.3081 56.6102 85.4751 56.7943C85.6422 56.9818 85.8706 57.1438 86.1604 57.2801C86.4536 57.4199 86.8371 57.4898 87.3109 57.4898C87.945 57.4898 88.4683 57.3364 88.8808 57.0296C89.2933 56.7227 89.4996 56.2421 89.4996 55.5875V53.9921H89.3973C89.3087 54.1352 89.1825 54.3125 89.0189 54.5239C88.8587 54.7318 88.6268 54.9176 88.3234 55.0813C88.0234 55.2415 87.6178 55.3216 87.1064 55.3216C86.4723 55.3216 85.903 55.1716 85.3984 54.8716C84.8973 54.5716 84.5001 54.1352 84.207 53.5625C83.9172 52.9898 83.7723 52.2943 83.7723 51.4762C83.7723 50.6716 83.9138 49.971 84.1967 49.3744C84.4797 48.7744 84.8734 48.3108 85.378 47.9835C85.8825 47.6529 86.4655 47.4875 87.1268 47.4875C87.6382 47.4875 88.0439 47.5727 88.3439 47.7432C88.6473 47.9102 88.8791 48.1012 89.0393 48.3159C89.203 48.5273 89.3291 48.7012 89.4178 48.8375H89.5405V47.5898H90.7064V55.6693C90.7064 56.3443 90.553 56.8932 90.2462 57.3159C89.9428 57.7421 89.5337 58.054 89.0189 58.2517C88.5075 58.4529 87.9382 58.5534 87.3109 58.5534ZM87.27 54.2375C87.7541 54.2375 88.1632 54.1267 88.4973 53.9051C88.8314 53.6835 89.0854 53.3648 89.2592 52.9489C89.4331 52.533 89.52 52.0352 89.52 51.4557C89.52 50.8898 89.4348 50.3904 89.2643 49.9574C89.0939 49.5244 88.8416 49.1852 88.5075 48.9398C88.1734 48.6943 87.7609 48.5716 87.27 48.5716C86.7587 48.5716 86.3325 48.7012 85.9916 48.9602C85.6541 49.2193 85.4001 49.5671 85.2297 50.0034C85.0626 50.4398 84.9791 50.9239 84.9791 51.4557C84.9791 52.0012 85.0643 52.4835 85.2348 52.9029C85.4087 53.3188 85.6643 53.646 86.0018 53.8847C86.3428 54.1199 86.7655 54.2375 87.27 54.2375ZM92.9155 55.4443V47.5898H94.1223V55.4443H92.9155ZM93.5291 46.2807C93.2939 46.2807 93.091 46.2006 92.9206 46.0404C92.7535 45.8801 92.67 45.6875 92.67 45.4625C92.67 45.2375 92.7535 45.0449 92.9206 44.8847C93.091 44.7244 93.2939 44.6443 93.5291 44.6443C93.7643 44.6443 93.9655 44.7244 94.1325 44.8847C94.303 45.0449 94.3882 45.2375 94.3882 45.4625C94.3882 45.6875 94.303 45.8801 94.1325 46.0404C93.9655 46.2006 93.7643 46.2807 93.5291 46.2807ZM97.5395 50.7193V55.4443H96.3327V47.5898H97.4986V48.8171H97.6009C97.7849 48.4182 98.0645 48.0977 98.4395 47.8557C98.8145 47.6102 99.2986 47.4875 99.8918 47.4875C100.424 47.4875 100.889 47.5966 101.288 47.8148C101.687 48.0296 101.997 48.3568 102.218 48.7966C102.44 49.233 102.551 49.7852 102.551 50.4534V55.4443H101.344V50.5352C101.344 49.9182 101.184 49.4375 100.863 49.0932C100.543 48.7455 100.103 48.5716 99.544 48.5716C99.1588 48.5716 98.8145 48.6551 98.5111 48.8222C98.2111 48.9892 97.9741 49.233 97.8003 49.5534C97.6264 49.8739 97.5395 50.2625 97.5395 50.7193ZM107.927 58.5534C107.344 58.5534 106.842 58.4784 106.423 58.3284C106.004 58.1818 105.654 57.9875 105.375 57.7455C105.099 57.5068 104.879 57.2512 104.715 56.9784L105.677 56.3034C105.786 56.4466 105.924 56.6102 106.091 56.7943C106.258 56.9818 106.486 57.1438 106.776 57.2801C107.069 57.4199 107.453 57.4898 107.927 57.4898C108.561 57.4898 109.084 57.3364 109.496 57.0296C109.909 56.7227 110.115 56.2421 110.115 55.5875V53.9921H110.013C109.924 54.1352 109.798 54.3125 109.635 54.5239C109.474 54.7318 109.242 54.9176 108.939 55.0813C108.639 55.2415 108.233 55.3216 107.722 55.3216C107.088 55.3216 106.519 55.1716 106.014 54.8716C105.513 54.5716 105.116 54.1352 104.823 53.5625C104.533 52.9898 104.388 52.2943 104.388 51.4762C104.388 50.6716 104.529 49.971 104.812 49.3744C105.095 48.7744 105.489 48.3108 105.994 47.9835C106.498 47.6529 107.081 47.4875 107.742 47.4875C108.254 47.4875 108.66 47.5727 108.96 47.7432C109.263 47.9102 109.495 48.1012 109.655 48.3159C109.819 48.5273 109.945 48.7012 110.033 48.8375H110.156V47.5898H111.322V55.6693C111.322 56.3443 111.169 56.8932 110.862 57.3159C110.558 57.7421 110.149 58.054 109.635 58.2517C109.123 58.4529 108.554 58.5534 107.927 58.5534ZM107.886 54.2375C108.37 54.2375 108.779 54.1267 109.113 53.9051C109.447 53.6835 109.701 53.3648 109.875 52.9489C110.049 52.533 110.136 52.0352 110.136 51.4557C110.136 50.8898 110.05 50.3904 109.88 49.9574C109.71 49.5244 109.457 49.1852 109.123 48.9398C108.789 48.6943 108.377 48.5716 107.886 48.5716C107.374 48.5716 106.948 48.7012 106.607 48.9602C106.27 49.2193 106.016 49.5671 105.845 50.0034C105.678 50.4398 105.595 50.9239 105.595 51.4557C105.595 52.0012 105.68 52.4835 105.85 52.9029C106.024 53.3188 106.28 53.646 106.617 53.8847C106.958 54.1199 107.381 54.2375 107.886 54.2375ZM117.745 55.4443V44.9716H119.013V54.3193H123.881V55.4443H117.745ZM128.974 55.608C128.217 55.608 127.565 55.4409 127.016 55.1068C126.47 54.7693 126.049 54.2989 125.753 53.6955C125.46 53.0887 125.313 52.383 125.313 51.5784C125.313 50.7739 125.46 50.0648 125.753 49.4512C126.049 48.8341 126.462 48.3534 126.99 48.0091C127.522 47.6614 128.142 47.4875 128.852 47.4875C129.261 47.4875 129.665 47.5557 130.063 47.6921C130.462 47.8284 130.825 48.05 131.153 48.3568C131.48 48.6602 131.741 49.0625 131.935 49.5637C132.129 50.0648 132.227 50.6818 132.227 51.4148V51.9262H126.172V50.883H130.999C130.999 50.4398 130.911 50.0443 130.733 49.6966C130.56 49.3489 130.311 49.0744 129.987 48.8733C129.666 48.6722 129.288 48.5716 128.852 48.5716C128.371 48.5716 127.955 48.6909 127.604 48.9296C127.256 49.1648 126.988 49.4716 126.801 49.85C126.613 50.2284 126.52 50.6341 126.52 51.0671V51.7625C126.52 52.3557 126.622 52.8585 126.827 53.271C127.035 53.6801 127.323 53.9921 127.691 54.2068C128.059 54.4182 128.487 54.5239 128.974 54.5239C129.291 54.5239 129.578 54.4796 129.833 54.3909C130.092 54.2989 130.316 54.1625 130.503 53.9818C130.691 53.7977 130.836 53.5693 130.938 53.2966L132.104 53.6239C131.981 54.0193 131.775 54.3671 131.485 54.6671C131.195 54.9637 130.837 55.1955 130.411 55.3625C129.985 55.5262 129.506 55.608 128.974 55.608ZM136.374 55.6284C135.876 55.6284 135.424 55.5347 135.019 55.3472C134.613 55.1563 134.291 54.8818 134.052 54.5239C133.813 54.1625 133.694 53.7262 133.694 53.2148C133.694 52.7648 133.783 52.4 133.96 52.1205C134.137 51.8375 134.374 51.6159 134.671 51.4557C134.967 51.2955 135.295 51.1762 135.653 51.0977C136.014 51.0159 136.377 50.9512 136.742 50.9034C137.219 50.8421 137.606 50.796 137.903 50.7654C138.203 50.7313 138.421 50.675 138.557 50.5966C138.697 50.5182 138.767 50.3818 138.767 50.1875V50.1466C138.767 49.6421 138.629 49.25 138.353 48.9705C138.08 48.6909 137.666 48.5512 137.11 48.5512C136.534 48.5512 136.082 48.6773 135.755 48.9296C135.428 49.1818 135.198 49.4512 135.065 49.7375L133.919 49.3284C134.124 48.8512 134.396 48.4796 134.737 48.2137C135.082 47.9443 135.457 47.7568 135.862 47.6512C136.271 47.5421 136.674 47.4875 137.069 47.4875C137.321 47.4875 137.611 47.5182 137.938 47.5796C138.269 47.6375 138.588 47.7585 138.895 47.9426C139.205 48.1267 139.462 48.4046 139.667 48.7762C139.871 49.1477 139.974 49.6455 139.974 50.2693V55.4443H138.767V54.3807H138.706C138.624 54.5512 138.487 54.7335 138.296 54.9279C138.106 55.1222 137.852 55.2875 137.535 55.4239C137.217 55.5602 136.831 55.6284 136.374 55.6284ZM136.558 54.5443C137.035 54.5443 137.437 54.4506 137.765 54.2631C138.095 54.0756 138.344 53.8335 138.511 53.5369C138.682 53.2404 138.767 52.9284 138.767 52.6012V51.4966C138.716 51.558 138.603 51.6142 138.429 51.6654C138.259 51.7131 138.061 51.7557 137.836 51.7932C137.615 51.8273 137.398 51.858 137.187 51.8852C136.979 51.9091 136.81 51.9296 136.681 51.9466C136.367 51.9875 136.074 52.054 135.801 52.146C135.532 52.2347 135.313 52.3693 135.146 52.55C134.983 52.7273 134.901 52.9693 134.901 53.2762C134.901 53.6955 135.056 54.0125 135.366 54.2273C135.68 54.4387 136.077 54.5443 136.558 54.5443ZM145.142 55.608C144.488 55.608 143.91 55.4426 143.409 55.1119C142.908 54.7779 142.516 54.3074 142.233 53.7006C141.95 53.0904 141.808 52.3693 141.808 51.5375C141.808 50.7125 141.95 49.9966 142.233 49.3898C142.516 48.783 142.909 48.3142 143.414 47.9835C143.918 47.6529 144.501 47.4875 145.163 47.4875C145.674 47.4875 146.078 47.5727 146.375 47.7432C146.675 47.9102 146.903 48.1012 147.06 48.3159C147.22 48.5273 147.345 48.7012 147.433 48.8375H147.536V44.9716H148.742V55.4443H147.576V54.2375H147.433C147.345 54.3807 147.218 54.5614 147.055 54.7796C146.891 54.9943 146.658 55.1869 146.354 55.3574C146.051 55.5244 145.647 55.608 145.142 55.608ZM145.306 54.5239C145.79 54.5239 146.199 54.3977 146.533 54.1455C146.867 53.8898 147.121 53.5369 147.295 53.0869C147.469 52.6335 147.556 52.1102 147.556 51.5171C147.556 50.9307 147.471 50.4176 147.3 49.9779C147.13 49.5347 146.878 49.1904 146.543 48.9449C146.209 48.696 145.797 48.5716 145.306 48.5716C144.795 48.5716 144.368 48.7029 144.028 48.9654C143.69 49.2244 143.436 49.5773 143.266 50.0239C143.099 50.4671 143.015 50.9648 143.015 51.5171C143.015 52.0762 143.1 52.5841 143.271 53.0409C143.445 53.4943 143.7 53.8557 144.038 54.125C144.379 54.3909 144.801 54.5239 145.306 54.5239ZM154.413 55.608C153.657 55.608 153.004 55.4409 152.455 55.1068C151.909 54.7693 151.488 54.2989 151.192 53.6955C150.899 53.0887 150.752 52.383 150.752 51.5784C150.752 50.7739 150.899 50.0648 151.192 49.4512C151.488 48.8341 151.901 48.3534 152.429 48.0091C152.961 47.6614 153.582 47.4875 154.291 47.4875C154.7 47.4875 155.104 47.5557 155.503 47.6921C155.901 47.8284 156.264 48.05 156.592 48.3568C156.919 48.6602 157.18 49.0625 157.374 49.5637C157.568 50.0648 157.666 50.6818 157.666 51.4148V51.9262H151.611V50.883H156.438C156.438 50.4398 156.35 50.0443 156.172 49.6966C155.999 49.3489 155.75 49.0744 155.426 48.8733C155.105 48.6722 154.727 48.5716 154.291 48.5716C153.81 48.5716 153.394 48.6909 153.043 48.9296C152.695 49.1648 152.428 49.4716 152.24 49.85C152.053 50.2284 151.959 50.6341 151.959 51.0671V51.7625C151.959 52.3557 152.061 52.8585 152.266 53.271C152.474 53.6801 152.762 53.9921 153.13 54.2068C153.498 54.4182 153.926 54.5239 154.413 54.5239C154.73 54.5239 155.017 54.4796 155.272 54.3909C155.532 54.2989 155.755 54.1625 155.942 53.9818C156.13 53.7977 156.275 53.5693 156.377 53.2966L157.543 53.6239C157.42 54.0193 157.214 54.3671 156.924 54.6671C156.634 54.9637 156.276 55.1955 155.85 55.3625C155.424 55.5262 154.945 55.608 154.413 55.608ZM159.501 55.4443V47.5898H160.667V48.7762H160.749C160.892 48.3875 161.151 48.0722 161.526 47.8301C161.901 47.5881 162.324 47.4671 162.795 47.4671C162.883 47.4671 162.994 47.4688 163.127 47.4722C163.26 47.4756 163.361 47.4807 163.429 47.4875V48.7148C163.388 48.7046 163.294 48.6892 163.147 48.6688C163.004 48.6449 162.853 48.633 162.692 48.633C162.311 48.633 161.97 48.7131 161.67 48.8733C161.373 49.0301 161.138 49.2483 160.964 49.5279C160.793 49.804 160.708 50.1193 160.708 50.4739V55.4443H159.501ZM172.1 55.608C171.391 55.608 170.769 55.4392 170.234 55.1017C169.702 54.7642 169.286 54.2921 168.986 53.6852C168.689 53.0784 168.541 52.3693 168.541 51.558C168.541 50.7398 168.689 50.0256 168.986 49.4154C169.286 48.8051 169.702 48.3313 170.234 47.9938C170.769 47.6563 171.391 47.4875 172.1 47.4875C172.809 47.4875 173.43 47.6563 173.962 47.9938C174.497 48.3313 174.913 48.8051 175.209 49.4154C175.509 50.0256 175.659 50.7398 175.659 51.558C175.659 52.3693 175.509 53.0784 175.209 53.6852C174.913 54.2921 174.497 54.7642 173.962 55.1017C173.43 55.4392 172.809 55.608 172.1 55.608ZM172.1 54.5239C172.639 54.5239 173.082 54.3858 173.43 54.1097C173.777 53.8335 174.035 53.4705 174.202 53.0205C174.369 52.5705 174.452 52.083 174.452 51.558C174.452 51.033 174.369 50.5438 174.202 50.0904C174.035 49.6369 173.777 49.2705 173.43 48.9909C173.082 48.7114 172.639 48.5716 172.1 48.5716C171.562 48.5716 171.118 48.7114 170.771 48.9909C170.423 49.2705 170.165 49.6369 169.998 50.0904C169.831 50.5438 169.748 51.033 169.748 51.558C169.748 52.083 169.831 52.5705 169.998 53.0205C170.165 53.4705 170.423 53.8335 170.771 54.1097C171.118 54.3858 171.562 54.5239 172.1 54.5239ZM180.999 47.5898V48.6125H176.765V47.5898H180.999ZM178.033 55.4443V46.5057C178.033 46.0557 178.139 45.6807 178.35 45.3807C178.562 45.0807 178.836 44.8557 179.174 44.7057C179.511 44.5557 179.867 44.4807 180.242 44.4807C180.539 44.4807 180.781 44.5046 180.968 44.5523C181.156 44.6 181.296 44.6443 181.388 44.6852L181.04 45.7284C180.979 45.708 180.893 45.6824 180.784 45.6517C180.679 45.621 180.539 45.6057 180.365 45.6057C179.966 45.6057 179.678 45.7063 179.501 45.9074C179.327 46.1085 179.24 46.4034 179.24 46.7921V55.4443H178.033ZM47.1299 71.3489L46.0458 71.6557C45.9776 71.475 45.8771 71.2994 45.7441 71.129C45.6146 70.9551 45.4373 70.8119 45.2123 70.6994C44.9873 70.5869 44.6992 70.5307 44.3481 70.5307C43.8674 70.5307 43.4668 70.6415 43.1464 70.8631C42.8293 71.0813 42.6708 71.3591 42.6708 71.6966C42.6708 71.9966 42.7799 72.2335 42.9981 72.4074C43.2163 72.5813 43.5572 72.7262 44.0208 72.8421L45.1867 73.1284C45.889 73.2989 46.4123 73.5597 46.7566 73.9108C47.1009 74.2585 47.2731 74.7068 47.2731 75.2557C47.2731 75.7057 47.1435 76.108 46.8845 76.4625C46.6288 76.8171 46.2708 77.0966 45.8106 77.3012C45.3504 77.5057 44.8151 77.608 44.2049 77.608C43.4038 77.608 42.7407 77.4341 42.2157 77.0864C41.6907 76.7387 41.3583 76.2307 41.2185 75.5625L42.364 75.2762C42.4731 75.6989 42.6793 76.0159 42.9827 76.2273C43.2896 76.4387 43.6901 76.5443 44.1845 76.5443C44.747 76.5443 45.1935 76.425 45.5242 76.1864C45.8583 75.9443 46.0254 75.6546 46.0254 75.3171C46.0254 75.0443 45.9299 74.8159 45.739 74.6318C45.5481 74.4443 45.2549 74.3046 44.8595 74.2125L43.5504 73.9057C42.831 73.7352 42.3026 73.471 41.9651 73.1131C41.631 72.7517 41.464 72.3 41.464 71.758C41.464 71.3148 41.5884 70.9227 41.8373 70.5818C42.0896 70.2409 42.4322 69.9733 42.8651 69.779C43.3015 69.5847 43.7958 69.4875 44.3481 69.4875C45.1254 69.4875 45.7356 69.658 46.1788 69.9989C46.6254 70.3398 46.9424 70.7898 47.1299 71.3489ZM52.2806 77.608C51.5715 77.608 50.9494 77.4392 50.4141 77.1017C49.8823 76.7642 49.4664 76.2921 49.1664 75.6852C48.8698 75.0784 48.7215 74.3693 48.7215 73.558C48.7215 72.7398 48.8698 72.0256 49.1664 71.4154C49.4664 70.8051 49.8823 70.3313 50.4141 69.9938C50.9494 69.6563 51.5715 69.4875 52.2806 69.4875C52.9897 69.4875 53.6102 69.6563 54.142 69.9938C54.6772 70.3313 55.0931 70.8051 55.3897 71.4154C55.6897 72.0256 55.8397 72.7398 55.8397 73.558C55.8397 74.3693 55.6897 75.0784 55.3897 75.6852C55.0931 76.2921 54.6772 76.7642 54.142 77.1017C53.6102 77.4392 52.9897 77.608 52.2806 77.608ZM52.2806 76.5239C52.8193 76.5239 53.2624 76.3858 53.6102 76.1097C53.9579 75.8335 54.2153 75.4705 54.3823 75.0205C54.5494 74.5705 54.6329 74.083 54.6329 73.558C54.6329 73.033 54.5494 72.5438 54.3823 72.0904C54.2153 71.6369 53.9579 71.2705 53.6102 70.9909C53.2624 70.7114 52.8193 70.5716 52.2806 70.5716C51.742 70.5716 51.2988 70.7114 50.9511 70.9909C50.6033 71.2705 50.346 71.6369 50.1789 72.0904C50.0119 72.5438 49.9283 73.033 49.9283 73.558C49.9283 74.083 50.0119 74.5705 50.1789 75.0205C50.346 75.4705 50.6033 75.8335 50.9511 76.1097C51.2988 76.3858 51.742 76.5239 52.2806 76.5239ZM62.6319 74.233V69.5898H63.8387V77.4443H62.6319V76.1148H62.5501C62.366 76.5137 62.0796 76.8529 61.691 77.1324C61.3023 77.4085 60.8114 77.5466 60.2183 77.5466C59.7273 77.5466 59.291 77.4392 58.9092 77.2244C58.5273 77.0063 58.2273 76.679 58.0092 76.2426C57.791 75.8029 57.6819 75.2489 57.6819 74.5807V69.5898H58.8887V74.4989C58.8887 75.0716 59.0489 75.5284 59.3694 75.8693C59.6933 76.2102 60.1058 76.3807 60.6069 76.3807C60.9069 76.3807 61.212 76.304 61.5222 76.1506C61.8359 75.9972 62.0984 75.7619 62.3097 75.4449C62.5245 75.1279 62.6319 74.7239 62.6319 74.233ZM69.465 69.5898V70.6125H65.3945V69.5898H69.465ZM66.5809 67.708H67.7877V75.1943C67.7877 75.5352 67.8371 75.7909 67.936 75.9614C68.0383 76.1284 68.1678 76.2409 68.3246 76.2989C68.4849 76.3534 68.6536 76.3807 68.8309 76.3807C68.9639 76.3807 69.0729 76.3739 69.1582 76.3602C69.2434 76.3432 69.3116 76.3296 69.3627 76.3193L69.6082 77.4034C69.5264 77.4341 69.4121 77.4648 69.2656 77.4955C69.119 77.5296 68.9332 77.5466 68.7082 77.5466C68.3673 77.5466 68.0332 77.4733 67.7059 77.3267C67.382 77.1801 67.1127 76.9568 66.8979 76.6568C66.6866 76.3568 66.5809 75.9784 66.5809 75.5216V67.708ZM72.6559 72.7193V77.4443H71.4491V66.9716H72.6559V70.8171H72.7582C72.9423 70.4114 73.2184 70.0892 73.5866 69.8506C73.9582 69.6085 74.4525 69.4875 75.0695 69.4875C75.6048 69.4875 76.0735 69.5949 76.4758 69.8097C76.8781 70.021 77.19 70.3466 77.4116 70.7864C77.6366 71.2227 77.7491 71.7784 77.7491 72.4534V77.4443H76.5423V72.5352C76.5423 71.9114 76.3803 71.429 76.0565 71.0881C75.736 70.7438 75.2911 70.5716 74.7218 70.5716C74.3264 70.5716 73.9718 70.6551 73.6582 70.8222C73.3479 70.9892 73.1025 71.233 72.9218 71.5534C72.7445 71.8739 72.6559 72.2625 72.6559 72.7193ZM84.1705 77.4443V66.9716H85.3773V70.8375H85.4796C85.5683 70.7012 85.691 70.5273 85.8478 70.3159C86.008 70.1012 86.2364 69.9102 86.533 69.7432C86.833 69.5727 87.2387 69.4875 87.7501 69.4875C88.4114 69.4875 88.9944 69.6529 89.4989 69.9835C90.0035 70.3142 90.3972 70.783 90.6802 71.3898C90.9631 71.9966 91.1046 72.7125 91.1046 73.5375C91.1046 74.3693 90.9631 75.0904 90.6802 75.7006C90.3972 76.3074 90.0052 76.7779 89.5041 77.1119C89.0029 77.4426 88.4251 77.608 87.7705 77.608C87.266 77.608 86.862 77.5244 86.5586 77.3574C86.2552 77.1869 86.0217 76.9943 85.858 76.7796C85.6944 76.5614 85.5683 76.3807 85.4796 76.2375H85.3364V77.4443H84.1705ZM85.3569 73.5171C85.3569 74.1102 85.4438 74.6335 85.6177 75.0869C85.7916 75.5369 86.0455 75.8898 86.3796 76.1455C86.7137 76.3977 87.1228 76.5239 87.6069 76.5239C88.1114 76.5239 88.5325 76.3909 88.87 76.125C89.2109 75.8557 89.4666 75.4943 89.637 75.0409C89.8109 74.5841 89.8978 74.0762 89.8978 73.5171C89.8978 72.9648 89.8126 72.4671 89.6421 72.0239C89.4751 71.5773 89.2211 71.2244 88.8802 70.9654C88.5427 70.7029 88.1183 70.5716 87.6069 70.5716C87.116 70.5716 86.7035 70.696 86.3694 70.9449C86.0353 71.1904 85.783 71.5347 85.6126 71.9779C85.4421 72.4176 85.3569 72.9307 85.3569 73.5171ZM93.4467 80.3898C93.2421 80.3898 93.0597 80.3727 92.8995 80.3387C92.7393 80.308 92.6285 80.2773 92.5671 80.2466L92.8739 79.183C93.1671 79.258 93.4262 79.2852 93.6512 79.2648C93.8762 79.2443 94.0756 79.1438 94.2495 78.9631C94.4268 78.7858 94.5887 78.4977 94.7353 78.0989L94.9603 77.4852L92.0558 69.5898H93.3648L95.533 75.8489H95.6148L97.783 69.5898H99.0921L95.758 78.5898C95.608 78.9955 95.4222 79.3313 95.2006 79.5972C94.9791 79.8665 94.7217 80.0659 94.4285 80.1955C94.1387 80.325 93.8114 80.3898 93.4467 80.3898ZM104.899 77.4443V66.9716H111.178V68.0966H106.167V71.6352H110.708V72.7602H106.167V77.4443H104.899ZM115.903 77.608C115.146 77.608 114.494 77.4409 113.945 77.1068C113.399 76.7693 112.978 76.2989 112.682 75.6955C112.388 75.0887 112.242 74.383 112.242 73.5784C112.242 72.7739 112.388 72.0648 112.682 71.4512C112.978 70.8341 113.391 70.3534 113.919 70.0091C114.451 69.6614 115.071 69.4875 115.78 69.4875C116.19 69.4875 116.594 69.5557 116.992 69.6921C117.391 69.8284 117.754 70.05 118.082 70.3568C118.409 70.6602 118.67 71.0625 118.864 71.5637C119.058 72.0648 119.155 72.6818 119.155 73.4148V73.9262H113.101V72.883H117.928C117.928 72.4398 117.84 72.0443 117.662 71.6966C117.488 71.3489 117.24 71.0744 116.916 70.8733C116.595 70.6722 116.217 70.5716 115.78 70.5716C115.3 70.5716 114.884 70.6909 114.533 70.9296C114.185 71.1648 113.917 71.4716 113.73 71.85C113.542 72.2284 113.449 72.6341 113.449 73.0671V73.7625C113.449 74.3557 113.551 74.8585 113.755 75.271C113.963 75.6801 114.251 75.9921 114.62 76.2068C114.988 76.4182 115.416 76.5239 115.903 76.5239C116.22 76.5239 116.507 76.4796 116.762 76.3909C117.021 76.2989 117.245 76.1625 117.432 75.9818C117.62 75.7977 117.765 75.5693 117.867 75.2966L119.033 75.6239C118.91 76.0193 118.704 76.3671 118.414 76.6671C118.124 76.9637 117.766 77.1955 117.34 77.3625C116.914 77.5262 116.435 77.608 115.903 77.608ZM120.991 77.4443V69.5898H122.157V70.8171H122.259C122.423 70.3977 122.687 70.0722 123.052 69.8404C123.417 69.6051 123.855 69.4875 124.366 69.4875C124.884 69.4875 125.316 69.6051 125.66 69.8404C126.008 70.0722 126.279 70.3977 126.473 70.8171H126.555C126.756 70.4114 127.058 70.0892 127.46 69.8506C127.862 69.6085 128.345 69.4875 128.907 69.4875C129.609 69.4875 130.184 69.7074 130.63 70.1472C131.077 70.5835 131.3 71.2637 131.3 72.1875V77.4443H130.094V72.1875C130.094 71.608 129.935 71.1938 129.618 70.9449C129.301 70.696 128.928 70.5716 128.498 70.5716C127.946 70.5716 127.518 70.7387 127.215 71.0727C126.911 71.4034 126.759 71.8227 126.759 72.3307V77.4443H125.532V72.0648C125.532 71.6182 125.387 71.2585 125.098 70.9858C124.808 70.7097 124.434 70.5716 123.978 70.5716C123.664 70.5716 123.371 70.6551 123.098 70.8222C122.829 70.9892 122.611 71.221 122.444 71.5176C122.28 71.8108 122.198 72.15 122.198 72.5352V77.4443H120.991ZM133.507 77.4443V69.5898H134.714V77.4443H133.507ZM134.121 68.2807C133.885 68.2807 133.682 68.2006 133.512 68.0404C133.345 67.8801 133.261 67.6875 133.261 67.4625C133.261 67.2375 133.345 67.0449 133.512 66.8847C133.682 66.7244 133.885 66.6443 134.121 66.6443C134.356 66.6443 134.557 66.7244 134.724 66.8847C134.894 67.0449 134.98 67.2375 134.98 67.4625C134.98 67.6875 134.894 67.8801 134.724 68.0404C134.557 68.2006 134.356 68.2807 134.121 68.2807ZM138.131 72.7193V77.4443H136.924V69.5898H138.09V70.8171H138.192C138.376 70.4182 138.656 70.0977 139.031 69.8557C139.406 69.6102 139.89 69.4875 140.483 69.4875C141.015 69.4875 141.48 69.5966 141.879 69.8148C142.278 70.0296 142.588 70.3568 142.81 70.7966C143.031 71.233 143.142 71.7852 143.142 72.4534V77.4443H141.935V72.5352C141.935 71.9182 141.775 71.4375 141.455 71.0932C141.134 70.7455 140.695 70.5716 140.135 70.5716C139.75 70.5716 139.406 70.6551 139.102 70.8222C138.802 70.9892 138.566 71.233 138.392 71.5534C138.218 71.8739 138.131 72.2625 138.131 72.7193ZM147.659 77.6284C147.161 77.6284 146.709 77.5347 146.304 77.3472C145.898 77.1563 145.576 76.8818 145.337 76.5239C145.099 76.1625 144.979 75.7262 144.979 75.2148C144.979 74.7648 145.068 74.4 145.245 74.1205C145.423 73.8375 145.659 73.6159 145.956 73.4557C146.253 73.2955 146.58 73.1762 146.938 73.0977C147.299 73.0159 147.662 72.9512 148.027 72.9034C148.504 72.8421 148.891 72.796 149.188 72.7654C149.488 72.7313 149.706 72.675 149.842 72.5966C149.982 72.5182 150.052 72.3818 150.052 72.1875V72.1466C150.052 71.6421 149.914 71.25 149.638 70.9705C149.365 70.6909 148.951 70.5512 148.395 70.5512C147.819 70.5512 147.367 70.6773 147.04 70.9296C146.713 71.1818 146.483 71.4512 146.35 71.7375L145.204 71.3284C145.409 70.8512 145.682 70.4796 146.023 70.2137C146.367 69.9443 146.742 69.7568 147.148 69.6512C147.557 69.5421 147.959 69.4875 148.354 69.4875C148.607 69.4875 148.896 69.5182 149.224 69.5796C149.554 69.6375 149.873 69.7585 150.18 69.9426C150.49 70.1267 150.748 70.4046 150.952 70.7762C151.157 71.1477 151.259 71.6455 151.259 72.2693V77.4443H150.052V76.3807H149.991C149.909 76.5512 149.773 76.7335 149.582 76.9279C149.391 77.1222 149.137 77.2875 148.82 77.4239C148.503 77.5602 148.116 77.6284 147.659 77.6284ZM147.843 76.5443C148.32 76.5443 148.723 76.4506 149.05 76.2631C149.38 76.0756 149.629 75.8335 149.796 75.5369C149.967 75.2404 150.052 74.9284 150.052 74.6012V73.4966C150.001 73.558 149.888 73.6142 149.715 73.6654C149.544 73.7131 149.346 73.7557 149.121 73.7932C148.9 73.8273 148.683 73.858 148.472 73.8852C148.264 73.9091 148.095 73.9296 147.966 73.9466C147.652 73.9875 147.359 74.054 147.086 74.146C146.817 74.2347 146.599 74.3693 146.432 74.55C146.268 74.7273 146.186 74.9693 146.186 75.2762C146.186 75.6955 146.341 76.0125 146.651 76.2273C146.965 76.4387 147.362 76.5443 147.843 76.5443ZM157.491 77.4443V76.5239L160.948 72.7398C161.354 72.2966 161.688 71.9114 161.95 71.5841C162.213 71.2534 162.407 70.9432 162.533 70.6534C162.663 70.3602 162.727 70.0534 162.727 69.733C162.727 69.3648 162.639 69.046 162.462 68.7767C162.288 68.5074 162.049 68.2994 161.746 68.1529C161.442 68.0063 161.101 67.933 160.723 67.933C160.321 67.933 159.97 68.0165 159.67 68.1835C159.373 68.3472 159.143 68.5773 158.979 68.8739C158.819 69.1705 158.739 69.5182 158.739 69.9171H157.532C157.532 69.3034 157.674 68.7648 157.956 68.3012C158.239 67.8375 158.625 67.4762 159.112 67.2171C159.603 66.958 160.154 66.8284 160.764 66.8284C161.377 66.8284 161.921 66.958 162.395 67.2171C162.869 67.4762 163.241 67.8256 163.51 68.2654C163.779 68.7051 163.914 69.1943 163.914 69.733C163.914 70.1182 163.844 70.4949 163.704 70.8631C163.568 71.2279 163.329 71.6352 162.988 72.0852C162.651 72.5318 162.182 73.0773 161.582 73.7216L159.23 76.2375V76.3193H164.098V77.4443H157.491ZM169.626 77.5875C168.855 77.5875 168.199 77.3779 167.657 76.9585C167.115 76.5358 166.701 75.9239 166.414 75.1227C166.128 74.3182 165.985 73.3466 165.985 72.208C165.985 71.0762 166.128 70.1097 166.414 69.3085C166.704 68.504 167.12 67.8904 167.662 67.4676C168.208 67.0415 168.862 66.8284 169.626 66.8284C170.389 66.8284 171.042 67.0415 171.584 67.4676C172.13 67.8904 172.546 68.504 172.832 69.3085C173.122 70.1097 173.267 71.0762 173.267 72.208C173.267 73.3466 173.124 74.3182 172.837 75.1227C172.551 75.9239 172.137 76.5358 171.595 76.9585C171.052 77.3779 170.396 77.5875 169.626 77.5875ZM169.626 76.4625C170.389 76.4625 170.983 76.0943 171.405 75.358C171.828 74.6216 172.039 73.5716 172.039 72.208C172.039 71.3012 171.942 70.529 171.748 69.8915C171.557 69.254 171.281 68.7682 170.92 68.4341C170.562 68.1 170.13 67.933 169.626 67.933C168.869 67.933 168.277 68.3063 167.851 69.0529C167.425 69.796 167.212 70.8477 167.212 72.208C167.212 73.1148 167.308 73.8852 167.499 74.5193C167.689 75.1534 167.964 75.6358 168.322 75.9665C168.683 76.2972 169.118 76.4625 169.626 76.4625ZM175.21 77.4443V76.5239L178.667 72.7398C179.072 72.2966 179.406 71.9114 179.669 71.5841C179.931 71.2534 180.126 70.9432 180.252 70.6534C180.381 70.3602 180.446 70.0534 180.446 69.733C180.446 69.3648 180.358 69.046 180.18 68.7767C180.006 68.5074 179.768 68.2994 179.464 68.1529C179.161 68.0063 178.82 67.933 178.442 67.933C178.039 67.933 177.688 68.0165 177.388 68.1835C177.092 68.3472 176.862 68.5773 176.698 68.8739C176.538 69.1705 176.458 69.5182 176.458 69.9171H175.251C175.251 69.3034 175.392 68.7648 175.675 68.3012C175.958 67.8375 176.343 67.4762 176.831 67.2171C177.322 66.958 177.872 66.8284 178.483 66.8284C179.096 66.8284 179.64 66.958 180.114 67.2171C180.588 67.4762 180.959 67.8256 181.229 68.2654C181.498 68.7051 181.633 69.1943 181.633 69.733C181.633 70.1182 181.563 70.4949 181.423 70.8631C181.287 71.2279 181.048 71.6352 180.707 72.0852C180.37 72.5318 179.901 73.0773 179.301 73.7216L176.949 76.2375V76.3193H181.817V77.4443H175.21ZM187.61 66.9716V77.4443H186.342V68.3012H186.281L183.724 69.9989V68.7102L186.342 66.9716H187.61Z" fill="#F6F9FC"/>
</g>
<defs>
<linearGradient id="paint0_linear_1661_978" x1="199.403" y1="88.1152" x2="199.403" y2="0.444332" gradientUnits="userSpaceOnUse">
<stop stop-color="#EED575"/>
<stop offset="1" stop-color="#BC7A2E"/>
</linearGradient>
<linearGradient id="paint1_linear_1661_978" x1="31.4319" y1="88.1152" x2="31.432" y2="0.444332" gradientUnits="userSpaceOnUse">
<stop stop-color="#EED575"/>
<stop offset="1" stop-color="#BC7A2E"/>
</linearGradient>
<clipPath id="clip0_1661_978">
<rect width="231" height="100" fill="white" transform="translate(0 0.444336)"/>
</clipPath>
<clipPath id="clip1_1661_978">
<rect width="56.8345" height="100" fill="white" transform="translate(174 0.444336)"/>
</clipPath>
<clipPath id="clip2_1661_978">
<rect width="56.8345" height="100" fill="white" transform="matrix(-1 0 0 1 56.835 0.444336)"/>
</clipPath>
</defs>
</svg>
