<svg width="252" height="101" viewBox="0 0 252 101" fill="none" xmlns="http://www.w3.org/2000/svg">
<g clip-path="url(#clip0_1668_1186)">
<g clip-path="url(#clip1_1668_1186)">
<path fill-rule="evenodd" clip-rule="evenodd" d="M194.7 95.2167C207.292 95.2167 218.695 89.9435 226.941 81.4202C235.194 72.8968 240.298 61.108 240.298 48.0995C240.298 35.0909 235.194 23.3021 226.941 14.7788C225.146 12.9301 223.208 11.233 221.141 9.71019C215.704 10.0739 210.639 3.67943 210.949 0.762542C217.665 3.55821 220.982 2.11113 221.626 9.31622C223.67 10.8315 225.593 12.521 227.365 14.3545C235.724 22.9915 240.896 34.9242 240.896 48.0995C240.896 61.2747 235.724 73.2074 227.365 81.8444C219.574 89.8905 209.026 95.0727 197.305 95.7546L194.692 95.2242L194.7 95.2167ZM226.275 10.9754C228.925 7.49032 226.426 1.34592 224.283 0.444336C223.655 6.10386 221.383 7.76307 226.275 10.9754ZM230.659 16.8395C234.013 14.0211 232.923 7.48275 231.022 6.12658C229.167 11.5058 226.593 12.6271 230.659 16.8395ZM227.123 17.2714C225.571 11.7785 223.367 13.3999 217.923 12.324C218.135 14.5818 223.102 18.7184 227.123 17.2714ZM231.734 24.5295C230.719 18.9079 228.365 20.3095 223.057 18.7184C223.057 20.9913 227.6 25.575 231.734 24.5295ZM235.422 23.3627C238.92 20.4231 237.776 13.6044 235.808 12.1952C233.869 17.8017 231.189 18.9685 235.422 23.3627ZM238.375 30.0981C242.683 28.5828 244.023 21.802 242.675 19.7867C238.882 24.3477 235.959 24.4916 238.375 30.0981ZM236.641 33.856C236.845 27.5221 233.968 28.4919 228.584 25.5296C228.047 27.9919 231.916 34.0302 236.641 33.856ZM241.35 38.1214C246.234 36.4016 247.764 28.7116 246.234 26.4236C241.933 31.5982 238.617 31.7573 241.35 38.1214ZM238.435 42.4324C239.336 36.1667 236.376 36.8107 231.348 33.265C230.545 35.6515 233.718 42.0763 238.435 42.4324ZM242.463 46.2054C247.794 45.3796 250.815 37.7881 249.679 35.1515C244.296 39.6291 240.866 39.167 242.463 46.2054ZM242.168 54.403C241.691 46.8721 245.151 47.9176 251.459 44.1901C252.193 47.0994 247.809 54.4333 242.168 54.403ZM238.958 53.6075C241.275 46.069 237.504 46.2963 232.007 40.9626C230.553 43.7431 233.226 52.2589 238.958 53.6075ZM239.851 63.5173C245.757 64.5553 251.656 57.6456 251.406 54.4636C244.129 57.2517 240.684 55.5394 239.851 63.5173ZM236.519 70.2754C241.456 73.6772 249.695 69.8587 250.792 66.866C243.016 66.366 240.601 63.3733 236.519 70.2754ZM235.936 64.0098C239.329 56.8274 235.535 56.5092 230.81 50.4102C228.963 52.9786 230.409 61.8505 235.936 64.0098ZM231.628 76.9653C235.74 81.3368 244.599 79.3367 246.302 76.6395C238.806 74.5106 237.08 71.0785 231.628 76.9653ZM230.038 74.2908C235.338 68.8662 232.014 67.3964 229.644 60.411C227.183 62.1536 225.714 70.6163 230.038 74.2908ZM226.35 84.1477C230.462 88.5192 239.321 86.519 241.025 83.8219C233.529 81.6929 231.802 78.2608 226.35 84.1477ZM221.043 83.981C228.418 80.5792 225.654 77.8366 225.957 69.942C222.829 70.7375 218.127 78.6472 221.043 83.981ZM219.195 89.6708C222.299 95.2849 231.999 95.5576 234.483 93.2165C227.282 89.0344 226.396 85.0113 219.195 89.6708ZM211.017 93.5044C212.918 99.4897 222.178 101.611 225.003 99.8382C218.892 94.4363 218.816 90.4133 211.017 93.5044ZM208.95 90.8679C217.802 89.6708 215.78 85.8902 218.635 77.6926C215.083 77.5259 207.595 84.3219 208.95 90.8679Z" fill="url(#paint0_linear_1668_1186)"/>
</g>
<g clip-path="url(#clip2_1668_1186)">
<path fill-rule="evenodd" clip-rule="evenodd" d="M57.5354 95.2167C44.9434 95.2167 33.5401 89.9435 25.2943 81.4202C17.041 72.8968 11.9375 61.108 11.9375 48.0995C11.9375 35.0909 17.041 23.3021 25.2943 14.7788C27.0889 12.9301 29.0273 11.233 31.0944 9.71019C36.531 10.0739 41.5966 3.67943 41.2861 0.762542C34.5699 3.55821 31.2534 2.11113 30.6098 9.31622C28.5654 10.8315 26.6421 12.521 24.8703 14.3545C16.5109 22.9915 11.3394 34.9242 11.3394 48.0995C11.3394 61.2747 16.5109 73.2074 24.8703 81.8444C32.6618 89.8905 43.2094 95.0727 54.9307 95.7546L57.543 95.2242L57.5354 95.2167ZM25.9607 10.9754C23.3105 7.49032 25.8092 1.34592 27.9521 0.444336C28.5805 6.10386 30.8521 7.76307 25.9607 10.9754ZM21.5765 16.8395C18.2222 14.0211 19.3125 7.48275 21.2131 6.12658C23.0682 11.5058 25.6426 12.6271 21.5765 16.8395ZM25.1126 17.2714C26.6648 11.7785 28.8683 13.3999 34.3124 12.324C34.1004 14.5818 29.1333 18.7184 25.1126 17.2714ZM20.5013 24.5295C21.516 18.9079 23.8708 20.3095 29.1787 18.7184C29.1787 20.9913 24.6356 25.575 20.5013 24.5295ZM16.8138 23.3627C13.3156 20.4231 14.459 13.6044 16.4277 12.1952C18.3661 17.8017 21.0465 18.9685 16.8138 23.3627ZM13.8608 30.0981C9.55239 28.5828 8.21217 21.802 9.55996 19.7867C13.3535 24.3477 16.2762 24.4916 13.8608 30.0981ZM15.5947 33.856C15.3903 27.5221 18.2676 28.4919 23.6512 25.5296C24.1888 27.9919 20.3196 34.0302 15.5947 33.856ZM10.885 38.1214C6.00118 36.4016 4.47166 28.7116 6.00117 26.4236C10.302 31.5982 13.6185 31.7573 10.885 38.1214ZM13.8002 42.4324C12.8992 36.1667 15.8598 36.8107 20.8875 33.265C21.6901 35.6515 18.5175 42.0763 13.8002 42.4324ZM9.77197 46.2054C4.44137 45.3796 1.42019 37.7881 2.55597 35.1515C7.93958 39.6291 11.3696 39.167 9.77197 46.2054ZM10.0673 54.403C10.5443 46.8721 7.08395 47.9176 0.776577 44.1901C0.0421066 47.0994 4.42623 54.4333 10.0673 54.403ZM13.2778 53.6075C10.9608 46.069 14.7316 46.2963 20.2287 40.9626C21.6825 43.7431 19.0097 52.2589 13.2778 53.6075ZM12.3843 63.5173C6.47821 64.5553 0.579708 57.6456 0.829578 54.4636C8.10616 57.2517 11.5514 55.5394 12.3843 63.5173ZM15.7159 70.2754C10.779 73.6772 2.54082 69.8587 1.4429 66.866C9.21922 66.366 11.6347 63.3733 15.7159 70.2754ZM16.2989 64.0098C12.9067 56.8274 16.7002 56.5092 21.4251 50.4102C23.2726 52.9786 21.8264 61.8505 16.2989 64.0098ZM20.6073 76.9653C16.4958 81.3368 7.6367 79.3367 5.93303 76.6395C13.4292 74.5106 15.1556 71.0785 20.6073 76.9653ZM22.1974 74.2908C16.8971 68.8662 20.2212 67.3964 22.5912 60.411C25.052 62.1536 26.521 70.6163 22.1974 74.2908ZM25.8849 84.1477C21.7734 88.5192 12.9143 86.519 11.2106 83.8219C18.7068 81.6929 20.4332 78.2608 25.8849 84.1477ZM31.1928 83.981C23.8178 80.5792 26.5816 77.8366 26.2787 69.942C29.4059 70.7375 34.108 78.6472 31.1928 83.981ZM33.0404 89.6708C29.9359 95.2849 20.2363 95.5576 17.7527 93.2165C24.9536 89.0344 25.8395 85.0113 33.0404 89.6708ZM41.218 93.5044C39.3175 99.4897 30.057 101.611 27.2327 99.8382C33.3432 94.4363 33.419 90.4133 41.218 93.5044ZM43.2851 90.8679C34.4336 89.6708 36.4553 85.8902 33.6007 77.6926C37.1519 77.5259 44.6405 84.3219 43.2851 90.8679Z" fill="url(#paint1_linear_1668_1186)"/>
</g>
<path d="M56.6567 33.4443V22.9716H60.1953C61.0135 22.9716 61.6851 23.1114 62.2101 23.3909C62.7351 23.6671 63.1237 24.0472 63.376 24.5313C63.6283 25.0154 63.7544 25.5659 63.7544 26.183C63.7544 26.8 63.6283 27.3472 63.376 27.8244C63.1237 28.3017 62.7368 28.6767 62.2152 28.9494C61.6936 29.2188 61.0271 29.3534 60.2158 29.3534H57.3521V28.208H60.1748C60.7339 28.208 61.1839 28.1262 61.5248 27.9625C61.8692 27.7989 62.118 27.5671 62.2714 27.2671C62.4283 26.9637 62.5067 26.6023 62.5067 26.183C62.5067 25.7637 62.4283 25.3972 62.2714 25.0835C62.1146 24.7699 61.864 24.5279 61.5197 24.3574C61.1754 24.1835 60.7203 24.0966 60.1544 24.0966H57.9248V33.4443H56.6567ZM61.5862 28.7398L64.1635 33.4443H62.6908L60.1544 28.7398H61.5862ZM68.9128 33.608C68.156 33.608 67.5031 33.4409 66.9542 33.1068C66.4088 32.7693 65.9878 32.2989 65.6912 31.6955C65.398 31.0887 65.2514 30.383 65.2514 29.5784C65.2514 28.7739 65.398 28.0648 65.6912 27.4512C65.9878 26.8341 66.4003 26.3534 66.9287 26.0091C67.4605 25.6614 68.081 25.4875 68.79 25.4875C69.1991 25.4875 69.6031 25.5557 70.002 25.6921C70.4008 25.8284 70.7639 26.05 71.0912 26.3568C71.4185 26.6602 71.6792 27.0625 71.8736 27.5637C72.0679 28.0648 72.165 28.6818 72.165 29.4148V29.9262H66.1105V28.883H70.9378C70.9378 28.4398 70.8491 28.0443 70.6719 27.6966C70.498 27.3489 70.2491 27.0744 69.9253 26.8733C69.6048 26.6722 69.2264 26.5716 68.79 26.5716C68.3094 26.5716 67.8935 26.6909 67.5423 26.9296C67.1946 27.1648 66.927 27.4716 66.7395 27.85C66.552 28.2284 66.4582 28.6341 66.4582 29.0671V29.7625C66.4582 30.3557 66.5605 30.8585 66.765 31.271C66.973 31.6801 67.2611 31.9921 67.6292 32.2068C67.9974 32.4182 68.4253 32.5239 68.9128 32.5239C69.2298 32.5239 69.5162 32.4796 69.7719 32.3909C70.031 32.2989 70.2542 32.1625 70.4417 31.9818C70.6292 31.7977 70.7741 31.5693 70.8764 31.2966L72.0423 31.6239C71.9196 32.0193 71.7133 32.3671 71.4236 32.6671C71.1338 32.9637 70.7758 33.1955 70.3497 33.3625C69.9236 33.5262 69.4446 33.608 68.9128 33.608ZM77.1917 33.608C76.4554 33.608 75.8213 33.4341 75.2895 33.0864C74.7577 32.7387 74.3486 32.2597 74.0622 31.6494C73.7758 31.0392 73.6327 30.3421 73.6327 29.558C73.6327 28.7602 73.7792 28.0563 74.0724 27.446C74.369 26.8324 74.7815 26.3534 75.3099 26.0091C75.8417 25.6614 76.4622 25.4875 77.1713 25.4875C77.7236 25.4875 78.2213 25.5898 78.6645 25.7943C79.1077 25.9989 79.4707 26.2852 79.7537 26.6534C80.0366 27.0216 80.2122 27.4512 80.2804 27.9421H79.0736C78.9815 27.5841 78.777 27.2671 78.4599 26.9909C78.1463 26.7114 77.7236 26.5716 77.1917 26.5716C76.7213 26.5716 76.3088 26.6943 75.9542 26.9398C75.6031 27.1818 75.3287 27.5244 75.131 27.9676C74.9366 28.4074 74.8395 28.9239 74.8395 29.5171C74.8395 30.1239 74.9349 30.6523 75.1258 31.1023C75.3202 31.5523 75.5929 31.9017 75.944 32.1506C76.2986 32.3994 76.7145 32.5239 77.1917 32.5239C77.5054 32.5239 77.79 32.4693 78.0457 32.3602C78.3014 32.2512 78.5179 32.0943 78.6952 31.8898C78.8724 31.6852 78.9986 31.4398 79.0736 31.1534H80.2804C80.2122 31.6171 80.0435 32.0347 79.7741 32.4063C79.5082 32.7744 79.1554 33.0676 78.7156 33.2858C78.2792 33.5006 77.7713 33.608 77.1917 33.608ZM85.2355 33.608C84.5264 33.608 83.9042 33.4392 83.369 33.1017C82.8372 32.7642 82.4213 32.2921 82.1213 31.6852C81.8247 31.0784 81.6764 30.3693 81.6764 29.558C81.6764 28.7398 81.8247 28.0256 82.1213 27.4154C82.4213 26.8051 82.8372 26.3313 83.369 25.9938C83.9042 25.6563 84.5264 25.4875 85.2355 25.4875C85.9446 25.4875 86.565 25.6563 87.0969 25.9938C87.6321 26.3313 88.048 26.8051 88.3446 27.4154C88.6446 28.0256 88.7946 28.7398 88.7946 29.558C88.7946 30.3693 88.6446 31.0784 88.3446 31.6852C88.048 32.2921 87.6321 32.7642 87.0969 33.1017C86.565 33.4392 85.9446 33.608 85.2355 33.608ZM85.2355 32.5239C85.7741 32.5239 86.2173 32.3858 86.565 32.1097C86.9128 31.8335 87.1702 31.4705 87.3372 31.0205C87.5042 30.5705 87.5878 30.083 87.5878 29.558C87.5878 29.033 87.5042 28.5438 87.3372 28.0904C87.1702 27.6369 86.9128 27.2705 86.565 26.9909C86.2173 26.7114 85.7741 26.5716 85.2355 26.5716C84.6969 26.5716 84.2537 26.7114 83.9059 26.9909C83.5582 27.2705 83.3008 27.6369 83.1338 28.0904C82.9667 28.5438 82.8832 29.033 82.8832 29.558C82.8832 30.083 82.9667 30.5705 83.1338 31.0205C83.3008 31.4705 83.5582 31.8335 83.9059 32.1097C84.2537 32.3858 84.6969 32.5239 85.2355 32.5239ZM93.8072 36.5534C93.2243 36.5534 92.7231 36.4784 92.3038 36.3284C91.8845 36.1818 91.5351 35.9875 91.2555 35.7455C90.9794 35.5068 90.7595 35.2512 90.5959 34.9784L91.5572 34.3034C91.6663 34.4466 91.8044 34.6102 91.9714 34.7943C92.1385 34.9818 92.3669 35.1438 92.6567 35.2801C92.9498 35.4199 93.3334 35.4898 93.8072 35.4898C94.4413 35.4898 94.9646 35.3364 95.3771 35.0296C95.7896 34.7227 95.9959 34.2421 95.9959 33.5875V31.9921H95.8936C95.805 32.1352 95.6788 32.3125 95.5152 32.5239C95.355 32.7318 95.1231 32.9176 94.8197 33.0813C94.5197 33.2415 94.114 33.3216 93.6027 33.3216C92.9686 33.3216 92.3993 33.1716 91.8947 32.8716C91.3936 32.5716 90.9964 32.1352 90.7033 31.5625C90.4135 30.9898 90.2686 30.2943 90.2686 29.4762C90.2686 28.6716 90.4101 27.971 90.693 27.3744C90.976 26.7744 91.3697 26.3108 91.8743 25.9835C92.3788 25.6529 92.9618 25.4875 93.6231 25.4875C94.1345 25.4875 94.5402 25.5727 94.8402 25.7432C95.1436 25.9102 95.3754 26.1012 95.5356 26.3159C95.6993 26.5273 95.8254 26.7012 95.914 26.8375H96.0368V25.5898H97.2027V33.6693C97.2027 34.3443 97.0493 34.8932 96.7425 35.3159C96.439 35.7421 96.03 36.054 95.5152 36.2517C95.0038 36.4529 94.4345 36.5534 93.8072 36.5534ZM93.7663 32.2375C94.2504 32.2375 94.6595 32.1267 94.9936 31.9051C95.3277 31.6835 95.5817 31.3648 95.7555 30.9489C95.9294 30.533 96.0163 30.0352 96.0163 29.4557C96.0163 28.8898 95.9311 28.3904 95.7606 27.9574C95.5902 27.5244 95.3379 27.1852 95.0038 26.9398C94.6697 26.6943 94.2572 26.5716 93.7663 26.5716C93.255 26.5716 92.8288 26.7012 92.4879 26.9602C92.1504 27.2193 91.8964 27.5671 91.726 28.0034C91.5589 28.4398 91.4754 28.9239 91.4754 29.4557C91.4754 30.0012 91.5606 30.4835 91.7311 30.9029C91.905 31.3188 92.1606 31.646 92.4981 31.8847C92.839 32.1199 93.2618 32.2375 93.7663 32.2375ZM100.619 28.7193V33.4443H99.4118V25.5898H100.578V26.8171H100.68C100.864 26.4182 101.144 26.0977 101.519 25.8557C101.894 25.6102 102.378 25.4875 102.971 25.4875C103.503 25.4875 103.968 25.5966 104.367 25.8148C104.766 26.0296 105.076 26.3568 105.298 26.7966C105.519 27.233 105.63 27.7852 105.63 28.4534V33.4443H104.423V28.5352C104.423 27.9182 104.263 27.4375 103.942 27.0932C103.622 26.7455 103.182 26.5716 102.623 26.5716C102.238 26.5716 101.894 26.6551 101.59 26.8222C101.29 26.9892 101.053 27.233 100.879 27.5534C100.706 27.8739 100.619 28.2625 100.619 28.7193ZM107.835 33.4443V25.5898H109.042V33.4443H107.835ZM108.449 24.2807C108.214 24.2807 108.011 24.2006 107.84 24.0404C107.673 23.8801 107.59 23.6875 107.59 23.4625C107.59 23.2375 107.673 23.0449 107.84 22.8847C108.011 22.7244 108.214 22.6443 108.449 22.6443C108.684 22.6443 108.885 22.7244 109.052 22.8847C109.223 23.0449 109.308 23.2375 109.308 23.4625C109.308 23.6875 109.223 23.8801 109.052 24.0404C108.885 24.2006 108.684 24.2807 108.449 24.2807ZM116.816 27.3489L115.732 27.6557C115.664 27.475 115.563 27.2994 115.43 27.129C115.301 26.9551 115.123 26.8119 114.898 26.6994C114.673 26.5869 114.385 26.5307 114.034 26.5307C113.554 26.5307 113.153 26.6415 112.833 26.8631C112.515 27.0813 112.357 27.3591 112.357 27.6966C112.357 27.9966 112.466 28.2335 112.684 28.4074C112.902 28.5813 113.243 28.7262 113.707 28.8421L114.873 29.1284C115.575 29.2989 116.098 29.5597 116.443 29.9108C116.787 30.2585 116.959 30.7068 116.959 31.2557C116.959 31.7057 116.83 32.108 116.571 32.4625C116.315 32.8171 115.957 33.0966 115.497 33.3012C115.036 33.5057 114.501 33.608 113.891 33.608C113.09 33.608 112.427 33.4341 111.902 33.0864C111.377 32.7387 111.044 32.2307 110.905 31.5625L112.05 31.2762C112.159 31.6989 112.365 32.0159 112.669 32.2273C112.976 32.4387 113.376 32.5443 113.871 32.5443C114.433 32.5443 114.88 32.425 115.21 32.1864C115.544 31.9443 115.711 31.6546 115.711 31.3171C115.711 31.0443 115.616 30.8159 115.425 30.6318C115.234 30.4443 114.941 30.3046 114.546 30.2125L113.236 29.9057C112.517 29.7352 111.989 29.471 111.651 29.1131C111.317 28.7517 111.15 28.3 111.15 27.758C111.15 27.3148 111.275 26.9227 111.523 26.5818C111.776 26.2409 112.118 25.9733 112.551 25.779C112.988 25.5847 113.482 25.4875 114.034 25.4875C114.811 25.4875 115.422 25.658 115.865 25.9989C116.311 26.3398 116.629 26.7898 116.816 27.3489ZM122.069 33.608C121.312 33.608 120.659 33.4409 120.11 33.1068C119.565 32.7693 119.144 32.2989 118.847 31.6955C118.554 31.0887 118.408 30.383 118.408 29.5784C118.408 28.7739 118.554 28.0648 118.847 27.4512C119.144 26.8341 119.557 26.3534 120.085 26.0091C120.617 25.6614 121.237 25.4875 121.946 25.4875C122.355 25.4875 122.759 25.5557 123.158 25.6921C123.557 25.8284 123.92 26.05 124.247 26.3568C124.575 26.6602 124.835 27.0625 125.03 27.5637C125.224 28.0648 125.321 28.6818 125.321 29.4148V29.9262H119.267V28.883H124.094C124.094 28.4398 124.005 28.0443 123.828 27.6966C123.654 27.3489 123.405 27.0744 123.082 26.8733C122.761 26.6722 122.383 26.5716 121.946 26.5716C121.466 26.5716 121.05 26.6909 120.699 26.9296C120.351 27.1648 120.083 27.4716 119.896 27.85C119.708 28.2284 119.614 28.6341 119.614 29.0671V29.7625C119.614 30.3557 119.717 30.8585 119.921 31.271C120.129 31.6801 120.417 31.9921 120.785 32.2068C121.154 32.4182 121.582 32.5239 122.069 32.5239C122.386 32.5239 122.672 32.4796 122.928 32.3909C123.187 32.2989 123.41 32.1625 123.598 31.9818C123.785 31.7977 123.93 31.5693 124.033 31.2966L125.199 31.6239C125.076 32.0193 124.87 32.3671 124.58 32.6671C124.29 32.9637 123.932 33.1955 123.506 33.3625C123.08 33.5262 122.601 33.608 122.069 33.608ZM130.123 33.608C129.468 33.608 128.891 33.4426 128.389 33.1119C127.888 32.7779 127.496 32.3074 127.213 31.7006C126.93 31.0904 126.789 30.3693 126.789 29.5375C126.789 28.7125 126.93 27.9966 127.213 27.3898C127.496 26.783 127.89 26.3142 128.395 25.9835C128.899 25.6529 129.482 25.4875 130.143 25.4875C130.655 25.4875 131.059 25.5727 131.355 25.7432C131.655 25.9102 131.884 26.1012 132.041 26.3159C132.201 26.5273 132.325 26.7012 132.414 26.8375H132.516V22.9716H133.723V33.4443H132.557V32.2375H132.414C132.325 32.3807 132.199 32.5614 132.035 32.7796C131.872 32.9943 131.638 33.1869 131.335 33.3574C131.032 33.5244 130.628 33.608 130.123 33.608ZM130.287 32.5239C130.771 32.5239 131.18 32.3977 131.514 32.1455C131.848 31.8898 132.102 31.5369 132.276 31.0869C132.45 30.6335 132.537 30.1102 132.537 29.5171C132.537 28.9307 132.451 28.4176 132.281 27.9779C132.11 27.5347 131.858 27.1904 131.524 26.9449C131.19 26.696 130.778 26.5716 130.287 26.5716C129.775 26.5716 129.349 26.7029 129.008 26.9654C128.671 27.2244 128.417 27.5773 128.246 28.0239C128.079 28.4671 127.996 28.9648 127.996 29.5171C127.996 30.0762 128.081 30.5841 128.251 31.0409C128.425 31.4943 128.681 31.8557 129.018 32.125C129.359 32.3909 129.782 32.5239 130.287 32.5239ZM142.462 33.6284C141.964 33.6284 141.513 33.5347 141.107 33.3472C140.701 33.1563 140.379 32.8818 140.141 32.5239C139.902 32.1625 139.783 31.7262 139.783 31.2148C139.783 30.7648 139.871 30.4 140.049 30.1205C140.226 29.8375 140.463 29.6159 140.759 29.4557C141.056 29.2955 141.383 29.1762 141.741 29.0977C142.103 29.0159 142.466 28.9512 142.83 28.9034C143.308 28.8421 143.695 28.796 143.991 28.7654C144.291 28.7313 144.509 28.675 144.646 28.5966C144.785 28.5182 144.855 28.3818 144.855 28.1875V28.1466C144.855 27.6421 144.717 27.25 144.441 26.9705C144.168 26.6909 143.754 26.5512 143.199 26.5512C142.622 26.5512 142.171 26.6773 141.843 26.9296C141.516 27.1818 141.286 27.4512 141.153 27.7375L140.008 27.3284C140.212 26.8512 140.485 26.4796 140.826 26.2137C141.17 25.9443 141.545 25.7568 141.951 25.6512C142.36 25.5421 142.762 25.4875 143.158 25.4875C143.41 25.4875 143.7 25.5182 144.027 25.5796C144.358 25.6375 144.676 25.7585 144.983 25.9426C145.293 26.1267 145.551 26.4046 145.755 26.7762C145.96 27.1477 146.062 27.6455 146.062 28.2693V33.4443H144.855V32.3807H144.794C144.712 32.5512 144.576 32.7335 144.385 32.9279C144.194 33.1222 143.94 33.2875 143.623 33.4239C143.306 33.5602 142.919 33.6284 142.462 33.6284ZM142.646 32.5443C143.124 32.5443 143.526 32.4506 143.853 32.2631C144.184 32.0756 144.433 31.8335 144.6 31.5369C144.77 31.2404 144.855 30.9284 144.855 30.6012V29.4966C144.804 29.558 144.692 29.6142 144.518 29.6654C144.347 29.7131 144.15 29.7557 143.925 29.7932C143.703 29.8273 143.487 29.858 143.275 29.8852C143.067 29.9091 142.899 29.9296 142.769 29.9466C142.455 29.9875 142.162 30.054 141.889 30.146C141.62 30.2347 141.402 30.3693 141.235 30.55C141.071 30.7273 140.989 30.9693 140.989 31.2762C140.989 31.6955 141.145 32.0125 141.455 32.2273C141.768 32.4387 142.166 32.5443 142.646 32.5443ZM153.829 27.3489L152.744 27.6557C152.676 27.475 152.576 27.2994 152.443 27.129C152.313 26.9551 152.136 26.8119 151.911 26.6994C151.686 26.5869 151.398 26.5307 151.047 26.5307C150.566 26.5307 150.165 26.6415 149.845 26.8631C149.528 27.0813 149.369 27.3591 149.369 27.6966C149.369 27.9966 149.479 28.2335 149.697 28.4074C149.915 28.5813 150.256 28.7262 150.719 28.8421L151.885 29.1284C152.588 29.2989 153.111 29.5597 153.455 29.9108C153.8 30.2585 153.972 30.7068 153.972 31.2557C153.972 31.7057 153.842 32.108 153.583 32.4625C153.327 32.8171 152.969 33.0966 152.509 33.3012C152.049 33.5057 151.514 33.608 150.904 33.608C150.102 33.608 149.439 33.4341 148.914 33.0864C148.389 32.7387 148.057 32.2307 147.917 31.5625L149.063 31.2762C149.172 31.6989 149.378 32.0159 149.681 32.2273C149.988 32.4387 150.389 32.5443 150.883 32.5443C151.446 32.5443 151.892 32.425 152.223 32.1864C152.557 31.9443 152.724 31.6546 152.724 31.3171C152.724 31.0443 152.629 30.8159 152.438 30.6318C152.247 30.4443 151.954 30.3046 151.558 30.2125L150.249 29.9057C149.53 29.7352 149.001 29.471 148.664 29.1131C148.33 28.7517 148.163 28.3 148.163 27.758C148.163 27.3148 148.287 26.9227 148.536 26.5818C148.788 26.2409 149.131 25.9733 149.564 25.779C150 25.5847 150.494 25.4875 151.047 25.4875C151.824 25.4875 152.434 25.658 152.877 25.9989C153.324 26.3398 153.641 26.7898 153.829 27.3489ZM159.429 24.0966V22.9716H167.284V24.0966H163.991V33.4443H162.722V24.0966H159.429ZM171.129 33.608C170.42 33.608 169.798 33.4392 169.263 33.1017C168.731 32.7642 168.315 32.2921 168.015 31.6852C167.718 31.0784 167.57 30.3693 167.57 29.558C167.57 28.7398 167.718 28.0256 168.015 27.4154C168.315 26.8051 168.731 26.3313 169.263 25.9938C169.798 25.6563 170.42 25.4875 171.129 25.4875C171.838 25.4875 172.459 25.6563 172.991 25.9938C173.526 26.3313 173.942 26.8051 174.238 27.4154C174.538 28.0256 174.688 28.7398 174.688 29.558C174.688 30.3693 174.538 31.0784 174.238 31.6852C173.942 32.2921 173.526 32.7642 172.991 33.1017C172.459 33.4392 171.838 33.608 171.129 33.608ZM171.129 32.5239C171.668 32.5239 172.111 32.3858 172.459 32.1097C172.807 31.8335 173.064 31.4705 173.231 31.0205C173.398 30.5705 173.482 30.083 173.482 29.558C173.482 29.033 173.398 28.5438 173.231 28.0904C173.064 27.6369 172.807 27.2705 172.459 26.9909C172.111 26.7114 171.668 26.5716 171.129 26.5716C170.591 26.5716 170.147 26.7114 169.8 26.9909C169.452 27.2705 169.195 27.6369 169.028 28.0904C168.86 28.5438 168.777 29.033 168.777 29.558C168.777 30.083 168.86 30.5705 169.028 31.0205C169.195 31.4705 169.452 31.8335 169.8 32.1097C170.147 32.3858 170.591 32.5239 171.129 32.5239ZM176.531 36.3898V25.5898H177.696V26.8375H177.84C177.928 26.7012 178.051 26.5273 178.208 26.3159C178.368 26.1012 178.596 25.9102 178.893 25.7432C179.193 25.5727 179.599 25.4875 180.11 25.4875C180.771 25.4875 181.354 25.6529 181.859 25.9835C182.363 26.3142 182.757 26.783 183.04 27.3898C183.323 27.9966 183.465 28.7125 183.465 29.5375C183.465 30.3693 183.323 31.0904 183.04 31.7006C182.757 32.3074 182.365 32.7779 181.864 33.1119C181.363 33.4426 180.785 33.608 180.131 33.608C179.626 33.608 179.222 33.5244 178.919 33.3574C178.615 33.1869 178.382 32.9943 178.218 32.7796C178.054 32.5614 177.928 32.3807 177.84 32.2375H177.737V36.3898H176.531ZM177.717 29.5171C177.717 30.1102 177.804 30.6335 177.978 31.0869C178.152 31.5369 178.406 31.8898 178.74 32.1455C179.074 32.3977 179.483 32.5239 179.967 32.5239C180.471 32.5239 180.892 32.3909 181.23 32.125C181.571 31.8557 181.827 31.4943 181.997 31.0409C182.171 30.5841 182.258 30.0762 182.258 29.5171C182.258 28.9648 182.173 28.4671 182.002 28.0239C181.835 27.5773 181.581 27.2244 181.24 26.9654C180.903 26.7029 180.478 26.5716 179.967 26.5716C179.476 26.5716 179.063 26.696 178.729 26.9449C178.395 27.1904 178.143 27.5347 177.973 27.9779C177.802 28.4176 177.717 28.9307 177.717 29.5171ZM192.608 33.5875C192.008 33.5875 191.467 33.4682 190.987 33.2296C190.506 32.9909 190.121 32.6637 189.831 32.2477C189.541 31.8318 189.383 31.358 189.356 30.8262H190.583C190.631 31.3 190.845 31.6921 191.227 32.0023C191.612 32.3091 192.073 32.4625 192.608 32.4625C193.037 32.4625 193.419 32.3619 193.753 32.1608C194.091 31.9597 194.355 31.6835 194.546 31.3324C194.74 30.9779 194.837 30.5773 194.837 30.1307C194.837 29.6739 194.737 29.2665 194.536 28.9085C194.338 28.5472 194.065 28.2625 193.717 28.0546C193.37 27.8466 192.973 27.7409 192.526 27.7375C192.206 27.7341 191.877 27.7835 191.539 27.8858C191.202 27.9847 190.924 28.1125 190.706 28.2693L189.519 28.1262L190.153 22.9716H195.594V24.0966H191.217L190.849 27.1852H190.91C191.125 27.0148 191.394 26.8733 191.718 26.7608C192.042 26.6483 192.379 26.5921 192.731 26.5921C193.371 26.5921 193.942 26.7455 194.444 27.0523C194.948 27.3557 195.344 27.7716 195.63 28.3C195.92 28.8284 196.065 29.4318 196.065 30.1102C196.065 30.7784 195.915 31.375 195.615 31.9C195.318 32.4216 194.909 32.8341 194.387 33.1375C193.866 33.4375 193.273 33.5875 192.608 33.5875ZM81.3229 55.4443H79.9934L83.8388 44.9716H85.1479L88.9934 55.4443H87.6638L84.5343 46.6284H84.4525L81.3229 55.4443ZM81.8138 51.3534H87.1729V52.4784H81.8138V51.3534ZM93.6519 55.608C92.9155 55.608 92.2814 55.4341 91.7496 55.0864C91.2178 54.7387 90.8087 54.2597 90.5224 53.6494C90.236 53.0392 90.0928 52.3421 90.0928 51.558C90.0928 50.7602 90.2394 50.0563 90.5326 49.446C90.8292 48.8324 91.2417 48.3534 91.7701 48.0091C92.3019 47.6614 92.9224 47.4875 93.6314 47.4875C94.1837 47.4875 94.6814 47.5898 95.1246 47.7943C95.5678 47.9989 95.9309 48.2852 96.2138 48.6534C96.4968 49.0216 96.6724 49.4512 96.7405 49.9421H95.5337C95.4417 49.5841 95.2371 49.2671 94.9201 48.9909C94.6064 48.7114 94.1837 48.5716 93.6519 48.5716C93.1814 48.5716 92.7689 48.6943 92.4144 48.9398C92.0633 49.1818 91.7888 49.5244 91.5911 49.9676C91.3968 50.4074 91.2996 50.9239 91.2996 51.5171C91.2996 52.1239 91.3951 52.6523 91.586 53.1023C91.7803 53.5523 92.053 53.9017 92.4042 54.1506C92.7587 54.3994 93.1746 54.5239 93.6519 54.5239C93.9655 54.5239 94.2502 54.4693 94.5059 54.3602C94.7616 54.2512 94.978 54.0943 95.1553 53.8898C95.3326 53.6852 95.4587 53.4398 95.5337 53.1534H96.7405C96.6724 53.6171 96.5036 54.0347 96.2343 54.4063C95.9684 54.7744 95.6155 55.0676 95.1758 55.2858C94.7394 55.5006 94.2314 55.608 93.6519 55.608ZM101.921 47.5898V48.6125H97.8502V47.5898H101.921ZM99.0366 45.708H100.243V53.1943C100.243 53.5352 100.293 53.7909 100.392 53.9614C100.494 54.1284 100.623 54.2409 100.78 54.2989C100.941 54.3534 101.109 54.3807 101.287 54.3807C101.42 54.3807 101.529 54.3739 101.614 54.3602C101.699 54.3432 101.767 54.3296 101.818 54.3193L102.064 55.4034C101.982 55.4341 101.868 55.4648 101.721 55.4955C101.575 55.5296 101.389 55.5466 101.164 55.5466C100.823 55.5466 100.489 55.4733 100.162 55.3267C99.8377 55.1801 99.5684 54.9568 99.3536 54.6568C99.1422 54.3568 99.0366 53.9784 99.0366 53.5216V45.708ZM106.843 55.608C106.133 55.608 105.511 55.4392 104.976 55.1017C104.444 54.7642 104.028 54.2921 103.728 53.6852C103.432 53.0784 103.283 52.3693 103.283 51.558C103.283 50.7398 103.432 50.0256 103.728 49.4154C104.028 48.8051 104.444 48.3313 104.976 47.9938C105.511 47.6563 106.133 47.4875 106.843 47.4875C107.552 47.4875 108.172 47.6563 108.704 47.9938C109.239 48.3313 109.655 48.8051 109.952 49.4154C110.252 50.0256 110.402 50.7398 110.402 51.558C110.402 52.3693 110.252 53.0784 109.952 53.6852C109.655 54.2921 109.239 54.7642 108.704 55.1017C108.172 55.4392 107.552 55.608 106.843 55.608ZM106.843 54.5239C107.381 54.5239 107.824 54.3858 108.172 54.1097C108.52 53.8335 108.777 53.4705 108.944 53.0205C109.111 52.5705 109.195 52.083 109.195 51.558C109.195 51.033 109.111 50.5438 108.944 50.0904C108.777 49.6369 108.52 49.2705 108.172 48.9909C107.824 48.7114 107.381 48.5716 106.843 48.5716C106.304 48.5716 105.861 48.7114 105.513 48.9909C105.165 49.2705 104.908 49.6369 104.741 50.0904C104.574 50.5438 104.49 51.033 104.49 51.558C104.49 52.083 104.574 52.5705 104.741 53.0205C104.908 53.4705 105.165 53.8335 105.513 54.1097C105.861 54.3858 106.304 54.5239 106.843 54.5239ZM112.244 55.4443V47.5898H113.41V48.7762H113.492C113.635 48.3875 113.894 48.0722 114.269 47.8301C114.644 47.5881 115.067 47.4671 115.537 47.4671C115.626 47.4671 115.736 47.4688 115.869 47.4722C116.002 47.4756 116.103 47.4807 116.171 47.4875V48.7148C116.13 48.7046 116.036 48.6892 115.89 48.6688C115.747 48.6449 115.595 48.633 115.435 48.633C115.053 48.633 114.712 48.7131 114.412 48.8733C114.115 49.0301 113.88 49.2483 113.706 49.5279C113.536 49.804 113.451 50.1193 113.451 50.4739V55.4443H112.244ZM123.165 49.3489L122.081 49.6557C122.013 49.475 121.912 49.2994 121.779 49.129C121.65 48.9551 121.473 48.8119 121.248 48.6994C121.023 48.5869 120.735 48.5307 120.383 48.5307C119.903 48.5307 119.502 48.6415 119.182 48.8631C118.865 49.0813 118.706 49.3591 118.706 49.6966C118.706 49.9966 118.815 50.2335 119.033 50.4074C119.252 50.5813 119.593 50.7262 120.056 50.8421L121.222 51.1284C121.924 51.2989 122.448 51.5597 122.792 51.9108C123.136 52.2585 123.308 52.7068 123.308 53.2557C123.308 53.7057 123.179 54.108 122.92 54.4625C122.664 54.8171 122.306 55.0966 121.846 55.3012C121.386 55.5057 120.85 55.608 120.24 55.608C119.439 55.608 118.776 55.4341 118.251 55.0864C117.726 54.7387 117.394 54.2307 117.254 53.5625L118.399 53.2762C118.508 53.6989 118.715 54.0159 119.018 54.2273C119.325 54.4387 119.725 54.5443 120.22 54.5443C120.782 54.5443 121.229 54.425 121.56 54.1864C121.894 53.9443 122.061 53.6546 122.061 53.3171C122.061 53.0443 121.965 52.8159 121.774 52.6318C121.583 52.4443 121.29 52.3046 120.895 52.2125L119.586 51.9057C118.866 51.7352 118.338 51.471 118 51.1131C117.666 50.7517 117.499 50.3 117.499 49.758C117.499 49.3148 117.624 48.9227 117.873 48.5818C118.125 48.2409 118.468 47.9733 118.9 47.779C119.337 47.5847 119.831 47.4875 120.383 47.4875C121.161 47.4875 121.771 47.658 122.214 47.9989C122.661 48.3398 122.978 48.7898 123.165 49.3489ZM132.591 47.5898V48.6125H128.521V47.5898H132.591ZM129.707 45.708H130.914V53.1943C130.914 53.5352 130.963 53.7909 131.062 53.9614C131.164 54.1284 131.294 54.2409 131.451 54.2989C131.611 54.3534 131.78 54.3807 131.957 54.3807C132.09 54.3807 132.199 54.3739 132.284 54.3602C132.369 54.3432 132.438 54.3296 132.489 54.3193L132.734 55.4034C132.652 55.4341 132.538 55.4648 132.392 55.4955C132.245 55.5296 132.059 55.5466 131.834 55.5466C131.493 55.5466 131.159 55.4733 130.832 55.3267C130.508 55.1801 130.239 54.9568 130.024 54.6568C129.813 54.3568 129.707 53.9784 129.707 53.5216V45.708ZM139.356 52.233V47.5898H140.563V55.4443H139.356V54.1148H139.274C139.09 54.5137 138.804 54.8529 138.415 55.1324C138.027 55.4085 137.536 55.5466 136.943 55.5466C136.452 55.5466 136.015 55.4392 135.634 55.2244C135.252 55.0063 134.952 54.679 134.734 54.2426C134.515 53.8029 134.406 53.2489 134.406 52.5807V47.5898H135.613V52.4989C135.613 53.0716 135.773 53.5284 136.094 53.8693C136.418 54.2102 136.83 54.3807 137.331 54.3807C137.631 54.3807 137.936 54.304 138.247 54.1506C138.56 53.9972 138.823 53.7619 139.034 53.4449C139.249 53.1279 139.356 52.7239 139.356 52.233ZM142.773 55.4443V47.5898H143.939V48.7762H144.021C144.164 48.3875 144.423 48.0722 144.798 47.8301C145.173 47.5881 145.596 47.4671 146.067 47.4671C146.155 47.4671 146.266 47.4688 146.399 47.4722C146.532 47.4756 146.633 47.4807 146.701 47.4875V48.7148C146.66 48.7046 146.566 48.6892 146.42 48.6688C146.276 48.6449 146.125 48.633 145.964 48.633C145.583 48.633 145.242 48.7131 144.942 48.8733C144.645 49.0301 144.41 49.2483 144.236 49.5279C144.066 49.804 143.98 50.1193 143.98 50.4739V55.4443H142.773ZM149.338 50.7193V55.4443H148.131V47.5898H149.297V48.8171H149.399C149.584 48.4182 149.863 48.0977 150.238 47.8557C150.613 47.6102 151.097 47.4875 151.69 47.4875C152.222 47.4875 152.688 47.5966 153.086 47.8148C153.485 48.0296 153.796 48.3568 154.017 48.7966C154.239 49.233 154.349 49.7852 154.349 50.4534V55.4443H153.143V50.5352C153.143 49.9182 152.982 49.4375 152.662 49.0932C152.342 48.7455 151.902 48.5716 151.343 48.5716C150.957 48.5716 150.613 48.6551 150.31 48.8222C150.01 48.9892 149.773 49.233 149.599 49.5534C149.425 49.8739 149.338 50.2625 149.338 50.7193ZM159.848 55.608C159.091 55.608 158.438 55.4409 157.889 55.1068C157.344 54.7693 156.923 54.2989 156.626 53.6955C156.333 53.0887 156.187 52.383 156.187 51.5784C156.187 50.7739 156.333 50.0648 156.626 49.4512C156.923 48.8341 157.335 48.3534 157.864 48.0091C158.396 47.6614 159.016 47.4875 159.725 47.4875C160.134 47.4875 160.538 47.5557 160.937 47.6921C161.336 47.8284 161.699 48.05 162.026 48.3568C162.354 48.6602 162.614 49.0625 162.809 49.5637C163.003 50.0648 163.1 50.6818 163.1 51.4148V51.9262H157.046V50.883H161.873C161.873 50.4398 161.784 50.0443 161.607 49.6966C161.433 49.3489 161.184 49.0744 160.86 48.8733C160.54 48.6722 160.162 48.5716 159.725 48.5716C159.245 48.5716 158.829 48.6909 158.477 48.9296C158.13 49.1648 157.862 49.4716 157.675 49.85C157.487 50.2284 157.393 50.6341 157.393 51.0671V51.7625C157.393 52.3557 157.496 52.8585 157.7 53.271C157.908 53.6801 158.196 53.9921 158.564 54.2068C158.933 54.4182 159.36 54.5239 159.848 54.5239C160.165 54.5239 160.451 54.4796 160.707 54.3909C160.966 54.2989 161.189 54.1625 161.377 53.9818C161.564 53.7977 161.709 53.5693 161.812 53.2966L162.977 53.6239C162.855 54.0193 162.648 54.3671 162.359 54.6671C162.069 54.9637 161.711 55.1955 161.285 55.3625C160.859 55.5262 160.38 55.608 159.848 55.608ZM167.902 55.608C167.247 55.608 166.67 55.4426 166.168 55.1119C165.667 54.7779 165.275 54.3074 164.992 53.7006C164.709 53.0904 164.568 52.3693 164.568 51.5375C164.568 50.7125 164.709 49.9966 164.992 49.3898C165.275 48.783 165.669 48.3142 166.173 47.9835C166.678 47.6529 167.261 47.4875 167.922 47.4875C168.434 47.4875 168.838 47.5727 169.134 47.7432C169.434 47.9102 169.663 48.1012 169.82 48.3159C169.98 48.5273 170.104 48.7012 170.193 48.8375H170.295V44.9716H171.502V55.4443H170.336V54.2375H170.193C170.104 54.3807 169.978 54.5614 169.814 54.7796C169.651 54.9943 169.417 55.1869 169.114 55.3574C168.81 55.5244 168.406 55.608 167.902 55.608ZM168.066 54.5239C168.55 54.5239 168.959 54.3977 169.293 54.1455C169.627 53.8898 169.881 53.5369 170.055 53.0869C170.229 52.6335 170.316 52.1102 170.316 51.5171C170.316 50.9307 170.23 50.4176 170.06 49.9779C169.889 49.5347 169.637 49.1904 169.303 48.9449C168.969 48.696 168.556 48.5716 168.066 48.5716C167.554 48.5716 167.128 48.7029 166.787 48.9654C166.45 49.2244 166.196 49.5773 166.025 50.0239C165.858 50.4671 165.775 50.9648 165.775 51.5171C165.775 52.0762 165.86 52.5841 166.03 53.0409C166.204 53.4943 166.46 53.8557 166.797 54.125C167.138 54.3909 167.561 54.5239 168.066 54.5239ZM42.6715 77.4443V66.9716H48.992V68.0966H43.9397V71.6352H48.6647V72.7602H43.9397V76.3193H49.0738V77.4443H42.6715ZM52.3209 72.7193V77.4443H51.1141V69.5898H52.28V70.8171H52.3823C52.5664 70.4182 52.8459 70.0977 53.2209 69.8557C53.5959 69.6102 54.08 69.4875 54.6732 69.4875C55.205 69.4875 55.6704 69.5966 56.0692 69.8148C56.4681 70.0296 56.7783 70.3568 56.9999 70.7966C57.2215 71.233 57.3323 71.7852 57.3323 72.4534V77.4443H56.1255V72.5352C56.1255 71.9182 55.9653 71.4375 55.6448 71.0932C55.3243 70.7455 54.8846 70.5716 54.3255 70.5716C53.9403 70.5716 53.5959 70.6551 53.2925 70.8222C52.9925 70.9892 52.7556 71.233 52.5817 71.5534C52.4079 71.8739 52.3209 72.2625 52.3209 72.7193ZM62.9535 69.5898V70.6125H58.883V69.5898H62.9535ZM60.0694 67.708H61.2762V75.1943C61.2762 75.5352 61.3256 75.7909 61.4245 75.9614C61.5268 76.1284 61.6563 76.2409 61.8131 76.2989C61.9733 76.3534 62.1421 76.3807 62.3194 76.3807C62.4523 76.3807 62.5614 76.3739 62.6466 76.3602C62.7319 76.3432 62.8001 76.3296 62.8512 76.3193L63.0966 77.4034C63.0148 77.4341 62.9006 77.4648 62.754 77.4955C62.6074 77.5296 62.4216 77.5466 62.1966 77.5466C61.8557 77.5466 61.5216 77.4733 61.1944 77.3267C60.8705 77.1801 60.6012 76.9568 60.3864 76.6568C60.1751 76.3568 60.0694 75.9784 60.0694 75.5216V67.708ZM64.7688 77.4443V69.5898H65.9347V70.7762H66.0165C66.1597 70.3875 66.4188 70.0722 66.7938 69.8301C67.1688 69.5881 67.5915 69.4671 68.062 69.4671C68.1506 69.4671 68.2614 69.4688 68.3944 69.4722C68.5273 69.4756 68.6279 69.4807 68.6961 69.4875V70.7148C68.6552 70.7046 68.5614 70.6892 68.4148 70.6688C68.2716 70.6449 68.1199 70.633 67.9597 70.633C67.5779 70.633 67.237 70.7131 66.937 70.8733C66.6404 71.0301 66.4052 71.2483 66.2313 71.5279C66.0608 71.804 65.9756 72.1193 65.9756 72.4739V77.4443H64.7688ZM73.1807 77.608C72.4239 77.608 71.7711 77.4409 71.2222 77.1068C70.6768 76.7693 70.2557 76.2989 69.9591 75.6955C69.666 75.0887 69.5194 74.383 69.5194 73.5784C69.5194 72.7739 69.666 72.0648 69.9591 71.4512C70.2557 70.8341 70.6682 70.3534 71.1966 70.0091C71.7285 69.6614 72.3489 69.4875 73.058 69.4875C73.4671 69.4875 73.8711 69.5557 74.2699 69.6921C74.6688 69.8284 75.0319 70.05 75.3591 70.3568C75.6864 70.6602 75.9472 71.0625 76.1415 71.5637C76.3358 72.0648 76.433 72.6818 76.433 73.4148V73.9262H70.3785V72.883H75.2057C75.2057 72.4398 75.1171 72.0443 74.9398 71.6966C74.766 71.3489 74.5171 71.0744 74.1932 70.8733C73.8728 70.6722 73.4944 70.5716 73.058 70.5716C72.5773 70.5716 72.1614 70.6909 71.8103 70.9296C71.4626 71.1648 71.1949 71.4716 71.0074 71.85C70.8199 72.2284 70.7262 72.6341 70.7262 73.0671V73.7625C70.7262 74.3557 70.8285 74.8585 71.033 75.271C71.241 75.6801 71.529 75.9921 71.8972 76.2068C72.2654 76.4182 72.6932 76.5239 73.1807 76.5239C73.4978 76.5239 73.7841 76.4796 74.0398 76.3909C74.2989 76.2989 74.5222 76.1625 74.7097 75.9818C74.8972 75.7977 75.0421 75.5693 75.1444 75.2966L76.3103 75.6239C76.1876 76.0193 75.9813 76.3671 75.6915 76.6671C75.4018 76.9637 75.0438 77.1955 74.6177 77.3625C74.1915 77.5262 73.7126 77.608 73.1807 77.608ZM78.2688 80.3898V69.5898H79.4347V70.8375H79.5779C79.6665 70.7012 79.7893 70.5273 79.9461 70.3159C80.1063 70.1012 80.3347 69.9102 80.6313 69.7432C80.9313 69.5727 81.337 69.4875 81.8483 69.4875C82.5097 69.4875 83.0927 69.6529 83.5972 69.9835C84.1018 70.3142 84.4955 70.783 84.7785 71.3898C85.0614 71.9966 85.2029 72.7125 85.2029 73.5375C85.2029 74.3693 85.0614 75.0904 84.7785 75.7006C84.4955 76.3074 84.1035 76.7779 83.6023 77.1119C83.1012 77.4426 82.5233 77.608 81.8688 77.608C81.3643 77.608 80.9603 77.5244 80.6569 77.3574C80.3535 77.1869 80.1199 76.9943 79.9563 76.7796C79.7927 76.5614 79.6665 76.3807 79.5779 76.2375H79.4756V80.3898H78.2688ZM79.4552 73.5171C79.4552 74.1102 79.5421 74.6335 79.716 75.0869C79.8898 75.5369 80.1438 75.8898 80.4779 76.1455C80.812 76.3977 81.2211 76.5239 81.7052 76.5239C82.2097 76.5239 82.6307 76.3909 82.9682 76.125C83.3091 75.8557 83.5648 75.4943 83.7353 75.0409C83.9091 74.5841 83.9961 74.0762 83.9961 73.5171C83.9961 72.9648 83.9108 72.4671 83.7404 72.0239C83.5733 71.5773 83.3194 71.2244 82.9785 70.9654C82.641 70.7029 82.2165 70.5716 81.7052 70.5716C81.2143 70.5716 80.8018 70.696 80.4677 70.9449C80.1336 71.1904 79.8813 71.5347 79.7108 71.9779C79.5404 72.4176 79.4552 72.9307 79.4552 73.5171ZM87.0438 77.4443V69.5898H88.2097V70.7762H88.2915C88.4347 70.3875 88.6938 70.0722 89.0688 69.8301C89.4438 69.5881 89.8665 69.4671 90.337 69.4671C90.4256 69.4671 90.5364 69.4688 90.6694 69.4722C90.8023 69.4756 90.9029 69.4807 90.9711 69.4875V70.7148C90.9302 70.7046 90.8364 70.6892 90.6898 70.6688C90.5466 70.6449 90.3949 70.633 90.2347 70.633C89.8529 70.633 89.512 70.7131 89.212 70.8733C88.9154 71.0301 88.6802 71.2483 88.5063 71.5279C88.3358 71.804 88.2506 72.1193 88.2506 72.4739V77.4443H87.0438ZM95.4557 77.608C94.6989 77.608 94.0461 77.4409 93.4972 77.1068C92.9518 76.7693 92.5307 76.2989 92.2341 75.6955C91.941 75.0887 91.7944 74.383 91.7944 73.5784C91.7944 72.7739 91.941 72.0648 92.2341 71.4512C92.5307 70.8341 92.9432 70.3534 93.4716 70.0091C94.0035 69.6614 94.6239 69.4875 95.333 69.4875C95.7421 69.4875 96.1461 69.5557 96.5449 69.6921C96.9438 69.8284 97.3069 70.05 97.6341 70.3568C97.9614 70.6602 98.2222 71.0625 98.4165 71.5637C98.6108 72.0648 98.708 72.6818 98.708 73.4148V73.9262H92.6535V72.883H97.4807C97.4807 72.4398 97.3921 72.0443 97.2148 71.6966C97.041 71.3489 96.7921 71.0744 96.4682 70.8733C96.1478 70.6722 95.7694 70.5716 95.333 70.5716C94.8523 70.5716 94.4364 70.6909 94.0853 70.9296C93.7376 71.1648 93.4699 71.4716 93.2824 71.85C93.0949 72.2284 93.0012 72.6341 93.0012 73.0671V73.7625C93.0012 74.3557 93.1035 74.8585 93.308 75.271C93.516 75.6801 93.804 75.9921 94.1722 76.2068C94.5404 76.4182 94.9682 76.5239 95.4557 76.5239C95.7728 76.5239 96.0591 76.4796 96.3148 76.3909C96.5739 76.2989 96.7972 76.1625 96.9847 75.9818C97.1722 75.7977 97.3171 75.5693 97.4194 75.2966L98.5853 75.6239C98.4626 76.0193 98.2563 76.3671 97.9665 76.6671C97.6768 76.9637 97.3188 77.1955 96.8927 77.3625C96.4665 77.5262 95.9876 77.608 95.4557 77.608ZM101.751 72.7193V77.4443H100.544V69.5898H101.71V70.8171H101.812C101.996 70.4182 102.276 70.0977 102.651 69.8557C103.026 69.6102 103.51 69.4875 104.103 69.4875C104.635 69.4875 105.1 69.5966 105.499 69.8148C105.898 70.0296 106.208 70.3568 106.43 70.7966C106.651 71.233 106.762 71.7852 106.762 72.4534V77.4443H105.555V72.5352C105.555 71.9182 105.395 71.4375 105.074 71.0932C104.754 70.7455 104.314 70.5716 103.755 70.5716C103.37 70.5716 103.026 70.6551 102.722 70.8222C102.422 70.9892 102.185 71.233 102.011 71.5534C101.838 71.8739 101.751 72.2625 101.751 72.7193ZM112.26 77.608C111.504 77.608 110.851 77.4409 110.302 77.1068C109.756 76.7693 109.335 76.2989 109.039 75.6955C108.746 75.0887 108.599 74.383 108.599 73.5784C108.599 72.7739 108.746 72.0648 109.039 71.4512C109.335 70.8341 109.748 70.3534 110.276 70.0091C110.808 69.6614 111.429 69.4875 112.138 69.4875C112.547 69.4875 112.951 69.5557 113.35 69.6921C113.748 69.8284 114.112 70.05 114.439 70.3568C114.766 70.6602 115.027 71.0625 115.221 71.5637C115.416 72.0648 115.513 72.6818 115.513 73.4148V73.9262H109.458V72.883H114.285C114.285 72.4398 114.197 72.0443 114.02 71.6966C113.846 71.3489 113.597 71.0744 113.273 70.8733C112.952 70.6722 112.574 70.5716 112.138 70.5716C111.657 70.5716 111.241 70.6909 110.89 70.9296C110.542 71.1648 110.275 71.4716 110.087 71.85C109.9 72.2284 109.806 72.6341 109.806 73.0671V73.7625C109.806 74.3557 109.908 74.8585 110.113 75.271C110.321 75.6801 110.609 75.9921 110.977 76.2068C111.345 76.4182 111.773 76.5239 112.26 76.5239C112.577 76.5239 112.864 76.4796 113.12 76.3909C113.379 76.2989 113.602 76.1625 113.789 75.9818C113.977 75.7977 114.122 75.5693 114.224 75.2966L115.39 75.6239C115.267 76.0193 115.061 76.3671 114.771 76.6671C114.481 76.9637 114.123 77.1955 113.697 77.3625C113.271 77.5262 112.792 77.608 112.26 77.608ZM122.298 74.233V69.5898H123.505V77.4443H122.298V76.1148H122.217C122.033 76.5137 121.746 76.8529 121.358 77.1324C120.969 77.4085 120.478 77.5466 119.885 77.5466C119.394 77.5466 118.958 77.4392 118.576 77.2244C118.194 77.0063 117.894 76.679 117.676 76.2426C117.458 75.8029 117.348 75.2489 117.348 74.5807V69.5898H118.555V74.4989C118.555 75.0716 118.716 75.5284 119.036 75.8693C119.36 76.2102 119.772 76.3807 120.273 76.3807C120.573 76.3807 120.879 76.304 121.189 76.1506C121.502 75.9972 121.765 75.7619 121.976 75.4449C122.191 75.1279 122.298 74.7239 122.298 74.233ZM125.716 77.4443V69.5898H126.882V70.7762H126.963C127.107 70.3875 127.366 70.0722 127.741 69.8301C128.116 69.5881 128.538 69.4671 129.009 69.4671C129.097 69.4671 129.208 69.4688 129.341 69.4722C129.474 69.4756 129.575 69.4807 129.643 69.4875V70.7148C129.602 70.7046 129.508 70.6892 129.362 70.6688C129.219 70.6449 129.067 70.633 128.907 70.633C128.525 70.633 128.184 70.7131 127.884 70.8733C127.587 71.0301 127.352 71.2483 127.178 71.5279C127.008 71.804 126.922 72.1193 126.922 72.4739V77.4443H125.716ZM136.637 71.3489L135.553 71.6557C135.485 71.475 135.384 71.2994 135.251 71.129C135.122 70.9551 134.945 70.8119 134.72 70.6994C134.495 70.5869 134.206 70.5307 133.855 70.5307C133.375 70.5307 132.974 70.6415 132.654 70.8631C132.337 71.0813 132.178 71.3591 132.178 71.6966C132.178 71.9966 132.287 72.2335 132.505 72.4074C132.723 72.5813 133.064 72.7262 133.528 72.8421L134.694 73.1284C135.396 73.2989 135.92 73.5597 136.264 73.9108C136.608 74.2585 136.78 74.7068 136.78 75.2557C136.78 75.7057 136.651 76.108 136.392 76.4625C136.136 76.8171 135.778 77.0966 135.318 77.3012C134.858 77.5057 134.322 77.608 133.712 77.608C132.911 77.608 132.248 77.4341 131.723 77.0864C131.198 76.7387 130.866 76.2307 130.726 75.5625L131.871 75.2762C131.98 75.6989 132.187 76.0159 132.49 76.2273C132.797 76.4387 133.197 76.5443 133.692 76.5443C134.254 76.5443 134.701 76.425 135.031 76.1864C135.366 75.9443 135.533 75.6546 135.533 75.3171C135.533 75.0443 135.437 74.8159 135.246 74.6318C135.055 74.4443 134.762 74.3046 134.367 74.2125L133.058 73.9057C132.338 73.7352 131.81 73.471 131.472 73.1131C131.138 72.7517 130.971 72.3 130.971 71.758C130.971 71.3148 131.096 70.9227 131.345 70.5818C131.597 70.2409 131.939 69.9733 132.372 69.779C132.809 69.5847 133.303 69.4875 133.855 69.4875C134.633 69.4875 135.243 69.658 135.686 69.9989C136.133 70.3398 136.45 70.7898 136.637 71.3489ZM142.811 77.4443V66.9716H144.017V70.8375H144.12C144.208 70.7012 144.331 70.5273 144.488 70.3159C144.648 70.1012 144.876 69.9102 145.173 69.7432C145.473 69.5727 145.879 69.4875 146.39 69.4875C147.051 69.4875 147.634 69.6529 148.139 69.9835C148.644 70.3142 149.037 70.783 149.32 71.3898C149.603 71.9966 149.745 72.7125 149.745 73.5375C149.745 74.3693 149.603 75.0904 149.32 75.7006C149.037 76.3074 148.645 76.7779 148.144 77.1119C147.643 77.4426 147.065 77.608 146.411 77.608C145.906 77.608 145.502 77.5244 145.199 77.3574C144.895 77.1869 144.662 76.9943 144.498 76.7796C144.334 76.5614 144.208 76.3807 144.12 76.2375H143.976V77.4443H142.811ZM143.997 73.5171C143.997 74.1102 144.084 74.6335 144.258 75.0869C144.432 75.5369 144.686 75.8898 145.02 76.1455C145.354 76.3977 145.763 76.5239 146.247 76.5239C146.751 76.5239 147.172 76.3909 147.51 76.125C147.851 75.8557 148.107 75.4943 148.277 75.0409C148.451 74.5841 148.538 74.0762 148.538 73.5171C148.538 72.9648 148.453 72.4671 148.282 72.0239C148.115 71.5773 147.861 71.2244 147.52 70.9654C147.183 70.7029 146.758 70.5716 146.247 70.5716C145.756 70.5716 145.344 70.696 145.009 70.9449C144.675 71.1904 144.423 71.5347 144.253 71.9779C144.082 72.4176 143.997 72.9307 143.997 73.5171ZM152.087 80.3898C151.882 80.3898 151.7 80.3727 151.54 80.3387C151.379 80.308 151.269 80.2773 151.207 80.2466L151.514 79.183C151.807 79.258 152.066 79.2852 152.291 79.2648C152.516 79.2443 152.716 79.1438 152.89 78.9631C153.067 78.7858 153.229 78.4977 153.375 78.0989L153.6 77.4852L150.696 69.5898H152.005L154.173 75.8489H154.255L156.423 69.5898H157.732L154.398 78.5898C154.248 78.9955 154.062 79.3313 153.841 79.5972C153.619 79.8665 153.362 80.0659 153.069 80.1955C152.779 80.325 152.451 80.3898 152.087 80.3898ZM163.539 77.4443V66.9716H169.818V68.0966H164.807V71.6352H169.348V72.7602H164.807V77.4443H163.539ZM174.543 77.608C173.786 77.608 173.134 77.4409 172.585 77.1068C172.039 76.7693 171.618 76.2989 171.322 75.6955C171.028 75.0887 170.882 74.383 170.882 73.5784C170.882 72.7739 171.028 72.0648 171.322 71.4512C171.618 70.8341 172.031 70.3534 172.559 70.0091C173.091 69.6614 173.711 69.4875 174.421 69.4875C174.83 69.4875 175.234 69.5557 175.632 69.6921C176.031 69.8284 176.394 70.05 176.722 70.3568C177.049 70.6602 177.31 71.0625 177.504 71.5637C177.698 72.0648 177.796 72.6818 177.796 73.4148V73.9262H171.741V72.883H176.568C176.568 72.4398 176.48 72.0443 176.302 71.6966C176.128 71.3489 175.88 71.0744 175.556 70.8733C175.235 70.6722 174.857 70.5716 174.421 70.5716C173.94 70.5716 173.524 70.6909 173.173 70.9296C172.825 71.1648 172.557 71.4716 172.37 71.85C172.182 72.2284 172.089 72.6341 172.089 73.0671V73.7625C172.089 74.3557 172.191 74.8585 172.396 75.271C172.603 75.6801 172.892 75.9921 173.26 76.2068C173.628 76.4182 174.056 76.5239 174.543 76.5239C174.86 76.5239 175.147 76.4796 175.402 76.3909C175.661 76.2989 175.885 76.1625 176.072 75.9818C176.26 75.7977 176.405 75.5693 176.507 75.2966L177.673 75.6239C177.55 76.0193 177.344 76.3671 177.054 76.6671C176.764 76.9637 176.406 77.1955 175.98 77.3625C175.554 77.5262 175.075 77.608 174.543 77.608ZM179.631 77.4443V69.5898H180.797V70.8171H180.899C181.063 70.3977 181.327 70.0722 181.692 69.8404C182.057 69.6051 182.495 69.4875 183.006 69.4875C183.524 69.4875 183.956 69.6051 184.3 69.8404C184.648 70.0722 184.919 70.3977 185.113 70.8171H185.195C185.396 70.4114 185.698 70.0892 186.1 69.8506C186.502 69.6085 186.985 69.4875 187.547 69.4875C188.249 69.4875 188.824 69.7074 189.27 70.1472C189.717 70.5835 189.94 71.2637 189.94 72.1875V77.4443H188.734V72.1875C188.734 71.608 188.575 71.1938 188.258 70.9449C187.941 70.696 187.568 70.5716 187.138 70.5716C186.586 70.5716 186.158 70.7387 185.855 71.0727C185.551 71.4034 185.399 71.8227 185.399 72.3307V77.4443H184.172V72.0648C184.172 71.6182 184.027 71.2585 183.738 70.9858C183.448 70.7097 183.074 70.5716 182.618 70.5716C182.304 70.5716 182.011 70.6551 181.738 70.8222C181.469 70.9892 181.251 71.221 181.084 71.5176C180.92 71.8108 180.838 72.15 180.838 72.5352V77.4443H179.631ZM192.147 77.4443V69.5898H193.354V77.4443H192.147ZM192.761 68.2807C192.525 68.2807 192.322 68.2006 192.152 68.0404C191.985 67.8801 191.901 67.6875 191.901 67.4625C191.901 67.2375 191.985 67.0449 192.152 66.8847C192.322 66.7244 192.525 66.6443 192.761 66.6443C192.996 66.6443 193.197 66.7244 193.364 66.8847C193.534 67.0449 193.62 67.2375 193.62 67.4625C193.62 67.6875 193.534 67.8801 193.364 68.0404C193.197 68.2006 192.996 68.2807 192.761 68.2807ZM196.771 72.7193V77.4443H195.564V69.5898H196.73V70.8171H196.832C197.016 70.4182 197.296 70.0977 197.671 69.8557C198.046 69.6102 198.53 69.4875 199.123 69.4875C199.655 69.4875 200.12 69.5966 200.519 69.8148C200.918 70.0296 201.228 70.3568 201.45 70.7966C201.671 71.233 201.782 71.7852 201.782 72.4534V77.4443H200.575V72.5352C200.575 71.9182 200.415 71.4375 200.095 71.0932C199.774 70.7455 199.335 70.5716 198.775 70.5716C198.39 70.5716 198.046 70.6551 197.743 70.8222C197.443 70.9892 197.206 71.233 197.032 71.5534C196.858 71.8739 196.771 72.2625 196.771 72.7193ZM206.299 77.6284C205.801 77.6284 205.349 77.5347 204.944 77.3472C204.538 77.1563 204.216 76.8818 203.977 76.5239C203.739 76.1625 203.619 75.7262 203.619 75.2148C203.619 74.7648 203.708 74.4 203.885 74.1205C204.063 73.8375 204.299 73.6159 204.596 73.4557C204.893 73.2955 205.22 73.1762 205.578 73.0977C205.939 73.0159 206.302 72.9512 206.667 72.9034C207.144 72.8421 207.531 72.796 207.828 72.7654C208.128 72.7313 208.346 72.675 208.482 72.5966C208.622 72.5182 208.692 72.3818 208.692 72.1875V72.1466C208.692 71.6421 208.554 71.25 208.278 70.9705C208.005 70.6909 207.591 70.5512 207.035 70.5512C206.459 70.5512 206.007 70.6773 205.68 70.9296C205.353 71.1818 205.123 71.4512 204.99 71.7375L203.844 71.3284C204.049 70.8512 204.322 70.4796 204.663 70.2137C205.007 69.9443 205.382 69.7568 205.788 69.6512C206.197 69.5421 206.599 69.4875 206.994 69.4875C207.247 69.4875 207.536 69.5182 207.864 69.5796C208.194 69.6375 208.513 69.7585 208.82 69.9426C209.13 70.1267 209.388 70.4046 209.592 70.7762C209.797 71.1477 209.899 71.6455 209.899 72.2693V77.4443H208.692V76.3807H208.631C208.549 76.5512 208.413 76.7335 208.222 76.9279C208.031 77.1222 207.777 77.2875 207.46 77.4239C207.143 77.5602 206.756 77.6284 206.299 77.6284ZM206.483 76.5443C206.96 76.5443 207.363 76.4506 207.69 76.2631C208.02 76.0756 208.269 75.8335 208.436 75.5369C208.607 75.2404 208.692 74.9284 208.692 74.6012V73.4966C208.641 73.558 208.528 73.6142 208.355 73.6654C208.184 73.7131 207.986 73.7557 207.761 73.7932C207.54 73.8273 207.323 73.858 207.112 73.8852C206.904 73.9091 206.735 73.9296 206.606 73.9466C206.292 73.9875 205.999 74.054 205.726 74.146C205.457 74.2347 205.239 74.3693 205.072 74.55C204.908 74.7273 204.826 74.9693 204.826 75.2762C204.826 75.6955 204.981 76.0125 205.292 76.2273C205.605 76.4387 206.002 76.5443 206.483 76.5443Z" fill="#F6F9FC"/>
</g>
<defs>
<linearGradient id="paint0_linear_1668_1186" x1="220.103" y1="88.1152" x2="220.103" y2="0.444332" gradientUnits="userSpaceOnUse">
<stop stop-color="#EED575"/>
<stop offset="1" stop-color="#BC7A2E"/>
</linearGradient>
<linearGradient id="paint1_linear_1668_1186" x1="32.1321" y1="88.1152" x2="32.1321" y2="0.444332" gradientUnits="userSpaceOnUse">
<stop stop-color="#EED575"/>
<stop offset="1" stop-color="#BC7A2E"/>
</linearGradient>
<clipPath id="clip0_1668_1186">
<rect width="251" height="100" fill="white" transform="translate(0.200195 0.444336)"/>
</clipPath>
<clipPath id="clip1_1668_1186">
<rect width="56.8345" height="100" fill="white" transform="translate(194.7 0.444336)"/>
</clipPath>
<clipPath id="clip2_1668_1186">
<rect width="56.8345" height="100" fill="white" transform="matrix(-1 0 0 1 57.5352 0.444336)"/>
</clipPath>
</defs>
</svg>
