<svg width="226" height="101" viewBox="0 0 226 101" fill="none" xmlns="http://www.w3.org/2000/svg">
<g clip-path="url(#clip0_1668_1202)">
<g clip-path="url(#clip1_1668_1202)">
<path fill-rule="evenodd" clip-rule="evenodd" d="M169.207 95.2167C181.799 95.2167 193.202 89.9435 201.448 81.4202C209.701 72.8968 214.805 61.108 214.805 48.0995C214.805 35.0909 209.701 23.3021 201.448 14.7788C199.653 12.9301 197.715 11.233 195.648 9.71019C190.211 10.0739 185.146 3.67943 185.456 0.762542C192.172 3.55821 195.489 2.11113 196.132 9.31622C198.177 10.8315 200.1 12.521 201.872 14.3545C210.231 22.9915 215.403 34.9242 215.403 48.0995C215.403 61.2747 210.231 73.2074 201.872 81.8444C194.08 89.8905 183.533 95.0727 171.812 95.7546L169.199 95.2242L169.207 95.2167ZM200.782 10.9754C203.432 7.49032 200.933 1.34592 198.79 0.444336C198.162 6.10386 195.89 7.76307 200.782 10.9754ZM205.166 16.8395C208.52 14.0211 207.43 7.48275 205.529 6.12658C203.674 11.5058 201.1 12.6271 205.166 16.8395ZM201.63 17.2714C200.077 11.7785 197.874 13.3999 192.43 12.324C192.642 14.5818 197.609 18.7184 201.63 17.2714ZM206.241 24.5295C205.226 18.9079 202.871 20.3095 197.563 18.7184C197.563 20.9913 202.107 25.575 206.241 24.5295ZM209.928 23.3627C213.427 20.4231 212.283 13.6044 210.315 12.1952C208.376 17.8017 205.696 18.9685 209.928 23.3627ZM212.881 30.0981C217.19 28.5828 218.53 21.802 217.182 19.7867C213.389 24.3477 210.466 24.4916 212.881 30.0981ZM211.147 33.856C211.352 27.5221 208.475 28.4919 203.091 25.5296C202.553 27.9919 206.423 34.0302 211.147 33.856ZM215.857 38.1214C220.741 36.4016 222.271 28.7116 220.741 26.4236C216.44 31.5982 213.124 31.7573 215.857 38.1214ZM212.942 42.4324C213.843 36.1667 210.882 36.8107 205.855 33.265C205.052 35.6515 208.225 42.0763 212.942 42.4324ZM216.97 46.2054C222.301 45.3796 225.322 37.7881 224.186 35.1515C218.803 39.6291 215.373 39.167 216.97 46.2054ZM216.675 54.403C216.198 46.8721 219.658 47.9176 225.966 44.1901C226.7 47.0994 222.316 54.4333 216.675 54.403ZM213.464 53.6075C215.781 46.069 212.011 46.2963 206.513 40.9626C205.06 43.7431 207.733 52.2589 213.464 53.6075ZM214.358 63.5173C220.264 64.5553 226.162 57.6456 225.913 54.4636C218.636 57.2517 215.191 55.5394 214.358 63.5173ZM211.026 70.2754C215.963 73.6772 224.201 69.8587 225.299 66.866C217.523 66.366 215.108 63.3733 211.026 70.2754ZM210.443 64.0098C213.835 56.8274 210.042 56.5092 205.317 50.4102C203.47 52.9786 204.916 61.8505 210.443 64.0098ZM206.135 76.9653C210.246 81.3368 219.105 79.3367 220.809 76.6395C213.313 74.5106 211.587 71.0785 206.135 76.9653ZM204.545 74.2908C209.845 68.8662 206.521 67.3964 204.151 60.411C201.69 62.1536 200.221 70.6163 204.545 74.2908ZM200.857 84.1477C204.969 88.5192 213.828 86.519 215.532 83.8219C208.035 81.6929 206.309 78.2608 200.857 84.1477ZM195.549 83.981C202.924 80.5792 200.161 77.8366 200.464 69.942C197.336 70.7375 192.634 78.6472 195.549 83.981ZM193.702 89.6708C196.806 95.2849 206.506 95.5576 208.989 93.2165C201.789 89.0344 200.903 85.0113 193.702 89.6708ZM185.524 93.5044C187.425 99.4897 196.685 101.611 199.509 99.8382C193.399 94.4363 193.323 90.4133 185.524 93.5044ZM183.457 90.8679C192.309 89.6708 190.287 85.8902 193.142 77.6926C189.59 77.5259 182.102 84.3219 183.457 90.8679Z" fill="url(#paint0_linear_1668_1202)"/>
</g>
<g clip-path="url(#clip2_1668_1202)">
<path fill-rule="evenodd" clip-rule="evenodd" d="M58.8352 95.2167C46.2432 95.2167 34.8399 89.9435 26.5941 81.4202C18.3408 72.8968 13.2373 61.108 13.2373 48.0995C13.2373 35.0909 18.3408 23.3021 26.5941 14.7788C28.3887 12.9301 30.3271 11.233 32.3942 9.71019C37.8308 10.0739 42.8964 3.67943 42.5859 0.762542C35.8697 3.55821 32.5532 2.11113 31.9096 9.31622C29.8652 10.8315 27.9419 12.521 26.1701 14.3545C17.8108 22.9915 12.6392 34.9242 12.6392 48.0995C12.6392 61.2747 17.8108 73.2074 26.1701 81.8444C33.9616 89.8905 44.5092 95.0727 56.2305 95.7546L58.8428 95.2242L58.8352 95.2167ZM27.2605 10.9754C24.6103 7.49032 27.109 1.34592 29.2519 0.444336C29.8803 6.10386 32.1519 7.76307 27.2605 10.9754ZM22.8763 16.8395C19.522 14.0211 20.6123 7.48275 22.5129 6.12658C24.368 11.5058 26.9424 12.6271 22.8763 16.8395ZM26.4124 17.2714C27.9646 11.7785 30.1681 13.3999 35.6122 12.324C35.4002 14.5818 30.4331 18.7184 26.4124 17.2714ZM21.8011 24.5295C22.8158 18.9079 25.1706 20.3095 30.4785 18.7184C30.4785 20.9913 25.9354 25.575 21.8011 24.5295ZM18.1136 23.3627C14.6154 20.4231 15.7588 13.6044 17.7275 12.1952C19.6659 17.8017 22.3463 18.9685 18.1136 23.3627ZM15.1606 30.0981C10.8522 28.5828 9.51197 21.802 10.8598 19.7867C14.6533 24.3477 17.576 24.4916 15.1606 30.0981ZM16.8946 33.856C16.6901 27.5221 19.5674 28.4919 24.951 25.5296C25.4886 27.9919 21.6194 34.0302 16.8946 33.856ZM12.1848 38.1214C7.30098 36.4016 5.77146 28.7116 7.30098 26.4236C11.6018 31.5982 14.9183 31.7573 12.1848 38.1214ZM15.1 42.4324C14.199 36.1667 17.1596 36.8107 22.1873 33.265C22.9899 35.6515 19.8173 42.0763 15.1 42.4324ZM11.0718 46.2054C5.74117 45.3796 2.71999 37.7881 3.85577 35.1515C9.23938 39.6291 12.6694 39.167 11.0718 46.2054ZM11.3671 54.403C11.8441 46.8721 8.38376 47.9176 2.07638 44.1901C1.34191 47.0994 5.72603 54.4333 11.3671 54.403ZM14.5776 53.6075C12.2606 46.069 16.0314 46.2963 21.5285 40.9626C22.9823 43.7431 20.3095 52.2589 14.5776 53.6075ZM13.6841 63.5173C7.77801 64.5553 1.87951 57.6456 2.12938 54.4636C9.40596 57.2517 12.8512 55.5394 13.6841 63.5173ZM17.0157 70.2754C12.0788 73.6772 3.84063 69.8587 2.74271 66.866C10.519 66.366 12.9345 63.3733 17.0157 70.2754ZM17.5987 64.0098C14.2065 56.8274 18 56.5092 22.7249 50.4102C24.5724 52.9786 23.1262 61.8505 17.5987 64.0098ZM21.9071 76.9653C17.7956 81.3368 8.9365 79.3367 7.23283 76.6395C14.729 74.5106 16.4554 71.0785 21.9071 76.9653ZM23.4972 74.2908C18.1969 68.8662 21.521 67.3964 23.891 60.411C26.3518 62.1536 27.8208 70.6163 23.4972 74.2908ZM27.1847 84.1477C23.0732 88.5192 14.2141 86.519 12.5104 83.8219C20.0066 81.6929 21.733 78.2608 27.1847 84.1477ZM32.4926 83.981C25.1176 80.5792 27.8814 77.8366 27.5785 69.942C30.7057 70.7375 35.4078 78.6472 32.4926 83.981ZM34.3402 89.6708C31.2357 95.2849 21.5361 95.5576 19.0525 93.2165C26.2534 89.0344 27.1393 85.0113 34.3402 89.6708ZM42.5178 93.5044C40.6173 99.4897 31.3568 101.611 28.5325 99.8382C34.643 94.4363 34.7188 90.4133 42.5178 93.5044ZM44.5849 90.8679C35.7334 89.6708 37.7551 85.8902 34.9005 77.6926C38.4517 77.5259 45.9403 84.3219 44.5849 90.8679Z" fill="url(#paint1_linear_1668_1202)"/>
</g>
<path d="M62.1017 24.0966V22.9716H69.9562V24.0966H66.6631V33.4443H65.3949V24.0966H62.1017ZM73.8017 33.608C73.0926 33.608 72.4705 33.4392 71.9352 33.1017C71.4034 32.7642 70.9875 32.2921 70.6875 31.6852C70.3909 31.0784 70.2426 30.3693 70.2426 29.558C70.2426 28.7398 70.3909 28.0256 70.6875 27.4154C70.9875 26.8051 71.4034 26.3313 71.9352 25.9938C72.4705 25.6563 73.0926 25.4875 73.8017 25.4875C74.5108 25.4875 75.1312 25.6563 75.6631 25.9938C76.1983 26.3313 76.6142 26.8051 76.9108 27.4154C77.2108 28.0256 77.3608 28.7398 77.3608 29.558C77.3608 30.3693 77.2108 31.0784 76.9108 31.6852C76.6142 32.2921 76.1983 32.7642 75.6631 33.1017C75.1312 33.4392 74.5108 33.608 73.8017 33.608ZM73.8017 32.5239C74.3403 32.5239 74.7835 32.3858 75.1312 32.1097C75.479 31.8335 75.7364 31.4705 75.9034 31.0205C76.0705 30.5705 76.154 30.083 76.154 29.558C76.154 29.033 76.0705 28.5438 75.9034 28.0904C75.7364 27.6369 75.479 27.2705 75.1312 26.9909C74.7835 26.7114 74.3403 26.5716 73.8017 26.5716C73.2631 26.5716 72.8199 26.7114 72.4722 26.9909C72.1244 27.2705 71.867 27.6369 71.7 28.0904C71.533 28.5438 71.4494 29.033 71.4494 29.558C71.4494 30.083 71.533 30.5705 71.7 31.0205C71.867 31.4705 72.1244 31.8335 72.4722 32.1097C72.8199 32.3858 73.2631 32.5239 73.8017 32.5239ZM79.203 36.3898V25.5898H80.3689V26.8375H80.5121C80.6007 26.7012 80.7234 26.5273 80.8803 26.3159C81.0405 26.1012 81.2689 25.9102 81.5655 25.7432C81.8655 25.5727 82.2712 25.4875 82.7825 25.4875C83.4439 25.4875 84.0268 25.6529 84.5314 25.9835C85.0359 26.3142 85.4297 26.783 85.7126 27.3898C85.9956 27.9966 86.1371 28.7125 86.1371 29.5375C86.1371 30.3693 85.9956 31.0904 85.7126 31.7006C85.4297 32.3074 85.0376 32.7779 84.5365 33.1119C84.0354 33.4426 83.4575 33.608 82.803 33.608C82.2984 33.608 81.8945 33.5244 81.591 33.3574C81.2876 33.1869 81.0541 32.9943 80.8905 32.7796C80.7268 32.5614 80.6007 32.3807 80.5121 32.2375H80.4098V36.3898H79.203ZM80.3893 29.5171C80.3893 30.1102 80.4763 30.6335 80.6501 31.0869C80.824 31.5369 81.078 31.8898 81.4121 32.1455C81.7462 32.3977 82.1553 32.5239 82.6393 32.5239C83.1439 32.5239 83.5649 32.3909 83.9024 32.125C84.2433 31.8557 84.499 31.4943 84.6695 31.0409C84.8433 30.5841 84.9303 30.0762 84.9303 29.5171C84.9303 28.9648 84.845 28.4671 84.6746 28.0239C84.5075 27.5773 84.2535 27.2244 83.9126 26.9654C83.5751 26.7029 83.1507 26.5716 82.6393 26.5716C82.1484 26.5716 81.7359 26.696 81.4018 26.9449C81.0678 27.1904 80.8155 27.5347 80.645 27.9779C80.4746 28.4176 80.3893 28.9307 80.3893 29.5171ZM95.5462 33.5875C94.8712 33.5875 94.2695 33.4716 93.741 33.2398C93.216 33.008 92.7984 32.6858 92.4882 32.2733C92.1814 31.8574 92.0143 31.375 91.9871 30.8262H93.2757C93.303 31.1637 93.4189 31.4551 93.6234 31.7006C93.828 31.9426 94.0956 32.1301 94.4263 32.2631C94.757 32.396 95.1234 32.4625 95.5257 32.4625C95.9757 32.4625 96.3746 32.3841 96.7223 32.2273C97.07 32.0705 97.3428 31.8523 97.5405 31.5727C97.7382 31.2932 97.8371 30.9693 97.8371 30.6012C97.8371 30.2159 97.7416 29.8767 97.5507 29.5835C97.3598 29.2869 97.0803 29.0551 96.7121 28.8881C96.3439 28.721 95.8939 28.6375 95.3621 28.6375H94.5234V27.5125H95.3621C95.778 27.5125 96.1428 27.4375 96.4564 27.2875C96.7734 27.1375 97.0206 26.9262 97.1979 26.6534C97.3785 26.3807 97.4689 26.0602 97.4689 25.6921C97.4689 25.3375 97.3905 25.029 97.2337 24.7665C97.0768 24.504 96.8553 24.2994 96.5689 24.1529C96.2859 24.0063 95.9518 23.933 95.5666 23.933C95.2053 23.933 94.8643 23.9994 94.5439 24.1324C94.2268 24.2619 93.9678 24.4512 93.7666 24.7C93.5655 24.9455 93.4564 25.2421 93.4393 25.5898H92.2121C92.2325 25.0409 92.3979 24.5602 92.7081 24.1477C93.0183 23.7318 93.424 23.408 93.9251 23.1762C94.4297 22.9443 94.9837 22.8284 95.5871 22.8284C96.2348 22.8284 96.7905 22.9597 97.2541 23.2222C97.7178 23.4813 98.074 23.8239 98.3229 24.25C98.5717 24.6762 98.6962 25.1364 98.6962 25.6307C98.6962 26.2205 98.541 26.7233 98.2308 27.1392C97.924 27.5551 97.5064 27.8432 96.978 28.0034V28.0852C97.6393 28.1943 98.1558 28.4756 98.5274 28.929C98.899 29.379 99.0848 29.9364 99.0848 30.6012C99.0848 31.1705 98.9297 31.6818 98.6195 32.1352C98.3126 32.5852 97.8933 32.9398 97.3615 33.1989C96.8297 33.458 96.2246 33.5875 95.5462 33.5875ZM104.592 33.5875C103.822 33.5875 103.165 33.3779 102.623 32.9585C102.081 32.5358 101.667 31.9239 101.381 31.1227C101.094 30.3182 100.951 29.3466 100.951 28.208C100.951 27.0762 101.094 26.1097 101.381 25.3085C101.671 24.504 102.087 23.8904 102.629 23.4676C103.174 23.0415 103.829 22.8284 104.592 22.8284C105.356 22.8284 106.009 23.0415 106.551 23.4676C107.096 23.8904 107.512 24.504 107.798 25.3085C108.088 26.1097 108.233 27.0762 108.233 28.208C108.233 29.3466 108.09 30.3182 107.804 31.1227C107.517 31.9239 107.103 32.5358 106.561 32.9585C106.019 33.3779 105.363 33.5875 104.592 33.5875ZM104.592 32.4625C105.356 32.4625 105.949 32.0943 106.372 31.358C106.794 30.6216 107.006 29.5716 107.006 28.208C107.006 27.3012 106.909 26.529 106.714 25.8915C106.523 25.254 106.247 24.7682 105.886 24.4341C105.528 24.1 105.097 23.933 104.592 23.933C103.835 23.933 103.244 24.3063 102.818 25.0529C102.392 25.796 102.179 26.8477 102.179 28.208C102.179 29.1148 102.274 29.8852 102.465 30.5193C102.656 31.1534 102.93 31.6358 103.288 31.9665C103.65 32.2972 104.084 32.4625 104.592 32.4625ZM116.313 33.4443L113.449 22.9716H114.738L116.926 31.5012H117.029L119.258 22.9716H120.69L122.919 31.5012H123.022L125.21 22.9716H126.499L123.635 33.4443H122.326L120.015 25.0989H119.933L117.622 33.4443H116.313ZM130.375 33.608C129.666 33.608 129.044 33.4392 128.509 33.1017C127.977 32.7642 127.561 32.2921 127.261 31.6852C126.964 31.0784 126.816 30.3693 126.816 29.558C126.816 28.7398 126.964 28.0256 127.261 27.4154C127.561 26.8051 127.977 26.3313 128.509 25.9938C129.044 25.6563 129.666 25.4875 130.375 25.4875C131.084 25.4875 131.705 25.6563 132.236 25.9938C132.772 26.3313 133.188 26.8051 133.484 27.4154C133.784 28.0256 133.934 28.7398 133.934 29.558C133.934 30.3693 133.784 31.0784 133.484 31.6852C133.188 32.2921 132.772 32.7642 132.236 33.1017C131.705 33.4392 131.084 33.608 130.375 33.608ZM130.375 32.5239C130.914 32.5239 131.357 32.3858 131.705 32.1097C132.052 31.8335 132.31 31.4705 132.477 31.0205C132.644 30.5705 132.727 30.083 132.727 29.558C132.727 29.033 132.644 28.5438 132.477 28.0904C132.31 27.6369 132.052 27.2705 131.705 26.9909C131.357 26.7114 130.914 26.5716 130.375 26.5716C129.836 26.5716 129.393 26.7114 129.046 26.9909C128.698 27.2705 128.44 27.6369 128.273 28.0904C128.106 28.5438 128.023 29.033 128.023 29.558C128.023 30.083 128.106 30.5705 128.273 31.0205C128.44 31.4705 128.698 31.8335 129.046 32.1097C129.393 32.3858 129.836 32.5239 130.375 32.5239ZM135.776 33.4443V25.5898H136.942V26.8171H137.045C137.208 26.3977 137.472 26.0722 137.837 25.8404C138.202 25.6051 138.64 25.4875 139.151 25.4875C139.67 25.4875 140.101 25.6051 140.445 25.8404C140.793 26.0722 141.064 26.3977 141.258 26.8171H141.34C141.541 26.4114 141.843 26.0892 142.245 25.8506C142.647 25.6085 143.13 25.4875 143.692 25.4875C144.395 25.4875 144.969 25.7074 145.416 26.1472C145.862 26.5835 146.086 27.2637 146.086 28.1875V33.4443H144.879V28.1875C144.879 27.608 144.72 27.1938 144.403 26.9449C144.086 26.696 143.713 26.5716 143.283 26.5716C142.731 26.5716 142.303 26.7387 142 27.0727C141.696 27.4034 141.545 27.8227 141.545 28.3307V33.4443H140.317V28.0648C140.317 27.6182 140.172 27.2585 139.883 26.9858C139.593 26.7097 139.22 26.5716 138.763 26.5716C138.449 26.5716 138.156 26.6551 137.883 26.8222C137.614 26.9892 137.396 27.221 137.229 27.5176C137.065 27.8108 136.983 28.15 136.983 28.5352V33.4443H135.776ZM151.585 33.608C150.828 33.608 150.176 33.4409 149.627 33.1068C149.081 32.7693 148.66 32.2989 148.364 31.6955C148.07 31.0887 147.924 30.383 147.924 29.5784C147.924 28.7739 148.07 28.0648 148.364 27.4512C148.66 26.8341 149.073 26.3534 149.601 26.0091C150.133 25.6614 150.753 25.4875 151.462 25.4875C151.872 25.4875 152.276 25.5557 152.674 25.6921C153.073 25.8284 153.436 26.05 153.764 26.3568C154.091 26.6602 154.352 27.0625 154.546 27.5637C154.74 28.0648 154.837 28.6818 154.837 29.4148V29.9262H148.783V28.883H153.61C153.61 28.4398 153.522 28.0443 153.344 27.6966C153.17 27.3489 152.922 27.0744 152.598 26.8733C152.277 26.6722 151.899 26.5716 151.462 26.5716C150.982 26.5716 150.566 26.6909 150.215 26.9296C149.867 27.1648 149.599 27.4716 149.412 27.85C149.224 28.2284 149.131 28.6341 149.131 29.0671V29.7625C149.131 30.3557 149.233 30.8585 149.437 31.271C149.645 31.6801 149.934 31.9921 150.302 32.2068C150.67 32.4182 151.098 32.5239 151.585 32.5239C151.902 32.5239 152.189 32.4796 152.444 32.3909C152.703 32.2989 152.927 32.1625 153.114 31.9818C153.302 31.7977 153.447 31.5693 153.549 31.2966L154.715 31.6239C154.592 32.0193 154.386 32.3671 154.096 32.6671C153.806 32.9637 153.448 33.1955 153.022 33.3625C152.596 33.5262 152.117 33.608 151.585 33.608ZM157.88 28.7193V33.4443H156.673V25.5898H157.839V26.8171H157.941C158.126 26.4182 158.405 26.0977 158.78 25.8557C159.155 25.6102 159.639 25.4875 160.232 25.4875C160.764 25.4875 161.23 25.5966 161.628 25.8148C162.027 26.0296 162.337 26.3568 162.559 26.7966C162.781 27.233 162.891 27.7852 162.891 28.4534V33.4443H161.685V28.5352C161.685 27.9182 161.524 27.4375 161.204 27.0932C160.884 26.7455 160.444 26.5716 159.885 26.5716C159.499 26.5716 159.155 26.6551 158.852 26.8222C158.552 26.9892 158.315 27.233 158.141 27.5534C157.967 27.8739 157.88 28.2625 157.88 28.7193ZM33.6283 55.4443V44.9716H39.9488V46.0966H34.8965V49.6352H39.6215V50.7602H34.8965V54.3193H40.0306V55.4443H33.6283ZM43.2778 50.7193V55.4443H42.071V47.5898H43.2369V48.8171H43.3391C43.5232 48.4182 43.8028 48.0977 44.1778 47.8557C44.5528 47.6102 45.0369 47.4875 45.63 47.4875C46.1619 47.4875 46.6272 47.5966 47.0261 47.8148C47.4249 48.0296 47.7352 48.3568 47.9568 48.7966C48.1783 49.233 48.2891 49.7852 48.2891 50.4534V55.4443H47.0823V50.5352C47.0823 49.9182 46.9221 49.4375 46.6016 49.0932C46.2812 48.7455 45.8414 48.5716 45.2823 48.5716C44.8971 48.5716 44.5528 48.6551 44.2494 48.8222C43.9494 48.9892 43.7124 49.233 43.5386 49.5534C43.3647 49.8739 43.2778 50.2625 43.2778 50.7193ZM53.9103 47.5898V48.6125H49.8398V47.5898H53.9103ZM51.0262 45.708H52.233V53.1943C52.233 53.5352 52.2825 53.7909 52.3813 53.9614C52.4836 54.1284 52.6131 54.2409 52.77 54.2989C52.9302 54.3534 53.0989 54.3807 53.2762 54.3807C53.4092 54.3807 53.5183 54.3739 53.6035 54.3602C53.6887 54.3432 53.7569 54.3296 53.808 54.3193L54.0535 55.4034C53.9717 55.4341 53.8575 55.4648 53.7109 55.4955C53.5643 55.5296 53.3785 55.5466 53.1535 55.5466C52.8126 55.5466 52.4785 55.4733 52.1512 55.3267C51.8273 55.1801 51.558 54.9568 51.3433 54.6568C51.1319 54.3568 51.0262 53.9784 51.0262 53.5216V45.708ZM55.7256 55.4443V47.5898H56.8916V48.7762H56.9734C57.1166 48.3875 57.3756 48.0722 57.7506 47.8301C58.1256 47.5881 58.5484 47.4671 59.0188 47.4671C59.1075 47.4671 59.2183 47.4688 59.3512 47.4722C59.4842 47.4756 59.5847 47.4807 59.6529 47.4875V48.7148C59.612 48.7046 59.5183 48.6892 59.3717 48.6688C59.2285 48.6449 59.0768 48.633 58.9166 48.633C58.5347 48.633 58.1938 48.7131 57.8938 48.8733C57.5972 49.0301 57.362 49.2483 57.1881 49.5279C57.0177 49.804 56.9325 50.1193 56.9325 50.4739V55.4443H55.7256ZM64.1376 55.608C63.3808 55.608 62.7279 55.4409 62.1791 55.1068C61.6336 54.7693 61.2126 54.2989 60.916 53.6955C60.6228 53.0887 60.4762 52.383 60.4762 51.5784C60.4762 50.7739 60.6228 50.0648 60.916 49.4512C61.2126 48.8341 61.6251 48.3534 62.1535 48.0091C62.6853 47.6614 63.3058 47.4875 64.0148 47.4875C64.4239 47.4875 64.8279 47.5557 65.2268 47.6921C65.6256 47.8284 65.9887 48.05 66.316 48.3568C66.6433 48.6602 66.9041 49.0625 67.0984 49.5637C67.2927 50.0648 67.3898 50.6818 67.3898 51.4148V51.9262H61.3353V50.883H66.1626C66.1626 50.4398 66.0739 50.0443 65.8967 49.6966C65.7228 49.3489 65.4739 49.0744 65.1501 48.8733C64.8296 48.6722 64.4512 48.5716 64.0148 48.5716C63.5342 48.5716 63.1183 48.6909 62.7671 48.9296C62.4194 49.1648 62.1518 49.4716 61.9643 49.85C61.7768 50.2284 61.683 50.6341 61.683 51.0671V51.7625C61.683 52.3557 61.7853 52.8585 61.9898 53.271C62.1978 53.6801 62.4859 53.9921 62.8541 54.2068C63.2222 54.4182 63.6501 54.5239 64.1376 54.5239C64.4546 54.5239 64.741 54.4796 64.9967 54.3909C65.2558 54.2989 65.4791 54.1625 65.6666 53.9818C65.8541 53.7977 65.9989 53.5693 66.1012 53.2966L67.2671 53.6239C67.1444 54.0193 66.9381 54.3671 66.6484 54.6671C66.3586 54.9637 66.0006 55.1955 65.5745 55.3625C65.1484 55.5262 64.6694 55.608 64.1376 55.608ZM69.2256 58.3898V47.5898H70.3916V48.8375H70.5347C70.6234 48.7012 70.7461 48.5273 70.9029 48.3159C71.0631 48.1012 71.2916 47.9102 71.5881 47.7432C71.8881 47.5727 72.2938 47.4875 72.8052 47.4875C73.4666 47.4875 74.0495 47.6529 74.5541 47.9835C75.0586 48.3142 75.4523 48.783 75.7353 49.3898C76.0183 49.9966 76.1597 50.7125 76.1597 51.5375C76.1597 52.3693 76.0183 53.0904 75.7353 53.7006C75.4523 54.3074 75.0603 54.7779 74.5592 55.1119C74.058 55.4426 73.4802 55.608 72.8256 55.608C72.3211 55.608 71.9171 55.5244 71.6137 55.3574C71.3103 55.1869 71.0768 54.9943 70.9131 54.7796C70.7495 54.5614 70.6234 54.3807 70.5347 54.2375H70.4325V58.3898H69.2256ZM70.412 51.5171C70.412 52.1102 70.4989 52.6335 70.6728 53.0869C70.8467 53.5369 71.1006 53.8898 71.4347 54.1455C71.7688 54.3977 72.1779 54.5239 72.662 54.5239C73.1666 54.5239 73.5876 54.3909 73.9251 54.125C74.266 53.8557 74.5217 53.4943 74.6921 53.0409C74.866 52.5841 74.9529 52.0762 74.9529 51.5171C74.9529 50.9648 74.8677 50.4671 74.6972 50.0239C74.5302 49.5773 74.2762 49.2244 73.9353 48.9654C73.5978 48.7029 73.1734 48.5716 72.662 48.5716C72.1711 48.5716 71.7586 48.696 71.4245 48.9449C71.0904 49.1904 70.8381 49.5347 70.6677 49.9779C70.4972 50.4176 70.412 50.9307 70.412 51.5171ZM78.0006 55.4443V47.5898H79.1665V48.7762H79.2484C79.3915 48.3875 79.6506 48.0722 80.0256 47.8301C80.4006 47.5881 80.8234 47.4671 81.2938 47.4671C81.3825 47.4671 81.4933 47.4688 81.6262 47.4722C81.7592 47.4756 81.8597 47.4807 81.9279 47.4875V48.7148C81.887 48.7046 81.7933 48.6892 81.6467 48.6688C81.5035 48.6449 81.3518 48.633 81.1915 48.633C80.8097 48.633 80.4688 48.7131 80.1688 48.8733C79.8722 49.0301 79.637 49.2483 79.4631 49.5279C79.2927 49.804 79.2075 50.1193 79.2075 50.4739V55.4443H78.0006ZM86.4126 55.608C85.6558 55.608 85.0029 55.4409 84.4541 55.1068C83.9086 54.7693 83.4876 54.2989 83.191 53.6955C82.8978 53.0887 82.7512 52.383 82.7512 51.5784C82.7512 50.7739 82.8978 50.0648 83.191 49.4512C83.4876 48.8341 83.9001 48.3534 84.4285 48.0091C84.9603 47.6614 85.5808 47.4875 86.2898 47.4875C86.6989 47.4875 87.1029 47.5557 87.5018 47.6921C87.9006 47.8284 88.2637 48.05 88.591 48.3568C88.9183 48.6602 89.1791 49.0625 89.3734 49.5637C89.5677 50.0648 89.6648 50.6818 89.6648 51.4148V51.9262H83.6103V50.883H88.4376C88.4376 50.4398 88.3489 50.0443 88.1717 49.6966C87.9978 49.3489 87.7489 49.0744 87.4251 48.8733C87.1046 48.6722 86.7262 48.5716 86.2898 48.5716C85.8092 48.5716 85.3933 48.6909 85.0421 48.9296C84.6944 49.1648 84.4268 49.4716 84.2393 49.85C84.0518 50.2284 83.958 50.6341 83.958 51.0671V51.7625C83.958 52.3557 84.0603 52.8585 84.2648 53.271C84.4728 53.6801 84.7609 53.9921 85.1291 54.2068C85.4972 54.4182 85.9251 54.5239 86.4126 54.5239C86.7296 54.5239 87.016 54.4796 87.2717 54.3909C87.5308 54.2989 87.7541 54.1625 87.9416 53.9818C88.1291 53.7977 88.2739 53.5693 88.3762 53.2966L89.5421 53.6239C89.4194 54.0193 89.2131 54.3671 88.9234 54.6671C88.6336 54.9637 88.2756 55.1955 87.8495 55.3625C87.4234 55.5262 86.9444 55.608 86.4126 55.608ZM92.7075 50.7193V55.4443H91.5006V47.5898H92.6665V48.8171H92.7688C92.9529 48.4182 93.2325 48.0977 93.6075 47.8557C93.9825 47.6102 94.4665 47.4875 95.0597 47.4875C95.5915 47.4875 96.0569 47.5966 96.4558 47.8148C96.8546 48.0296 97.1648 48.3568 97.3864 48.7966C97.608 49.233 97.7188 49.7852 97.7188 50.4534V55.4443H96.512V50.5352C96.512 49.9182 96.3518 49.4375 96.0313 49.0932C95.7109 48.7455 95.2711 48.5716 94.712 48.5716C94.3268 48.5716 93.9825 48.6551 93.679 48.8222C93.379 48.9892 93.1421 49.233 92.9683 49.5534C92.7944 49.8739 92.7075 50.2625 92.7075 50.7193ZM103.217 55.608C102.46 55.608 101.808 55.4409 101.259 55.1068C100.713 54.7693 100.292 54.2989 99.9957 53.6955C99.7025 53.0887 99.5559 52.383 99.5559 51.5784C99.5559 50.7739 99.7025 50.0648 99.9957 49.4512C100.292 48.8341 100.705 48.3534 101.233 48.0091C101.765 47.6614 102.385 47.4875 103.095 47.4875C103.504 47.4875 103.908 47.5557 104.306 47.6921C104.705 47.8284 105.068 48.05 105.396 48.3568C105.723 48.6602 105.984 49.0625 106.178 49.5637C106.372 50.0648 106.47 50.6818 106.47 51.4148V51.9262H100.415V50.883H105.242C105.242 50.4398 105.154 50.0443 104.976 49.6966C104.802 49.3489 104.554 49.0744 104.23 48.8733C103.909 48.6722 103.531 48.5716 103.095 48.5716C102.614 48.5716 102.198 48.6909 101.847 48.9296C101.499 49.1648 101.231 49.4716 101.044 49.85C100.856 50.2284 100.763 50.6341 100.763 51.0671V51.7625C100.763 52.3557 100.865 52.8585 101.07 53.271C101.277 53.6801 101.566 53.9921 101.934 54.2068C102.302 54.4182 102.73 54.5239 103.217 54.5239C103.534 54.5239 103.821 54.4796 104.076 54.3909C104.335 54.2989 104.559 54.1625 104.746 53.9818C104.934 53.7977 105.079 53.5693 105.181 53.2966L106.347 53.6239C106.224 54.0193 106.018 54.3671 105.728 54.6671C105.438 54.9637 105.08 55.1955 104.654 55.3625C104.228 55.5262 103.749 55.608 103.217 55.608ZM113.255 52.233V47.5898H114.462V55.4443H113.255V54.1148H113.174C112.989 54.5137 112.703 54.8529 112.314 55.1324C111.926 55.4085 111.435 55.5466 110.842 55.5466C110.351 55.5466 109.914 55.4392 109.533 55.2244C109.151 55.0063 108.851 54.679 108.633 54.2426C108.414 53.8029 108.305 53.2489 108.305 52.5807V47.5898H109.512V52.4989C109.512 53.0716 109.672 53.5284 109.993 53.8693C110.317 54.2102 110.729 54.3807 111.23 54.3807C111.53 54.3807 111.835 54.304 112.146 54.1506C112.459 53.9972 112.722 53.7619 112.933 53.4449C113.148 53.1279 113.255 52.7239 113.255 52.233ZM116.673 55.4443V47.5898H117.838V48.7762H117.92C118.063 48.3875 118.323 48.0722 118.698 47.8301C119.073 47.5881 119.495 47.4671 119.966 47.4671C120.054 47.4671 120.165 47.4688 120.298 47.4722C120.431 47.4756 120.532 47.4807 120.6 47.4875V48.7148C120.559 48.7046 120.465 48.6892 120.319 48.6688C120.175 48.6449 120.024 48.633 119.863 48.633C119.482 48.633 119.141 48.7131 118.841 48.8733C118.544 49.0301 118.309 49.2483 118.135 49.5279C117.965 49.804 117.879 50.1193 117.879 50.4739V55.4443H116.673ZM127.594 49.3489L126.51 49.6557C126.442 49.475 126.341 49.2994 126.208 49.129C126.079 48.9551 125.901 48.8119 125.676 48.6994C125.451 48.5869 125.163 48.5307 124.812 48.5307C124.331 48.5307 123.931 48.6415 123.61 48.8631C123.293 49.0813 123.135 49.3591 123.135 49.6966C123.135 49.9966 123.244 50.2335 123.462 50.4074C123.68 50.5813 124.021 50.7262 124.485 50.8421L125.651 51.1284C126.353 51.2989 126.876 51.5597 127.221 51.9108C127.565 52.2585 127.737 52.7068 127.737 53.2557C127.737 53.7057 127.608 54.108 127.349 54.4625C127.093 54.8171 126.735 55.0966 126.275 55.3012C125.814 55.5057 125.279 55.608 124.669 55.608C123.868 55.608 123.205 55.4341 122.68 55.0864C122.155 54.7387 121.822 54.2307 121.683 53.5625L122.828 53.2762C122.937 53.6989 123.143 54.0159 123.447 54.2273C123.754 54.4387 124.154 54.5443 124.649 54.5443C125.211 54.5443 125.658 54.425 125.988 54.1864C126.322 53.9443 126.489 53.6546 126.489 53.3171C126.489 53.0443 126.394 52.8159 126.203 52.6318C126.012 52.4443 125.719 52.3046 125.324 52.2125L124.014 51.9057C123.295 51.7352 122.767 51.471 122.429 51.1131C122.095 50.7517 121.928 50.3 121.928 49.758C121.928 49.3148 122.052 48.9227 122.301 48.5818C122.554 48.2409 122.896 47.9733 123.329 47.779C123.766 47.5847 124.26 47.4875 124.812 47.4875C125.589 47.4875 126.2 47.658 126.643 47.9989C127.089 48.3398 127.406 48.7898 127.594 49.3489ZM137.02 47.5898V48.6125H132.949V47.5898H137.02ZM134.136 45.708H135.342V53.1943C135.342 53.5352 135.392 53.7909 135.491 53.9614C135.593 54.1284 135.723 54.2409 135.879 54.2989C136.04 54.3534 136.208 54.3807 136.386 54.3807C136.519 54.3807 136.628 54.3739 136.713 54.3602C136.798 54.3432 136.866 54.3296 136.917 54.3193L137.163 55.4034C137.081 55.4341 136.967 55.4648 136.82 55.4955C136.674 55.5296 136.488 55.5466 136.263 55.5466C135.922 55.5466 135.588 55.4733 135.261 55.3267C134.937 55.1801 134.667 54.9568 134.453 54.6568C134.241 54.3568 134.136 53.9784 134.136 53.5216V45.708ZM141.942 55.608C141.232 55.608 140.61 55.4392 140.075 55.1017C139.543 54.7642 139.127 54.2921 138.827 53.6852C138.531 53.0784 138.382 52.3693 138.382 51.558C138.382 50.7398 138.531 50.0256 138.827 49.4154C139.127 48.8051 139.543 48.3313 140.075 47.9938C140.61 47.6563 141.232 47.4875 141.942 47.4875C142.651 47.4875 143.271 47.6563 143.803 47.9938C144.338 48.3313 144.754 48.8051 145.051 49.4154C145.351 50.0256 145.501 50.7398 145.501 51.558C145.501 52.3693 145.351 53.0784 145.051 53.6852C144.754 54.2921 144.338 54.7642 143.803 55.1017C143.271 55.4392 142.651 55.608 141.942 55.608ZM141.942 54.5239C142.48 54.5239 142.923 54.3858 143.271 54.1097C143.619 53.8335 143.876 53.4705 144.043 53.0205C144.21 52.5705 144.294 52.083 144.294 51.558C144.294 51.033 144.21 50.5438 144.043 50.0904C143.876 49.6369 143.619 49.2705 143.271 48.9909C142.923 48.7114 142.48 48.5716 141.942 48.5716C141.403 48.5716 140.96 48.7114 140.612 48.9909C140.264 49.2705 140.007 49.6369 139.84 50.0904C139.673 50.5438 139.589 51.033 139.589 51.558C139.589 52.083 139.673 52.5705 139.84 53.0205C140.007 53.4705 140.264 53.8335 140.612 54.1097C140.96 54.3858 141.403 54.5239 141.942 54.5239ZM153.459 55.4443L150.595 44.9716H151.884L154.072 53.5012H154.175L156.404 44.9716H157.836L160.066 53.5012H160.168L162.356 44.9716H163.645L160.781 55.4443H159.472L157.161 47.0989H157.079L154.768 55.4443H153.459ZM166.642 55.6284C166.144 55.6284 165.692 55.5347 165.287 55.3472C164.881 55.1563 164.559 54.8818 164.32 54.5239C164.081 54.1625 163.962 53.7262 163.962 53.2148C163.962 52.7648 164.051 52.4 164.228 52.1205C164.405 51.8375 164.642 51.6159 164.939 51.4557C165.235 51.2955 165.563 51.1762 165.921 51.0977C166.282 51.0159 166.645 50.9512 167.01 50.9034C167.487 50.8421 167.874 50.796 168.171 50.7654C168.471 50.7313 168.689 50.675 168.825 50.5966C168.965 50.5182 169.035 50.3818 169.035 50.1875V50.1466C169.035 49.6421 168.897 49.25 168.621 48.9705C168.348 48.6909 167.934 48.5512 167.378 48.5512C166.802 48.5512 166.35 48.6773 166.023 48.9296C165.696 49.1818 165.466 49.4512 165.333 49.7375L164.187 49.3284C164.392 48.8512 164.664 48.4796 165.005 48.2137C165.35 47.9443 165.725 47.7568 166.13 47.6512C166.539 47.5421 166.942 47.4875 167.337 47.4875C167.589 47.4875 167.879 47.5182 168.206 47.5796C168.537 47.6375 168.856 47.7585 169.163 47.9426C169.473 48.1267 169.73 48.4046 169.935 48.7762C170.139 49.1477 170.242 49.6455 170.242 50.2693V55.4443H169.035V54.3807H168.973C168.892 54.5512 168.755 54.7335 168.564 54.9279C168.373 55.1222 168.12 55.2875 167.802 55.4239C167.485 55.5602 167.098 55.6284 166.642 55.6284ZM166.826 54.5443C167.303 54.5443 167.705 54.4506 168.033 54.2631C168.363 54.0756 168.612 53.8335 168.779 53.5369C168.95 53.2404 169.035 52.9284 169.035 52.6012V51.4966C168.984 51.558 168.871 51.6142 168.697 51.6654C168.527 51.7131 168.329 51.7557 168.104 51.7932C167.883 51.8273 167.666 51.858 167.455 51.8852C167.247 51.9091 167.078 51.9296 166.948 51.9466C166.635 51.9875 166.342 52.054 166.069 52.146C165.8 52.2347 165.581 52.3693 165.414 52.55C165.251 52.7273 165.169 52.9693 165.169 53.2762C165.169 53.6955 165.324 54.0125 165.634 54.2273C165.948 54.4387 166.345 54.5443 166.826 54.5443ZM175.86 47.5898V48.6125H171.79V47.5898H175.86ZM172.976 45.708H174.183V53.1943C174.183 53.5352 174.232 53.7909 174.331 53.9614C174.434 54.1284 174.563 54.2409 174.72 54.2989C174.88 54.3534 175.049 54.3807 175.226 54.3807C175.359 54.3807 175.468 54.3739 175.553 54.3602C175.639 54.3432 175.707 54.3296 175.758 54.3193L176.003 55.4034C175.922 55.4341 175.807 55.4648 175.661 55.4955C175.514 55.5296 175.328 55.5466 175.103 55.5466C174.763 55.5466 174.428 55.4733 174.101 55.3267C173.777 55.1801 173.508 54.9568 173.293 54.6568C173.082 54.3568 172.976 53.9784 172.976 53.5216V45.708ZM180.782 55.608C180.046 55.608 179.412 55.4341 178.88 55.0864C178.348 54.7387 177.939 54.2597 177.653 53.6494C177.366 53.0392 177.223 52.3421 177.223 51.558C177.223 50.7602 177.37 50.0563 177.663 49.446C177.959 48.8324 178.372 48.3534 178.9 48.0091C179.432 47.6614 180.053 47.4875 180.762 47.4875C181.314 47.4875 181.812 47.5898 182.255 47.7943C182.698 47.9989 183.061 48.2852 183.344 48.6534C183.627 49.0216 183.803 49.4512 183.871 49.9421H182.664C182.572 49.5841 182.367 49.2671 182.05 48.9909C181.737 48.7114 181.314 48.5716 180.782 48.5716C180.312 48.5716 179.899 48.6943 179.545 48.9398C179.194 49.1818 178.919 49.5244 178.721 49.9676C178.527 50.4074 178.43 50.9239 178.43 51.5171C178.43 52.1239 178.525 52.6523 178.716 53.1023C178.911 53.5523 179.183 53.9017 179.534 54.1506C179.889 54.3994 180.305 54.5239 180.782 54.5239C181.096 54.5239 181.38 54.4693 181.636 54.3602C181.892 54.2512 182.108 54.0943 182.286 53.8898C182.463 53.6852 182.589 53.4398 182.664 53.1534H183.871C183.803 53.6171 183.634 54.0347 183.365 54.4063C183.099 54.7744 182.746 55.0676 182.306 55.2858C181.87 55.5006 181.362 55.608 180.782 55.608ZM186.842 50.7193V55.4443H185.635V44.9716H186.842V48.8171H186.944C187.128 48.4114 187.404 48.0892 187.773 47.8506C188.144 47.6085 188.638 47.4875 189.255 47.4875C189.791 47.4875 190.259 47.5949 190.662 47.8097C191.064 48.021 191.376 48.3466 191.598 48.7864C191.823 49.2227 191.935 49.7784 191.935 50.4534V55.4443H190.728V50.5352C190.728 49.9114 190.566 49.429 190.242 49.0881C189.922 48.7438 189.477 48.5716 188.908 48.5716C188.512 48.5716 188.158 48.6551 187.844 48.8222C187.534 48.9892 187.288 49.233 187.108 49.5534C186.93 49.8739 186.842 50.2625 186.842 50.7193ZM60.8501 77.608C60.1411 77.608 59.5189 77.4392 58.9837 77.1017C58.4518 76.7642 58.0359 76.2921 57.7359 75.6852C57.4393 75.0784 57.2911 74.3693 57.2911 73.558C57.2911 72.7398 57.4393 72.0256 57.7359 71.4154C58.0359 70.8051 58.4518 70.3313 58.9837 69.9938C59.5189 69.6563 60.1411 69.4875 60.8501 69.4875C61.5592 69.4875 62.1797 69.6563 62.7115 69.9938C63.2467 70.3313 63.6626 70.8051 63.9592 71.4154C64.2592 72.0256 64.4092 72.7398 64.4092 73.558C64.4092 74.3693 64.2592 75.0784 63.9592 75.6852C63.6626 76.2921 63.2467 76.7642 62.7115 77.1017C62.1797 77.4392 61.5592 77.608 60.8501 77.608ZM60.8501 76.5239C61.3888 76.5239 61.832 76.3858 62.1797 76.1097C62.5274 75.8335 62.7848 75.4705 62.9518 75.0205C63.1189 74.5705 63.2024 74.083 63.2024 73.558C63.2024 73.033 63.1189 72.5438 62.9518 72.0904C62.7848 71.6369 62.5274 71.2705 62.1797 70.9909C61.832 70.7114 61.3888 70.5716 60.8501 70.5716C60.3115 70.5716 59.8683 70.7114 59.5206 70.9909C59.1729 71.2705 58.9155 71.6369 58.7484 72.0904C58.5814 72.5438 58.4979 73.033 58.4979 73.558C58.4979 74.083 58.5814 74.5705 58.7484 75.0205C58.9155 75.4705 59.1729 75.8335 59.5206 76.1097C59.8683 76.3858 60.3115 76.5239 60.8501 76.5239ZM71.2014 74.233V69.5898H72.4082V77.4443H71.2014V76.1148H71.1196C70.9355 76.5137 70.6491 76.8529 70.2605 77.1324C69.8719 77.4085 69.381 77.5466 68.7878 77.5466C68.2969 77.5466 67.8605 77.4392 67.4787 77.2244C67.0969 77.0063 66.7969 76.679 66.5787 76.2426C66.3605 75.8029 66.2514 75.2489 66.2514 74.5807V69.5898H67.4582V74.4989C67.4582 75.0716 67.6185 75.5284 67.9389 75.8693C68.2628 76.2102 68.6753 76.3807 69.1764 76.3807C69.4764 76.3807 69.7815 76.304 70.0918 76.1506C70.4054 75.9972 70.6679 75.7619 70.8793 75.4449C71.094 75.1279 71.2014 74.7239 71.2014 74.233ZM78.0345 69.5898V70.6125H73.9641V69.5898H78.0345ZM75.1504 67.708H76.3572V75.1943C76.3572 75.5352 76.4067 75.7909 76.5055 75.9614C76.6078 76.1284 76.7374 76.2409 76.8942 76.2989C77.0544 76.3534 77.2232 76.3807 77.4004 76.3807C77.5334 76.3807 77.6425 76.3739 77.7277 76.3602C77.8129 76.3432 77.8811 76.3296 77.9322 76.3193L78.1777 77.4034C78.0959 77.4341 77.9817 77.4648 77.8351 77.4955C77.6885 77.5296 77.5027 77.5466 77.2777 77.5466C76.9368 77.5466 76.6027 77.4733 76.2754 77.3267C75.9516 77.1801 75.6822 76.9568 75.4675 76.6568C75.2561 76.3568 75.1504 75.9784 75.1504 75.5216V67.708ZM83.8999 77.4443V69.5898H85.1067V77.4443H83.8999ZM84.5135 68.2807C84.2783 68.2807 84.0754 68.2006 83.905 68.0404C83.7379 67.8801 83.6544 67.6875 83.6544 67.4625C83.6544 67.2375 83.7379 67.0449 83.905 66.8847C84.0754 66.7244 84.2783 66.6443 84.5135 66.6443C84.7487 66.6443 84.9499 66.7244 85.1169 66.8847C85.2874 67.0449 85.3726 67.2375 85.3726 67.4625C85.3726 67.6875 85.2874 67.8801 85.1169 68.0404C84.9499 68.2006 84.7487 68.2807 84.5135 68.2807ZM88.5239 72.7193V77.4443H87.317V69.5898H88.483V70.8171H88.5852C88.7693 70.4182 89.0489 70.0977 89.4239 69.8557C89.7989 69.6102 90.283 69.4875 90.8761 69.4875C91.408 69.4875 91.8733 69.5966 92.2722 69.8148C92.671 70.0296 92.9813 70.3568 93.2028 70.7966C93.4244 71.233 93.5352 71.7852 93.5352 72.4534V77.4443H92.3284V72.5352C92.3284 71.9182 92.1682 71.4375 91.8477 71.0932C91.5273 70.7455 91.0875 70.5716 90.5284 70.5716C90.1432 70.5716 89.7989 70.6551 89.4955 70.8222C89.1955 70.9892 88.9585 71.233 88.7847 71.5534C88.6108 71.8739 88.5239 72.2625 88.5239 72.7193ZM101.222 66.9716V77.4443H99.9541V66.9716H101.222ZM104.808 72.7193V77.4443H103.601V69.5898H104.767V70.8171H104.87C105.054 70.4182 105.333 70.0977 105.708 69.8557C106.083 69.6102 106.567 69.4875 107.161 69.4875C107.692 69.4875 108.158 69.5966 108.557 69.8148C108.955 70.0296 109.266 70.3568 109.487 70.7966C109.709 71.233 109.82 71.7852 109.82 72.4534V77.4443H108.613V72.5352C108.613 71.9182 108.453 71.4375 108.132 71.0932C107.812 70.7455 107.372 70.5716 106.813 70.5716C106.428 70.5716 106.083 70.6551 105.78 70.8222C105.48 70.9892 105.243 71.233 105.069 71.5534C104.895 71.8739 104.808 72.2625 104.808 72.7193ZM114.991 77.608C114.336 77.608 113.758 77.4426 113.257 77.1119C112.756 76.7779 112.364 76.3074 112.081 75.7006C111.798 75.0904 111.657 74.3693 111.657 73.5375C111.657 72.7125 111.798 71.9966 112.081 71.3898C112.364 70.783 112.758 70.3142 113.262 69.9835C113.767 69.6529 114.35 69.4875 115.011 69.4875C115.523 69.4875 115.927 69.5727 116.223 69.7432C116.523 69.9102 116.752 70.1012 116.908 70.3159C117.069 70.5273 117.193 70.7012 117.282 70.8375H117.384V66.9716H118.591V77.4443H117.425V76.2375H117.282C117.193 76.3807 117.067 76.5614 116.903 76.7796C116.74 76.9943 116.506 77.1869 116.203 77.3574C115.899 77.5244 115.495 77.608 114.991 77.608ZM115.154 76.5239C115.638 76.5239 116.048 76.3977 116.382 76.1455C116.716 75.8898 116.97 75.5369 117.144 75.0869C117.317 74.6335 117.404 74.1102 117.404 73.5171C117.404 72.9307 117.319 72.4176 117.149 71.9779C116.978 71.5347 116.726 71.1904 116.392 70.9449C116.058 70.696 115.645 70.5716 115.154 70.5716C114.643 70.5716 114.217 70.7029 113.876 70.9654C113.538 71.2244 113.285 71.5773 113.114 72.0239C112.947 72.4671 112.863 72.9648 112.863 73.5171C112.863 74.0762 112.949 74.5841 113.119 75.0409C113.293 75.4943 113.549 75.8557 113.886 76.125C114.227 76.3909 114.65 76.5239 115.154 76.5239ZM120.969 77.4443V69.5898H122.175V77.4443H120.969ZM121.582 68.2807C121.347 68.2807 121.144 68.2006 120.974 68.0404C120.807 67.8801 120.723 67.6875 120.723 67.4625C120.723 67.2375 120.807 67.0449 120.974 66.8847C121.144 66.7244 121.347 66.6443 121.582 66.6443C121.817 66.6443 122.019 66.7244 122.186 66.8847C122.356 67.0449 122.441 67.2375 122.441 67.4625C122.441 67.6875 122.356 67.8801 122.186 68.0404C122.019 68.2006 121.817 68.2807 121.582 68.2807ZM126.697 77.6284C126.199 77.6284 125.748 77.5347 125.342 77.3472C124.936 77.1563 124.614 76.8818 124.376 76.5239C124.137 76.1625 124.018 75.7262 124.018 75.2148C124.018 74.7648 124.106 74.4 124.284 74.1205C124.461 73.8375 124.698 73.6159 124.994 73.4557C125.291 73.2955 125.618 73.1762 125.976 73.0977C126.337 73.0159 126.701 72.9512 127.065 72.9034C127.543 72.8421 127.93 72.796 128.226 72.7654C128.526 72.7313 128.744 72.675 128.881 72.5966C129.02 72.5182 129.09 72.3818 129.09 72.1875V72.1466C129.09 71.6421 128.952 71.25 128.676 70.9705C128.403 70.6909 127.989 70.5512 127.434 70.5512C126.857 70.5512 126.406 70.6773 126.078 70.9296C125.751 71.1818 125.521 71.4512 125.388 71.7375L124.243 71.3284C124.447 70.8512 124.72 70.4796 125.061 70.2137C125.405 69.9443 125.78 69.7568 126.186 69.6512C126.595 69.5421 126.997 69.4875 127.393 69.4875C127.645 69.4875 127.935 69.5182 128.262 69.5796C128.593 69.6375 128.911 69.7585 129.218 69.9426C129.528 70.1267 129.786 70.4046 129.99 70.7762C130.195 71.1477 130.297 71.6455 130.297 72.2693V77.4443H129.09V76.3807H129.029C128.947 76.5512 128.811 76.7335 128.62 76.9279C128.429 77.1222 128.175 77.2875 127.858 77.4239C127.541 77.5602 127.154 77.6284 126.697 77.6284ZM126.881 76.5443C127.359 76.5443 127.761 76.4506 128.088 76.2631C128.419 76.0756 128.668 75.8335 128.835 75.5369C129.005 75.2404 129.09 74.9284 129.09 74.6012V73.4966C129.039 73.558 128.927 73.6142 128.753 73.6654C128.582 73.7131 128.385 73.7557 128.16 73.7932C127.938 73.8273 127.722 73.858 127.51 73.8852C127.302 73.9091 127.134 73.9296 127.004 73.9466C126.69 73.9875 126.397 74.054 126.124 74.146C125.855 74.2347 125.637 74.3693 125.47 74.55C125.306 74.7273 125.224 74.9693 125.224 75.2762C125.224 75.6955 125.38 76.0125 125.69 76.2273C126.003 76.4387 126.401 76.5443 126.881 76.5443ZM136.529 77.4443V76.5239L139.986 72.7398C140.392 72.2966 140.726 71.9114 140.988 71.5841C141.251 71.2534 141.445 70.9432 141.571 70.6534C141.701 70.3602 141.766 70.0534 141.766 69.733C141.766 69.3648 141.677 69.046 141.5 68.7767C141.326 68.5074 141.087 68.2994 140.784 68.1529C140.481 68.0063 140.14 67.933 139.761 67.933C139.359 67.933 139.008 68.0165 138.708 68.1835C138.411 68.3472 138.181 68.5773 138.017 68.8739C137.857 69.1705 137.777 69.5182 137.777 69.9171H136.57C136.57 69.3034 136.712 68.7648 136.995 68.3012C137.278 67.8375 137.663 67.4762 138.15 67.2171C138.641 66.958 139.192 66.8284 139.802 66.8284C140.416 66.8284 140.96 66.958 141.433 67.2171C141.907 67.4762 142.279 67.8256 142.548 68.2654C142.817 68.7051 142.952 69.1943 142.952 69.733C142.952 70.1182 142.882 70.4949 142.742 70.8631C142.606 71.2279 142.367 71.6352 142.027 72.0852C141.689 72.5318 141.22 73.0773 140.62 73.7216L138.268 76.2375V76.3193H143.136V77.4443H136.529ZM148.664 77.5875C147.894 77.5875 147.237 77.3779 146.695 76.9585C146.153 76.5358 145.739 75.9239 145.453 75.1227C145.166 74.3182 145.023 73.3466 145.023 72.208C145.023 71.0762 145.166 70.1097 145.453 69.3085C145.742 68.504 146.158 67.8904 146.7 67.4676C147.246 67.0415 147.9 66.8284 148.664 66.8284C149.428 66.8284 150.081 67.0415 150.623 67.4676C151.168 67.8904 151.584 68.504 151.87 69.3085C152.16 70.1097 152.305 71.0762 152.305 72.208C152.305 73.3466 152.162 74.3182 151.875 75.1227C151.589 75.9239 151.175 76.5358 150.633 76.9585C150.091 77.3779 149.435 77.5875 148.664 77.5875ZM148.664 76.4625C149.428 76.4625 150.021 76.0943 150.444 75.358C150.866 74.6216 151.078 73.5716 151.078 72.208C151.078 71.3012 150.981 70.529 150.786 69.8915C150.595 69.254 150.319 68.7682 149.958 68.4341C149.6 68.1 149.169 67.933 148.664 67.933C147.907 67.933 147.316 68.3063 146.89 69.0529C146.463 69.796 146.25 70.8477 146.25 72.208C146.25 73.1148 146.346 73.8852 146.537 74.5193C146.728 75.1534 147.002 75.6358 147.36 75.9665C147.721 76.2972 148.156 76.4625 148.664 76.4625ZM157.93 66.9716V77.4443H156.662V68.3012H156.6L154.044 69.9989V68.7102L156.662 66.9716H157.93ZM164.276 66.8284C164.706 66.8318 165.135 66.9137 165.565 67.0739C165.994 67.2341 166.386 67.5 166.741 67.8716C167.095 68.2398 167.38 68.7426 167.595 69.3801C167.81 70.0176 167.917 70.8171 167.917 71.7784C167.917 72.7091 167.828 73.5358 167.651 74.2585C167.477 74.9779 167.225 75.5847 166.894 76.079C166.567 76.5733 166.168 76.9483 165.698 77.204C165.231 77.4597 164.702 77.5875 164.112 77.5875C163.526 77.5875 163.003 77.4716 162.542 77.2398C162.086 77.0046 161.711 76.679 161.417 76.2631C161.128 75.8438 160.942 75.358 160.86 74.8057H162.108C162.22 75.2864 162.444 75.6835 162.778 75.9972C163.115 76.3074 163.56 76.4625 164.112 76.4625C164.92 76.4625 165.558 76.1097 166.025 75.404C166.495 74.6983 166.731 73.7012 166.731 72.4125H166.649C166.458 72.6989 166.231 72.946 165.969 73.154C165.706 73.3619 165.415 73.5222 165.094 73.6347C164.774 73.7472 164.433 73.8034 164.071 73.8034C163.471 73.8034 162.921 73.6551 162.42 73.3585C161.922 73.0585 161.523 72.6477 161.223 72.1262C160.927 71.6012 160.778 71.0012 160.778 70.3262C160.778 69.6852 160.921 69.0989 161.208 68.5671C161.498 68.0318 161.903 67.6057 162.425 67.2887C162.95 66.9716 163.567 66.8182 164.276 66.8284ZM164.276 67.9534C163.846 67.9534 163.46 68.0608 163.115 68.2756C162.774 68.4869 162.503 68.7733 162.302 69.1347C162.104 69.4926 162.006 69.8898 162.006 70.3262C162.006 70.7625 162.101 71.1597 162.292 71.5176C162.486 71.8722 162.75 72.1551 163.085 72.3665C163.422 72.5744 163.806 72.6784 164.235 72.6784C164.559 72.6784 164.861 72.6154 165.14 72.4892C165.42 72.3597 165.664 72.1841 165.871 71.9625C166.083 71.7375 166.248 71.4835 166.367 71.2006C166.487 70.9142 166.546 70.6159 166.546 70.3057C166.546 69.8966 166.448 69.5131 166.25 69.1551C166.056 68.7972 165.786 68.5074 165.442 68.2858C165.101 68.0642 164.712 67.9534 164.276 67.9534Z" fill="#F6F9FC"/>
</g>
<defs>
<linearGradient id="paint0_linear_1668_1202" x1="194.61" y1="88.1152" x2="194.61" y2="0.444332" gradientUnits="userSpaceOnUse">
<stop stop-color="#EED575"/>
<stop offset="1" stop-color="#BC7A2E"/>
</linearGradient>
<linearGradient id="paint1_linear_1668_1202" x1="33.4319" y1="88.1152" x2="33.432" y2="0.444332" gradientUnits="userSpaceOnUse">
<stop stop-color="#EED575"/>
<stop offset="1" stop-color="#BC7A2E"/>
</linearGradient>
<clipPath id="clip0_1668_1202">
<rect width="225" height="100" fill="white" transform="translate(0.599609 0.444336)"/>
</clipPath>
<clipPath id="clip1_1668_1202">
<rect width="56.8345" height="100" fill="white" transform="translate(169 0.444336)"/>
</clipPath>
<clipPath id="clip2_1668_1202">
<rect width="56.8345" height="100" fill="white" transform="matrix(-1 0 0 1 58.835 0.444336)"/>
</clipPath>
</defs>
</svg>
