<svg width="205" height="101" viewBox="0 0 205 101" fill="none" xmlns="http://www.w3.org/2000/svg">
<g clip-path="url(#clip0_1668_1214)">
<g clip-path="url(#clip1_1668_1214)">
<path fill-rule="evenodd" clip-rule="evenodd" d="M148 95.2167C160.592 95.2167 171.995 89.9435 180.241 81.4202C188.494 72.8968 193.598 61.108 193.598 48.0995C193.598 35.0909 188.494 23.3021 180.241 14.7788C178.446 12.9301 176.508 11.233 174.441 9.71019C169.004 10.0739 163.939 3.67943 164.249 0.762542C170.965 3.55821 174.282 2.11113 174.925 9.31622C176.97 10.8315 178.893 12.521 180.665 14.3545C189.024 22.9915 194.196 34.9242 194.196 48.0995C194.196 61.2747 189.024 73.2074 180.665 81.8444C172.873 89.8905 162.326 95.0727 150.604 95.7546L147.992 95.2242L148 95.2167ZM179.575 10.9754C182.225 7.49032 179.726 1.34592 177.583 0.444336C176.955 6.10386 174.683 7.76307 179.575 10.9754ZM183.959 16.8395C187.313 14.0211 186.223 7.48275 184.322 6.12658C182.467 11.5058 179.893 12.6271 183.959 16.8395ZM180.423 17.2714C178.87 11.7785 176.667 13.3999 171.223 12.324C171.435 14.5818 176.402 18.7184 180.423 17.2714ZM185.034 24.5295C184.019 18.9079 181.664 20.3095 176.356 18.7184C176.356 20.9913 180.9 25.575 185.034 24.5295ZM188.721 23.3627C192.22 20.4231 191.076 13.6044 189.107 12.1952C187.169 17.8017 184.489 18.9685 188.721 23.3627ZM191.674 30.0981C195.983 28.5828 197.323 21.802 195.975 19.7867C192.182 24.3477 189.259 24.4916 191.674 30.0981ZM189.94 33.856C190.145 27.5221 187.268 28.4919 181.884 25.5296C181.346 27.9919 185.216 34.0302 189.94 33.856ZM194.65 38.1214C199.534 36.4016 201.063 28.7116 199.534 26.4236C195.233 31.5982 191.917 31.7573 194.65 38.1214ZM191.735 42.4324C192.636 36.1667 189.675 36.8107 184.648 33.265C183.845 35.6515 187.018 42.0763 191.735 42.4324ZM195.763 46.2054C201.094 45.3796 204.115 37.7881 202.979 35.1515C197.596 39.6291 194.166 39.167 195.763 46.2054ZM195.468 54.403C194.991 46.8721 198.451 47.9176 204.759 44.1901C205.493 47.0994 201.109 54.4333 195.468 54.403ZM192.257 53.6075C194.574 46.069 190.804 46.2963 185.306 40.9626C183.853 43.7431 186.525 52.2589 192.257 53.6075ZM193.151 63.5173C199.057 64.5553 204.955 57.6456 204.706 54.4636C197.429 57.2517 193.984 55.5394 193.151 63.5173ZM189.819 70.2754C194.756 73.6772 202.994 69.8587 204.092 66.866C196.316 66.366 193.9 63.3733 189.819 70.2754ZM189.236 64.0098C192.628 56.8274 188.835 56.5092 184.11 50.4102C182.263 52.9786 183.709 61.8505 189.236 64.0098ZM184.928 76.9653C189.039 81.3368 197.898 79.3367 199.602 76.6395C192.106 74.5106 190.38 71.0785 184.928 76.9653ZM183.338 74.2908C188.638 68.8662 185.314 67.3964 182.944 60.411C180.483 62.1536 179.014 70.6163 183.338 74.2908ZM179.65 84.1477C183.762 88.5192 192.621 86.519 194.325 83.8219C186.828 81.6929 185.102 78.2608 179.65 84.1477ZM174.342 83.981C181.717 80.5792 178.954 77.8366 179.256 69.942C176.129 70.7375 171.427 78.6472 174.342 83.981ZM172.495 89.6708C175.599 95.2849 185.299 95.5576 187.782 93.2165C180.582 89.0344 179.696 85.0113 172.495 89.6708ZM164.317 93.5044C166.218 99.4897 175.478 101.611 178.302 99.8382C172.192 94.4363 172.116 90.4133 164.317 93.5044ZM162.25 90.8679C171.102 89.6708 169.08 85.8902 171.934 77.6926C168.383 77.5259 160.895 84.3219 162.25 90.8679Z" fill="url(#paint0_linear_1668_1214)"/>
</g>
<g clip-path="url(#clip2_1668_1214)">
<path fill-rule="evenodd" clip-rule="evenodd" d="M57.8352 95.2167C45.2432 95.2167 33.8399 89.9435 25.5941 81.4202C17.3408 72.8968 12.2373 61.108 12.2373 48.0995C12.2373 35.0909 17.3408 23.3021 25.5941 14.7788C27.3887 12.9301 29.3271 11.233 31.3942 9.71019C36.8308 10.0739 41.8964 3.67943 41.5859 0.762542C34.8697 3.55821 31.5532 2.11113 30.9096 9.31622C28.8652 10.8315 26.9419 12.521 25.1701 14.3545C16.8108 22.9915 11.6392 34.9242 11.6392 48.0995C11.6392 61.2747 16.8108 73.2074 25.1701 81.8444C32.9616 89.8905 43.5092 95.0727 55.2305 95.7546L57.8428 95.2242L57.8352 95.2167ZM26.2605 10.9754C23.6103 7.49032 26.109 1.34592 28.2519 0.444336C28.8803 6.10386 31.1519 7.76307 26.2605 10.9754ZM21.8763 16.8395C18.522 14.0211 19.6123 7.48275 21.5129 6.12658C23.368 11.5058 25.9424 12.6271 21.8763 16.8395ZM25.4124 17.2714C26.9646 11.7785 29.1681 13.3999 34.6122 12.324C34.4002 14.5818 29.4331 18.7184 25.4124 17.2714ZM20.8011 24.5295C21.8158 18.9079 24.1706 20.3095 29.4785 18.7184C29.4785 20.9913 24.9354 25.575 20.8011 24.5295ZM17.1136 23.3627C13.6154 20.4231 14.7588 13.6044 16.7275 12.1952C18.6659 17.8017 21.3463 18.9685 17.1136 23.3627ZM14.1606 30.0981C9.85219 28.5828 8.51197 21.802 9.85976 19.7867C13.6533 24.3477 16.576 24.4916 14.1606 30.0981ZM15.8946 33.856C15.6901 27.5221 18.5674 28.4919 23.951 25.5296C24.4886 27.9919 20.6194 34.0302 15.8946 33.856ZM11.1848 38.1214C6.30098 36.4016 4.77146 28.7116 6.30098 26.4236C10.6018 31.5982 13.9183 31.7573 11.1848 38.1214ZM14.1 42.4324C13.199 36.1667 16.1596 36.8107 21.1873 33.265C21.9899 35.6515 18.8173 42.0763 14.1 42.4324ZM10.0718 46.2054C4.74117 45.3796 1.71999 37.7881 2.85577 35.1515C8.23938 39.6291 11.6694 39.167 10.0718 46.2054ZM10.3671 54.403C10.8441 46.8721 7.38376 47.9176 1.07638 44.1901C0.341911 47.0994 4.72603 54.4333 10.3671 54.403ZM13.5776 53.6075C11.2606 46.069 15.0314 46.2963 20.5285 40.9626C21.9823 43.7431 19.3095 52.2589 13.5776 53.6075ZM12.6841 63.5173C6.77801 64.5553 0.879513 57.6456 1.12938 54.4636C8.40596 57.2517 11.8512 55.5394 12.6841 63.5173ZM16.0157 70.2754C11.0788 73.6772 2.84063 69.8587 1.74271 66.866C9.51903 66.366 11.9345 63.3733 16.0157 70.2754ZM16.5987 64.0098C13.2065 56.8274 17 56.5092 21.7249 50.4102C23.5724 52.9786 22.1262 61.8505 16.5987 64.0098ZM20.9071 76.9653C16.7956 81.3368 7.9365 79.3367 6.23283 76.6395C13.729 74.5106 15.4554 71.0785 20.9071 76.9653ZM22.4972 74.2908C17.1969 68.8662 20.521 67.3964 22.891 60.411C25.3518 62.1536 26.8208 70.6163 22.4972 74.2908ZM26.1847 84.1477C22.0732 88.5192 13.2141 86.519 11.5104 83.8219C19.0066 81.6929 20.733 78.2608 26.1847 84.1477ZM31.4926 83.981C24.1176 80.5792 26.8814 77.8366 26.5785 69.942C29.7057 70.7375 34.4078 78.6472 31.4926 83.981ZM33.3402 89.6708C30.2357 95.2849 20.5361 95.5576 18.0525 93.2165C25.2534 89.0344 26.1393 85.0113 33.3402 89.6708ZM41.5178 93.5044C39.6173 99.4897 30.3568 101.611 27.5325 99.8382C33.643 94.4363 33.7188 90.4133 41.5178 93.5044ZM43.5849 90.8679C34.7334 89.6708 36.7551 85.8902 33.9005 77.6926C37.4517 77.5259 44.9403 84.3219 43.5849 90.8679Z" fill="url(#paint1_linear_1668_1214)"/>
</g>
<path d="M46.2551 22.9716V33.4443H44.9869V22.9716H46.2551ZM49.8411 28.7193V33.4443H48.6342V25.5898H49.8001V26.8171H49.9024C50.0865 26.4182 50.3661 26.0977 50.7411 25.8557C51.1161 25.6102 51.6001 25.4875 52.1933 25.4875C52.7251 25.4875 53.1905 25.5966 53.5894 25.8148C53.9882 26.0296 54.2984 26.3568 54.52 26.7966C54.7416 27.233 54.8524 27.7852 54.8524 28.4534V33.4443H53.6456V28.5352C53.6456 27.9182 53.4854 27.4375 53.1649 27.0932C52.8445 26.7455 52.4047 26.5716 51.8456 26.5716C51.4604 26.5716 51.1161 26.6551 50.8126 26.8222C50.5126 26.9892 50.2757 27.233 50.1019 27.5534C49.928 27.8739 49.8411 28.2625 49.8411 28.7193ZM60.0236 33.608C59.369 33.608 58.7912 33.4426 58.2901 33.1119C57.7889 32.7779 57.3969 32.3074 57.1139 31.7006C56.831 31.0904 56.6895 30.3693 56.6895 29.5375C56.6895 28.7125 56.831 27.9966 57.1139 27.3898C57.3969 26.783 57.7906 26.3142 58.2952 25.9835C58.7997 25.6529 59.3827 25.4875 60.044 25.4875C60.5554 25.4875 60.9594 25.5727 61.256 25.7432C61.556 25.9102 61.7844 26.1012 61.9412 26.3159C62.1014 26.5273 62.2259 26.7012 62.3145 26.8375H62.4168V22.9716H63.6236V33.4443H62.4577V32.2375H62.3145C62.2259 32.3807 62.0997 32.5614 61.9361 32.7796C61.7724 32.9943 61.5389 33.1869 61.2355 33.3574C60.9321 33.5244 60.5281 33.608 60.0236 33.608ZM60.1872 32.5239C60.6713 32.5239 61.0804 32.3977 61.4145 32.1455C61.7486 31.8898 62.0026 31.5369 62.1764 31.0869C62.3503 30.6335 62.4372 30.1102 62.4372 29.5171C62.4372 28.9307 62.352 28.4176 62.1815 27.9779C62.0111 27.5347 61.7588 27.1904 61.4247 26.9449C61.0906 26.696 60.6781 26.5716 60.1872 26.5716C59.6759 26.5716 59.2497 26.7029 58.9088 26.9654C58.5713 27.2244 58.3173 27.5773 58.1469 28.0239C57.9798 28.4671 57.8963 28.9648 57.8963 29.5171C57.8963 30.0762 57.9815 30.5841 58.152 31.0409C58.3259 31.4943 58.5815 31.8557 58.919 32.125C59.2599 32.3909 59.6827 32.5239 60.1872 32.5239ZM69.2946 33.608C68.5378 33.608 67.8849 33.4409 67.3361 33.1068C66.7906 32.7693 66.3696 32.2989 66.073 31.6955C65.7798 31.0887 65.6332 30.383 65.6332 29.5784C65.6332 28.7739 65.7798 28.0648 66.073 27.4512C66.3696 26.8341 66.7821 26.3534 67.3105 26.0091C67.8423 25.6614 68.4628 25.4875 69.1719 25.4875C69.581 25.4875 69.9849 25.5557 70.3838 25.6921C70.7827 25.8284 71.1457 26.05 71.473 26.3568C71.8003 26.6602 72.0611 27.0625 72.2554 27.5637C72.4497 28.0648 72.5469 28.6818 72.5469 29.4148V29.9262H66.4923V28.883H71.3196C71.3196 28.4398 71.231 28.0443 71.0537 27.6966C70.8798 27.3489 70.631 27.0744 70.3071 26.8733C69.9867 26.6722 69.6082 26.5716 69.1719 26.5716C68.6912 26.5716 68.2753 26.6909 67.9242 26.9296C67.5764 27.1648 67.3088 27.4716 67.1213 27.85C66.9338 28.2284 66.8401 28.6341 66.8401 29.0671V29.7625C66.8401 30.3557 66.9423 30.8585 67.1469 31.271C67.3548 31.6801 67.6429 31.9921 68.0111 32.2068C68.3793 32.4182 68.8071 32.5239 69.2946 32.5239C69.6117 32.5239 69.898 32.4796 70.1537 32.3909C70.4128 32.2989 70.6361 32.1625 70.8236 31.9818C71.0111 31.7977 71.156 31.5693 71.2582 31.2966L72.4242 31.6239C72.3014 32.0193 72.0952 32.3671 71.8054 32.6671C71.5156 32.9637 71.1577 33.1955 70.7315 33.3625C70.3054 33.5262 69.8264 33.608 69.2946 33.608ZM77.5531 36.5534C76.9702 36.5534 76.469 36.4784 76.0497 36.3284C75.6304 36.1818 75.281 35.9875 75.0014 35.7455C74.7253 35.5068 74.5054 35.2512 74.3418 34.9784L75.3031 34.3034C75.4122 34.4466 75.5503 34.6102 75.7173 34.7943C75.8844 34.9818 76.1128 35.1438 76.4026 35.2801C76.6957 35.4199 77.0793 35.4898 77.5531 35.4898C78.1872 35.4898 78.7105 35.3364 79.123 35.0296C79.5355 34.7227 79.7418 34.2421 79.7418 33.5875V31.9921H79.6395C79.5509 32.1352 79.4247 32.3125 79.2611 32.5239C79.1009 32.7318 78.869 32.9176 78.5656 33.0813C78.2656 33.2415 77.8599 33.3216 77.3486 33.3216C76.7145 33.3216 76.1452 33.1716 75.6406 32.8716C75.1395 32.5716 74.7423 32.1352 74.4492 31.5625C74.1594 30.9898 74.0145 30.2943 74.0145 29.4762C74.0145 28.6716 74.156 27.971 74.4389 27.3744C74.7219 26.7744 75.1156 26.3108 75.6202 25.9835C76.1247 25.6529 76.7077 25.4875 77.369 25.4875C77.8804 25.4875 78.2861 25.5727 78.5861 25.7432C78.8895 25.9102 79.1213 26.1012 79.2815 26.3159C79.4452 26.5273 79.5713 26.7012 79.6599 26.8375H79.7827V25.5898H80.9486V33.6693C80.9486 34.3443 80.7952 34.8932 80.4884 35.3159C80.1849 35.7421 79.7759 36.054 79.2611 36.2517C78.7497 36.4529 78.1804 36.5534 77.5531 36.5534ZM77.5122 32.2375C77.9963 32.2375 78.4054 32.1267 78.7395 31.9051C79.0736 31.6835 79.3276 31.3648 79.5014 30.9489C79.6753 30.533 79.7622 30.0352 79.7622 29.4557C79.7622 28.8898 79.677 28.3904 79.5065 27.9574C79.3361 27.5244 79.0838 27.1852 78.7497 26.9398C78.4156 26.6943 78.0031 26.5716 77.5122 26.5716C77.0009 26.5716 76.5747 26.7012 76.2338 26.9602C75.8963 27.2193 75.6423 27.5671 75.4719 28.0034C75.3048 28.4398 75.2213 28.9239 75.2213 29.4557C75.2213 30.0012 75.3065 30.4835 75.477 30.9029C75.6509 31.3188 75.9065 31.646 76.244 31.8847C76.5849 32.1199 77.0077 32.2375 77.5122 32.2375ZM83.1577 33.4443V25.5898H84.3645V33.4443H83.1577ZM83.7713 24.2807C83.5361 24.2807 83.3332 24.2006 83.1628 24.0404C82.9957 23.8801 82.9122 23.6875 82.9122 23.4625C82.9122 23.2375 82.9957 23.0449 83.1628 22.8847C83.3332 22.7244 83.5361 22.6443 83.7713 22.6443C84.0065 22.6443 84.2077 22.7244 84.3747 22.8847C84.5452 23.0449 84.6304 23.2375 84.6304 23.4625C84.6304 23.6875 84.5452 23.8801 84.3747 24.0404C84.2077 24.2006 84.0065 24.2807 83.7713 24.2807ZM89.7658 33.608C89.0567 33.608 88.4345 33.4392 87.8993 33.1017C87.3675 32.7642 86.9516 32.2921 86.6516 31.6852C86.355 31.0784 86.2067 30.3693 86.2067 29.558C86.2067 28.7398 86.355 28.0256 86.6516 27.4154C86.9516 26.8051 87.3675 26.3313 87.8993 25.9938C88.4345 25.6563 89.0567 25.4875 89.7658 25.4875C90.4749 25.4875 91.0953 25.6563 91.6271 25.9938C92.1624 26.3313 92.5783 26.8051 92.8749 27.4154C93.1749 28.0256 93.3249 28.7398 93.3249 29.558C93.3249 30.3693 93.1749 31.0784 92.8749 31.6852C92.5783 32.2921 92.1624 32.7642 91.6271 33.1017C91.0953 33.4392 90.4749 33.608 89.7658 33.608ZM89.7658 32.5239C90.3044 32.5239 90.7476 32.3858 91.0953 32.1097C91.443 31.8335 91.7004 31.4705 91.8675 31.0205C92.0345 30.5705 92.118 30.083 92.118 29.558C92.118 29.033 92.0345 28.5438 91.8675 28.0904C91.7004 27.6369 91.443 27.2705 91.0953 26.9909C90.7476 26.7114 90.3044 26.5716 89.7658 26.5716C89.2271 26.5716 88.784 26.7114 88.4362 26.9909C88.0885 27.2705 87.8311 27.6369 87.6641 28.0904C87.497 28.5438 87.4135 29.033 87.4135 29.558C87.4135 30.083 87.497 30.5705 87.6641 31.0205C87.8311 31.4705 88.0885 31.8335 88.4362 32.1097C88.784 32.3858 89.2271 32.5239 89.7658 32.5239ZM100.117 30.233V25.5898H101.324V33.4443H100.117V32.1148H100.035C99.8511 32.5137 99.5648 32.8529 99.1761 33.1324C98.7875 33.4085 98.2966 33.5466 97.7034 33.5466C97.2125 33.5466 96.7761 33.4392 96.3943 33.2244C96.0125 33.0063 95.7125 32.679 95.4943 32.2426C95.2761 31.8029 95.167 31.2489 95.167 30.5807V25.5898H96.3739V30.4989C96.3739 31.0716 96.5341 31.5284 96.8545 31.8693C97.1784 32.2102 97.5909 32.3807 98.092 32.3807C98.392 32.3807 98.6972 32.304 99.0074 32.1506C99.321 31.9972 99.5835 31.7619 99.7949 31.4449C100.01 31.1279 100.117 30.7239 100.117 30.233ZM109.098 27.3489L108.014 27.6557C107.946 27.475 107.845 27.2994 107.712 27.129C107.583 26.9551 107.405 26.8119 107.18 26.6994C106.955 26.5869 106.667 26.5307 106.316 26.5307C105.835 26.5307 105.435 26.6415 105.114 26.8631C104.797 27.0813 104.639 27.3591 104.639 27.6966C104.639 27.9966 104.748 28.2335 104.966 28.4074C105.184 28.5813 105.525 28.7262 105.989 28.8421L107.155 29.1284C107.857 29.2989 108.38 29.5597 108.725 29.9108C109.069 30.2585 109.241 30.7068 109.241 31.2557C109.241 31.7057 109.112 32.108 108.852 32.4625C108.597 32.8171 108.239 33.0966 107.779 33.3012C107.318 33.5057 106.783 33.608 106.173 33.608C105.372 33.608 104.709 33.4341 104.184 33.0864C103.659 32.7387 103.326 32.2307 103.187 31.5625L104.332 31.2762C104.441 31.6989 104.647 32.0159 104.951 32.2273C105.258 32.4387 105.658 32.5443 106.152 32.5443C106.715 32.5443 107.162 32.425 107.492 32.1864C107.826 31.9443 107.993 31.6546 107.993 31.3171C107.993 31.0443 107.898 30.8159 107.707 30.6318C107.516 30.4443 107.223 30.3046 106.827 30.2125L105.518 29.9057C104.799 29.7352 104.271 29.471 103.933 29.1131C103.599 28.7517 103.432 28.3 103.432 27.758C103.432 27.3148 103.556 26.9227 103.805 26.5818C104.058 26.2409 104.4 25.9733 104.833 25.779C105.269 25.5847 105.764 25.4875 106.316 25.4875C107.093 25.4875 107.704 25.658 108.147 25.9989C108.593 26.3398 108.91 26.7898 109.098 27.3489ZM115.271 33.4443V22.9716H116.539V32.3193H121.408V33.4443H115.271ZM126.501 33.608C125.744 33.608 125.091 33.4409 124.542 33.1068C123.997 32.7693 123.576 32.2989 123.279 31.6955C122.986 31.0887 122.839 30.383 122.839 29.5784C122.839 28.7739 122.986 28.0648 123.279 27.4512C123.576 26.8341 123.988 26.3534 124.517 26.0091C125.049 25.6614 125.669 25.4875 126.378 25.4875C126.787 25.4875 127.191 25.5557 127.59 25.6921C127.989 25.8284 128.352 26.05 128.679 26.3568C129.007 26.6602 129.267 27.0625 129.462 27.5637C129.656 28.0648 129.753 28.6818 129.753 29.4148V29.9262H123.699V28.883H128.526C128.526 28.4398 128.437 28.0443 128.26 27.6966C128.086 27.3489 127.837 27.0744 127.513 26.8733C127.193 26.6722 126.814 26.5716 126.378 26.5716C125.897 26.5716 125.482 26.6909 125.13 26.9296C124.783 27.1648 124.515 27.4716 124.328 27.85C124.14 28.2284 124.046 28.6341 124.046 29.0671V29.7625C124.046 30.3557 124.149 30.8585 124.353 31.271C124.561 31.6801 124.849 31.9921 125.217 32.2068C125.586 32.4182 126.013 32.5239 126.501 32.5239C126.818 32.5239 127.104 32.4796 127.36 32.3909C127.619 32.2989 127.842 32.1625 128.03 31.9818C128.217 31.7977 128.362 31.5693 128.464 31.2966L129.63 31.6239C129.508 32.0193 129.301 32.3671 129.012 32.6671C128.722 32.9637 128.364 33.1955 127.938 33.3625C127.512 33.5262 127.033 33.608 126.501 33.608ZM133.9 33.6284C133.403 33.6284 132.951 33.5347 132.545 33.3472C132.139 33.1563 131.817 32.8818 131.579 32.5239C131.34 32.1625 131.221 31.7262 131.221 31.2148C131.221 30.7648 131.309 30.4 131.487 30.1205C131.664 29.8375 131.901 29.6159 132.197 29.4557C132.494 29.2955 132.821 29.1762 133.179 29.0977C133.541 29.0159 133.904 28.9512 134.268 28.9034C134.746 28.8421 135.133 28.796 135.429 28.7654C135.729 28.7313 135.947 28.675 136.084 28.5966C136.224 28.5182 136.293 28.3818 136.293 28.1875V28.1466C136.293 27.6421 136.155 27.25 135.879 26.9705C135.607 26.6909 135.192 26.5512 134.637 26.5512C134.061 26.5512 133.609 26.6773 133.282 26.9296C132.954 27.1818 132.724 27.4512 132.591 27.7375L131.446 27.3284C131.65 26.8512 131.923 26.4796 132.264 26.2137C132.608 25.9443 132.983 25.7568 133.389 25.6512C133.798 25.5421 134.2 25.4875 134.596 25.4875C134.848 25.4875 135.138 25.5182 135.465 25.5796C135.796 25.6375 136.114 25.7585 136.421 25.9426C136.732 26.1267 136.989 26.4046 137.193 26.7762C137.398 27.1477 137.5 27.6455 137.5 28.2693V33.4443H136.293V32.3807H136.232C136.15 32.5512 136.014 32.7335 135.823 32.9279C135.632 33.1222 135.378 33.2875 135.061 33.4239C134.744 33.5602 134.357 33.6284 133.9 33.6284ZM134.084 32.5443C134.562 32.5443 134.964 32.4506 135.291 32.2631C135.622 32.0756 135.871 31.8335 136.038 31.5369C136.208 31.2404 136.293 30.9284 136.293 30.6012V29.4966C136.242 29.558 136.13 29.6142 135.956 29.6654C135.786 29.7131 135.588 29.7557 135.363 29.7932C135.141 29.8273 134.925 29.858 134.713 29.8852C134.505 29.9091 134.337 29.9296 134.207 29.9466C133.893 29.9875 133.6 30.054 133.328 30.146C133.058 30.2347 132.84 30.3693 132.673 30.55C132.509 30.7273 132.428 30.9693 132.428 31.2762C132.428 31.6955 132.583 32.0125 132.893 32.2273C133.207 32.4387 133.604 32.5443 134.084 32.5443ZM142.669 33.608C142.014 33.608 141.437 33.4426 140.935 33.1119C140.434 32.7779 140.042 32.3074 139.759 31.7006C139.476 31.0904 139.335 30.3693 139.335 29.5375C139.335 28.7125 139.476 27.9966 139.759 27.3898C140.042 26.783 140.436 26.3142 140.94 25.9835C141.445 25.6529 142.028 25.4875 142.689 25.4875C143.201 25.4875 143.605 25.5727 143.901 25.7432C144.201 25.9102 144.43 26.1012 144.587 26.3159C144.747 26.5273 144.871 26.7012 144.96 26.8375H145.062V22.9716H146.269V33.4443H145.103V32.2375H144.96C144.871 32.3807 144.745 32.5614 144.581 32.7796C144.418 32.9943 144.184 33.1869 143.881 33.3574C143.577 33.5244 143.173 33.608 142.669 33.608ZM142.833 32.5239C143.317 32.5239 143.726 32.3977 144.06 32.1455C144.394 31.8898 144.648 31.5369 144.822 31.0869C144.996 30.6335 145.083 30.1102 145.083 29.5171C145.083 28.9307 144.997 28.4176 144.827 27.9779C144.656 27.5347 144.404 27.1904 144.07 26.9449C143.736 26.696 143.323 26.5716 142.833 26.5716C142.321 26.5716 141.895 26.7029 141.554 26.9654C141.217 27.2244 140.963 27.5773 140.792 28.0239C140.625 28.4671 140.542 28.9648 140.542 29.5171C140.542 30.0762 140.627 30.5841 140.797 31.0409C140.971 31.4943 141.227 31.8557 141.564 32.125C141.905 32.3909 142.328 32.5239 142.833 32.5239ZM151.94 33.608C151.183 33.608 150.53 33.4409 149.981 33.1068C149.436 32.7693 149.015 32.2989 148.718 31.6955C148.425 31.0887 148.279 30.383 148.279 29.5784C148.279 28.7739 148.425 28.0648 148.718 27.4512C149.015 26.8341 149.427 26.3534 149.956 26.0091C150.488 25.6614 151.108 25.4875 151.817 25.4875C152.226 25.4875 152.63 25.5557 153.029 25.6921C153.428 25.8284 153.791 26.05 154.118 26.3568C154.446 26.6602 154.706 27.0625 154.901 27.5637C155.095 28.0648 155.192 28.6818 155.192 29.4148V29.9262H149.138V28.883H153.965C153.965 28.4398 153.876 28.0443 153.699 27.6966C153.525 27.3489 153.276 27.0744 152.952 26.8733C152.632 26.6722 152.254 26.5716 151.817 26.5716C151.337 26.5716 150.921 26.6909 150.569 26.9296C150.222 27.1648 149.954 27.4716 149.767 27.85C149.579 28.2284 149.485 28.6341 149.485 29.0671V29.7625C149.485 30.3557 149.588 30.8585 149.792 31.271C150 31.6801 150.288 31.9921 150.656 32.2068C151.025 32.4182 151.452 32.5239 151.94 32.5239C152.257 32.5239 152.543 32.4796 152.799 32.3909C153.058 32.2989 153.281 32.1625 153.469 31.9818C153.656 31.7977 153.801 31.5693 153.904 31.2966L155.069 31.6239C154.947 32.0193 154.74 32.3671 154.451 32.6671C154.161 32.9637 153.803 33.1955 153.377 33.3625C152.951 33.5262 152.472 33.608 151.94 33.608ZM157.028 33.4443V25.5898H158.194V26.7762H158.276C158.419 26.3875 158.678 26.0722 159.053 25.8301C159.428 25.5881 159.851 25.4671 160.321 25.4671C160.41 25.4671 160.521 25.4688 160.654 25.4722C160.786 25.4756 160.887 25.4807 160.955 25.4875V26.7148C160.914 26.7046 160.821 26.6892 160.674 26.6688C160.531 26.6449 160.379 26.633 160.219 26.633C159.837 26.633 159.496 26.7131 159.196 26.8733C158.9 27.0301 158.664 27.2483 158.49 27.5279C158.32 27.804 158.235 28.1193 158.235 28.4739V33.4443H157.028ZM53.0032 55.4443H51.6737L55.5191 44.9716H56.8282L60.6737 55.4443H59.3441L56.2146 46.6284H56.1327L53.0032 55.4443ZM53.4941 51.3534H58.8532V52.4784H53.4941V51.3534ZM62.9364 55.4443L60.5433 47.5898H61.8114L63.5092 53.6034H63.591L65.2683 47.5898H66.5569L68.2137 53.583H68.2955L69.9933 47.5898H71.2614L68.8683 55.4443H67.6819L65.9637 49.4102H65.841L64.1228 55.4443H62.9364ZM75.1683 55.6284C74.6705 55.6284 74.2188 55.5347 73.8131 55.3472C73.4075 55.1563 73.0853 54.8818 72.8467 54.5239C72.608 54.1625 72.4887 53.7262 72.4887 53.2148C72.4887 52.7648 72.5773 52.4 72.7546 52.1205C72.9319 51.8375 73.1688 51.6159 73.4654 51.4557C73.762 51.2955 74.0893 51.1762 74.4472 51.0977C74.8086 51.0159 75.1717 50.9512 75.5364 50.9034C76.0137 50.8421 76.4006 50.796 76.6972 50.7654C76.9972 50.7313 77.2154 50.675 77.3518 50.5966C77.4915 50.5182 77.5614 50.3818 77.5614 50.1875V50.1466C77.5614 49.6421 77.4234 49.25 77.1472 48.9705C76.8745 48.6909 76.4603 48.5512 75.9046 48.5512C75.3285 48.5512 74.8768 48.6773 74.5495 48.9296C74.2222 49.1818 73.9921 49.4512 73.8592 49.7375L72.7137 49.3284C72.9183 48.8512 73.191 48.4796 73.5319 48.2137C73.8762 47.9443 74.2512 47.7568 74.6569 47.6512C75.066 47.5421 75.4683 47.4875 75.8637 47.4875C76.116 47.4875 76.4058 47.5182 76.733 47.5796C77.0637 47.6375 77.3825 47.7585 77.6893 47.9426C77.9995 48.1267 78.2569 48.4046 78.4614 48.7762C78.666 49.1477 78.7683 49.6455 78.7683 50.2693V55.4443H77.5614V54.3807H77.5001C77.4183 54.5512 77.2819 54.7335 77.091 54.9279C76.9001 55.1222 76.6461 55.2875 76.329 55.4239C76.012 55.5602 75.6251 55.6284 75.1683 55.6284ZM75.3523 54.5443C75.8296 54.5443 76.2319 54.4506 76.5592 54.2631C76.8898 54.0756 77.1387 53.8335 77.3058 53.5369C77.4762 53.2404 77.5614 52.9284 77.5614 52.6012V51.4966C77.5103 51.558 77.3978 51.6142 77.2239 51.6654C77.0535 51.7131 76.8558 51.7557 76.6308 51.7932C76.4092 51.8273 76.1927 51.858 75.9813 51.8852C75.7734 51.9091 75.6046 51.9296 75.4751 51.9466C75.1614 51.9875 74.8683 52.054 74.5955 52.146C74.3262 52.2347 74.108 52.3693 73.941 52.55C73.7773 52.7273 73.6955 52.9693 73.6955 53.2762C73.6955 53.6955 73.8506 54.0125 74.1609 54.2273C74.4745 54.4387 74.8717 54.5443 75.3523 54.5443ZM80.971 55.4443V47.5898H82.1369V48.7762H82.2187C82.3619 48.3875 82.621 48.0722 82.996 47.8301C83.371 47.5881 83.7937 47.4671 84.2641 47.4671C84.3528 47.4671 84.4636 47.4688 84.5965 47.4722C84.7295 47.4756 84.83 47.4807 84.8982 47.4875V48.7148C84.8573 48.7046 84.7636 48.6892 84.617 48.6688C84.4738 48.6449 84.3221 48.633 84.1619 48.633C83.78 48.633 83.4391 48.7131 83.1391 48.8733C82.8425 49.0301 82.6073 49.2483 82.4335 49.5279C82.263 49.804 82.1778 50.1193 82.1778 50.4739V55.4443H80.971ZM89.0556 55.608C88.4011 55.608 87.8232 55.4426 87.3221 55.1119C86.821 54.7779 86.4289 54.3074 86.146 53.7006C85.863 53.0904 85.7215 52.3693 85.7215 51.5375C85.7215 50.7125 85.863 49.9966 86.146 49.3898C86.4289 48.783 86.8227 48.3142 87.3272 47.9835C87.8317 47.6529 88.4147 47.4875 89.0761 47.4875C89.5874 47.4875 89.9914 47.5727 90.288 47.7432C90.588 47.9102 90.8164 48.1012 90.9732 48.3159C91.1335 48.5273 91.2579 48.7012 91.3465 48.8375H91.4488V44.9716H92.6556V55.4443H91.4897V54.2375H91.3465C91.2579 54.3807 91.1317 54.5614 90.9681 54.7796C90.8045 54.9943 90.571 55.1869 90.2675 55.3574C89.9641 55.5244 89.5602 55.608 89.0556 55.608ZM89.2192 54.5239C89.7033 54.5239 90.1124 54.3977 90.4465 54.1455C90.7806 53.8898 91.0346 53.5369 91.2085 53.0869C91.3823 52.6335 91.4692 52.1102 91.4692 51.5171C91.4692 50.9307 91.384 50.4176 91.2136 49.9779C91.0431 49.5347 90.7908 49.1904 90.4567 48.9449C90.1227 48.696 89.7102 48.5716 89.2192 48.5716C88.7079 48.5716 88.2817 48.7029 87.9408 48.9654C87.6033 49.2244 87.3494 49.5773 87.1789 50.0239C87.0119 50.4671 86.9283 50.9648 86.9283 51.5171C86.9283 52.0762 87.0136 52.5841 87.184 53.0409C87.3579 53.4943 87.6136 53.8557 87.9511 54.125C88.292 54.3909 88.7147 54.5239 89.2192 54.5239ZM99.2471 55.4443V44.9716H100.454V48.8375H100.556C100.645 48.7012 100.768 48.5273 100.924 48.3159C101.085 48.1012 101.313 47.9102 101.61 47.7432C101.91 47.5727 102.315 47.4875 102.827 47.4875C103.488 47.4875 104.071 47.6529 104.575 47.9835C105.08 48.3142 105.474 48.783 105.757 49.3898C106.04 49.9966 106.181 50.7125 106.181 51.5375C106.181 52.3693 106.04 53.0904 105.757 53.7006C105.474 54.3074 105.082 54.7779 104.581 55.1119C104.079 55.4426 103.502 55.608 102.847 55.608C102.343 55.608 101.939 55.5244 101.635 55.3574C101.332 55.1869 101.098 54.9943 100.935 54.7796C100.771 54.5614 100.645 54.3807 100.556 54.2375H100.413V55.4443H99.2471ZM100.433 51.5171C100.433 52.1102 100.52 52.6335 100.694 53.0869C100.868 53.5369 101.122 53.8898 101.456 54.1455C101.79 54.3977 102.199 54.5239 102.683 54.5239C103.188 54.5239 103.609 54.3909 103.947 54.125C104.287 53.8557 104.543 53.4943 104.714 53.0409C104.887 52.5841 104.974 52.0762 104.974 51.5171C104.974 50.9648 104.889 50.4671 104.719 50.0239C104.552 49.5773 104.298 49.2244 103.957 48.9654C103.619 48.7029 103.195 48.5716 102.683 48.5716C102.193 48.5716 101.78 48.696 101.446 48.9449C101.112 49.1904 100.86 49.5347 100.689 49.9779C100.519 50.4176 100.433 50.9307 100.433 51.5171ZM108.523 58.3898C108.319 58.3898 108.136 58.3727 107.976 58.3387C107.816 58.308 107.705 58.2773 107.644 58.2466L107.95 57.183C108.244 57.258 108.503 57.2852 108.728 57.2648C108.953 57.2443 109.152 57.1438 109.326 56.9631C109.503 56.7858 109.665 56.4977 109.812 56.0989L110.037 55.4852L107.132 47.5898H108.441L110.61 53.8489H110.691L112.86 47.5898H114.169L110.835 56.5898C110.685 56.9955 110.499 57.3313 110.277 57.5972C110.056 57.8665 109.798 58.0659 109.505 58.1955C109.215 58.325 108.888 58.3898 108.523 58.3898ZM125.702 47.5898C125.641 47.0716 125.392 46.6693 124.956 46.383C124.52 46.0966 123.984 45.9534 123.35 45.9534C122.887 45.9534 122.481 46.0284 122.133 46.1784C121.789 46.3284 121.52 46.5347 121.325 46.7972C121.134 47.0597 121.039 47.358 121.039 47.6921C121.039 47.9716 121.105 48.2119 121.238 48.4131C121.375 48.6108 121.549 48.7762 121.76 48.9091C121.971 49.0387 122.193 49.146 122.425 49.2313C122.656 49.3131 122.87 49.3796 123.064 49.4307L124.127 49.7171C124.4 49.7887 124.704 49.8875 125.038 50.0137C125.375 50.1398 125.697 50.3119 126.004 50.5301C126.314 50.7449 126.57 51.021 126.771 51.3585C126.972 51.696 127.073 52.1102 127.073 52.6012C127.073 53.1671 126.925 53.6784 126.628 54.1352C126.335 54.5921 125.905 54.9551 125.339 55.2244C124.777 55.4938 124.093 55.6284 123.289 55.6284C122.539 55.6284 121.889 55.5074 121.341 55.2654C120.795 55.0233 120.366 54.6858 120.052 54.2529C119.742 53.8199 119.566 53.3171 119.525 52.7443H120.834C120.868 53.1398 121.001 53.4671 121.233 53.7262C121.468 53.9818 121.765 54.1727 122.123 54.2989C122.484 54.4216 122.873 54.483 123.289 54.483C123.773 54.483 124.208 54.4046 124.593 54.2477C124.978 54.0875 125.283 53.8659 125.508 53.583C125.733 53.2966 125.846 52.9625 125.846 52.5807C125.846 52.233 125.749 51.95 125.554 51.7318C125.36 51.5137 125.104 51.3364 124.787 51.2C124.47 51.0637 124.127 50.9443 123.759 50.8421L122.471 50.4739C121.652 50.2387 121.005 49.9029 120.527 49.4665C120.05 49.0301 119.812 48.4591 119.812 47.7534C119.812 47.1671 119.97 46.6557 120.287 46.2193C120.608 45.7796 121.037 45.4387 121.576 45.1966C122.118 44.9512 122.723 44.8284 123.391 44.8284C124.066 44.8284 124.666 44.9494 125.191 45.1915C125.716 45.4301 126.132 45.7574 126.439 46.1733C126.749 46.5892 126.913 47.0614 126.93 47.5898H125.702ZM130.426 44.9716V55.4443H129.158V44.9716H130.426ZM132.969 44.9716H134.483L138.042 53.6648H138.164L141.724 44.9716H143.237V55.4443H142.051V47.4875H141.949L138.676 55.4443H137.53L134.258 47.4875H134.155V55.4443H132.969V44.9716ZM151.507 47.5898C151.446 47.0716 151.197 46.6693 150.761 46.383C150.324 46.0966 149.789 45.9534 149.155 45.9534C148.691 45.9534 148.286 46.0284 147.938 46.1784C147.594 46.3284 147.324 46.5347 147.13 46.7972C146.939 47.0597 146.844 47.358 146.844 47.6921C146.844 47.9716 146.91 48.2119 147.043 48.4131C147.179 48.6108 147.353 48.7762 147.565 48.9091C147.776 49.0387 147.998 49.146 148.229 49.2313C148.461 49.3131 148.674 49.3796 148.869 49.4307L149.932 49.7171C150.205 49.7887 150.508 49.8875 150.842 50.0137C151.18 50.1398 151.502 50.3119 151.809 50.5301C152.119 50.7449 152.375 51.021 152.576 51.3585C152.777 51.696 152.878 52.1102 152.878 52.6012C152.878 53.1671 152.729 53.6784 152.433 54.1352C152.14 54.5921 151.71 54.9551 151.144 55.2244C150.582 55.4938 149.898 55.6284 149.094 55.6284C148.344 55.6284 147.694 55.5074 147.145 55.2654C146.6 55.0233 146.17 54.6858 145.857 54.2529C145.546 53.8199 145.371 53.3171 145.33 52.7443H146.639C146.673 53.1398 146.806 53.4671 147.038 53.7262C147.273 53.9818 147.57 54.1727 147.928 54.2989C148.289 54.4216 148.678 54.483 149.094 54.483C149.578 54.483 150.012 54.4046 150.398 54.2477C150.783 54.0875 151.088 53.8659 151.313 53.583C151.538 53.2966 151.65 52.9625 151.65 52.5807C151.65 52.233 151.553 51.95 151.359 51.7318C151.165 51.5137 150.909 51.3364 150.592 51.2C150.275 51.0637 149.932 50.9443 149.564 50.8421L148.275 50.4739C147.457 50.2387 146.809 49.9029 146.332 49.4665C145.855 49.0301 145.616 48.4591 145.616 47.7534C145.616 47.1671 145.775 46.6557 146.092 46.2193C146.412 45.7796 146.842 45.4387 147.38 45.1966C147.923 44.9512 148.528 44.8284 149.196 44.8284C149.871 44.8284 150.471 44.9494 150.996 45.1915C151.521 45.4301 151.937 45.7574 152.244 46.1733C152.554 46.5892 152.717 47.0614 152.734 47.5898H151.507ZM59.183 66.9716H60.6967L64.2558 75.6648H64.3785L67.9376 66.9716H69.4512V77.4443H68.2648V69.4875H68.1626L64.8898 77.4443H63.7444L60.4717 69.4875H60.3694V77.4443H59.183V66.9716ZM74.1417 77.6284C73.644 77.6284 73.1923 77.5347 72.7866 77.3472C72.3809 77.1563 72.0587 76.8818 71.8201 76.5239C71.5815 76.1625 71.4621 75.7262 71.4621 75.2148C71.4621 74.7648 71.5508 74.4 71.7281 74.1205C71.9053 73.8375 72.1423 73.6159 72.4388 73.4557C72.7354 73.2955 73.0627 73.1762 73.4207 73.0977C73.782 73.0159 74.1451 72.9512 74.5099 72.9034C74.9871 72.8421 75.3741 72.796 75.6707 72.7654C75.9707 72.7313 76.1888 72.675 76.3252 72.5966C76.465 72.5182 76.5349 72.3818 76.5349 72.1875V72.1466C76.5349 71.6421 76.3968 71.25 76.1207 70.9705C75.8479 70.6909 75.4337 70.5512 74.8781 70.5512C74.3019 70.5512 73.8502 70.6773 73.5229 70.9296C73.1957 71.1818 72.9656 71.4512 72.8326 71.7375L71.6871 71.3284C71.8917 70.8512 72.1644 70.4796 72.5053 70.2137C72.8496 69.9443 73.2246 69.7568 73.6303 69.6512C74.0394 69.5421 74.4417 69.4875 74.8371 69.4875C75.0894 69.4875 75.3792 69.5182 75.7065 69.5796C76.0371 69.6375 76.3559 69.7585 76.6627 69.9426C76.9729 70.1267 77.2303 70.4046 77.4349 70.7762C77.6394 71.1477 77.7417 71.6455 77.7417 72.2693V77.4443H76.5349V76.3807H76.4735C76.3917 76.5512 76.2553 76.7335 76.0644 76.9279C75.8735 77.1222 75.6195 77.2875 75.3025 77.4239C74.9854 77.5602 74.5985 77.6284 74.1417 77.6284ZM74.3258 76.5443C74.8031 76.5443 75.2053 76.4506 75.5326 76.2631C75.8633 76.0756 76.1121 75.8335 76.2792 75.5369C76.4496 75.2404 76.5349 74.9284 76.5349 74.6012V73.4966C76.4837 73.558 76.3712 73.6142 76.1974 73.6654C76.0269 73.7131 75.8292 73.7557 75.6042 73.7932C75.3826 73.8273 75.1661 73.858 74.9548 73.8852C74.7468 73.9091 74.5781 73.9296 74.4485 73.9466C74.1349 73.9875 73.8417 74.054 73.569 74.146C73.2996 74.2347 73.0815 74.3693 72.9144 74.55C72.7508 74.7273 72.669 74.9693 72.669 75.2762C72.669 75.6955 72.8241 76.0125 73.1343 76.2273C73.4479 76.4387 73.8451 76.5443 74.3258 76.5443ZM81.1512 72.7193V77.4443H79.9444V69.5898H81.1103V70.8171H81.2126C81.3967 70.4182 81.6762 70.0977 82.0512 69.8557C82.4262 69.6102 82.9103 69.4875 83.5035 69.4875C84.0353 69.4875 84.5006 69.5966 84.8995 69.8148C85.2984 70.0296 85.6086 70.3568 85.8302 70.7966C86.0518 71.233 86.1626 71.7852 86.1626 72.4534V77.4443H84.9558V72.5352C84.9558 71.9182 84.7955 71.4375 84.4751 71.0932C84.1546 70.7455 83.7148 70.5716 83.1558 70.5716C82.7705 70.5716 82.4262 70.6551 82.1228 70.8222C81.8228 70.9892 81.5859 71.233 81.412 71.5534C81.2381 71.8739 81.1512 72.2625 81.1512 72.7193ZM90.6792 77.6284C90.1815 77.6284 89.7298 77.5347 89.3241 77.3472C88.9184 77.1563 88.5962 76.8818 88.3576 76.5239C88.119 76.1625 87.9996 75.7262 87.9996 75.2148C87.9996 74.7648 88.0883 74.4 88.2656 74.1205C88.4428 73.8375 88.6798 73.6159 88.9764 73.4557C89.2729 73.2955 89.6002 73.1762 89.9582 73.0977C90.3195 73.0159 90.6826 72.9512 91.0474 72.9034C91.5246 72.8421 91.9116 72.796 92.2082 72.7654C92.5082 72.7313 92.7264 72.675 92.8627 72.5966C93.0025 72.5182 93.0724 72.3818 93.0724 72.1875V72.1466C93.0724 71.6421 92.9343 71.25 92.6582 70.9705C92.3854 70.6909 91.9712 70.5512 91.4156 70.5512C90.8394 70.5512 90.3877 70.6773 90.0604 70.9296C89.7332 71.1818 89.5031 71.4512 89.3701 71.7375L88.2246 71.3284C88.4292 70.8512 88.7019 70.4796 89.0428 70.2137C89.3871 69.9443 89.7621 69.7568 90.1678 69.6512C90.5769 69.5421 90.9792 69.4875 91.3746 69.4875C91.6269 69.4875 91.9167 69.5182 92.244 69.5796C92.5746 69.6375 92.8934 69.7585 93.2002 69.9426C93.5104 70.1267 93.7678 70.4046 93.9724 70.7762C94.1769 71.1477 94.2792 71.6455 94.2792 72.2693V77.4443H93.0724V76.3807H93.011C92.9292 76.5512 92.7928 76.7335 92.6019 76.9279C92.411 77.1222 92.157 77.2875 91.84 77.4239C91.5229 77.5602 91.136 77.6284 90.6792 77.6284ZM90.8633 76.5443C91.3406 76.5443 91.7428 76.4506 92.0701 76.2631C92.4008 76.0756 92.6496 75.8335 92.8167 75.5369C92.9871 75.2404 93.0724 74.9284 93.0724 74.6012V73.4966C93.0212 73.558 92.9087 73.6142 92.7349 73.6654C92.5644 73.7131 92.3667 73.7557 92.1417 73.7932C91.9201 73.8273 91.7036 73.858 91.4923 73.8852C91.2843 73.9091 91.1156 73.9296 90.986 73.9466C90.6724 73.9875 90.3792 74.054 90.1065 74.146C89.8371 74.2347 89.619 74.3693 89.4519 74.55C89.2883 74.7273 89.2065 74.9693 89.2065 75.2762C89.2065 75.6955 89.3616 76.0125 89.6718 76.2273C89.9854 76.4387 90.3826 76.5443 90.8633 76.5443ZM99.6523 80.5534C99.0694 80.5534 98.5683 80.4784 98.1489 80.3284C97.7296 80.1818 97.3802 79.9875 97.1006 79.7455C96.8245 79.5068 96.6046 79.2512 96.441 78.9784L97.4023 78.3034C97.5114 78.4466 97.6495 78.6102 97.8165 78.7943C97.9836 78.9818 98.212 79.1438 98.5018 79.2801C98.795 79.4199 99.1785 79.4898 99.6523 79.4898C100.286 79.4898 100.81 79.3364 101.222 79.0296C101.635 78.7227 101.841 78.2421 101.841 77.5875V75.9921H101.739C101.65 76.1352 101.524 76.3125 101.36 76.5239C101.2 76.7318 100.968 76.9176 100.665 77.0813C100.365 77.2415 99.9592 77.3216 99.4478 77.3216C98.8137 77.3216 98.2444 77.1716 97.7398 76.8716C97.2387 76.5716 96.8415 76.1352 96.5484 75.5625C96.2586 74.9898 96.1137 74.2943 96.1137 73.4762C96.1137 72.6716 96.2552 71.971 96.5381 71.3744C96.8211 70.7744 97.2148 70.3108 97.7194 69.9835C98.2239 69.6529 98.8069 69.4875 99.4683 69.4875C99.9796 69.4875 100.385 69.5727 100.685 69.7432C100.989 69.9102 101.221 70.1012 101.381 70.3159C101.544 70.5273 101.671 70.7012 101.759 70.8375H101.882V69.5898H103.048V77.6693C103.048 78.3443 102.894 78.8932 102.588 79.3159C102.284 79.7421 101.875 80.054 101.36 80.2517C100.849 80.4529 100.28 80.5534 99.6523 80.5534ZM99.6114 76.2375C100.096 76.2375 100.505 76.1267 100.839 75.9051C101.173 75.6835 101.427 75.3648 101.601 74.9489C101.775 74.533 101.861 74.0352 101.861 73.4557C101.861 72.8898 101.776 72.3904 101.606 71.9574C101.435 71.5244 101.183 71.1852 100.849 70.9398C100.515 70.6943 100.102 70.5716 99.6114 70.5716C99.1001 70.5716 98.6739 70.7012 98.333 70.9602C97.9955 71.2193 97.7415 71.5671 97.5711 72.0034C97.404 72.4398 97.3205 72.9239 97.3205 73.4557C97.3205 74.0012 97.4058 74.4835 97.5762 74.9029C97.7501 75.3188 98.0058 75.646 98.3433 75.8847C98.6842 76.1199 99.1069 76.2375 99.6114 76.2375ZM108.55 77.608C107.793 77.608 107.14 77.4409 106.592 77.1068C106.046 76.7693 105.625 76.2989 105.328 75.6955C105.035 75.0887 104.889 74.383 104.889 73.5784C104.889 72.7739 105.035 72.0648 105.328 71.4512C105.625 70.8341 106.038 70.3534 106.566 70.0091C107.098 69.6614 107.718 69.4875 108.427 69.4875C108.836 69.4875 109.24 69.5557 109.639 69.6921C110.038 69.8284 110.401 70.05 110.728 70.3568C111.056 70.6602 111.317 71.0625 111.511 71.5637C111.705 72.0648 111.802 72.6818 111.802 73.4148V73.9262H105.748V72.883H110.575C110.575 72.4398 110.486 72.0443 110.309 71.6966C110.135 71.3489 109.886 71.0744 109.563 70.8733C109.242 70.6722 108.864 70.5716 108.427 70.5716C107.947 70.5716 107.531 70.6909 107.18 70.9296C106.832 71.1648 106.564 71.4716 106.377 71.85C106.189 72.2284 106.096 72.6341 106.096 73.0671V73.7625C106.096 74.3557 106.198 74.8585 106.402 75.271C106.61 75.6801 106.898 75.9921 107.267 76.2068C107.635 76.4182 108.063 76.5239 108.55 76.5239C108.867 76.5239 109.153 76.4796 109.409 76.3909C109.668 76.2989 109.892 76.1625 110.079 75.9818C110.267 75.7977 110.411 75.5693 110.514 75.2966L111.68 75.6239C111.557 76.0193 111.351 76.3671 111.061 76.6671C110.771 76.9637 110.413 77.1955 109.987 77.3625C109.561 77.5262 109.082 77.608 108.55 77.608ZM113.638 77.4443V69.5898H114.804V70.8171H114.906C115.07 70.3977 115.334 70.0722 115.699 69.8404C116.064 69.6051 116.502 69.4875 117.013 69.4875C117.531 69.4875 117.963 69.6051 118.307 69.8404C118.655 70.0722 118.926 70.3977 119.12 70.8171H119.202C119.403 70.4114 119.705 70.0892 120.107 69.8506C120.509 69.6085 120.992 69.4875 121.554 69.4875C122.256 69.4875 122.831 69.7074 123.277 70.1472C123.724 70.5835 123.947 71.2637 123.947 72.1875V77.4443H122.74V72.1875C122.74 71.608 122.582 71.1938 122.265 70.9449C121.948 70.696 121.575 70.5716 121.145 70.5716C120.593 70.5716 120.165 70.7387 119.861 71.0727C119.558 71.4034 119.406 71.8227 119.406 72.3307V77.4443H118.179V72.0648C118.179 71.6182 118.034 71.2585 117.744 70.9858C117.455 70.7097 117.081 70.5716 116.625 70.5716C116.311 70.5716 116.018 70.6551 115.745 70.8222C115.476 70.9892 115.257 71.221 115.09 71.5176C114.927 71.8108 114.845 72.15 114.845 72.5352V77.4443H113.638ZM129.447 77.608C128.69 77.608 128.037 77.4409 127.488 77.1068C126.943 76.7693 126.522 76.2989 126.225 75.6955C125.932 75.0887 125.786 74.383 125.786 73.5784C125.786 72.7739 125.932 72.0648 126.225 71.4512C126.522 70.8341 126.934 70.3534 127.463 70.0091C127.995 69.6614 128.615 69.4875 129.324 69.4875C129.733 69.4875 130.137 69.5557 130.536 69.6921C130.935 69.8284 131.298 70.05 131.625 70.3568C131.953 70.6602 132.213 71.0625 132.408 71.5637C132.602 72.0648 132.699 72.6818 132.699 73.4148V73.9262H126.645V72.883H131.472C131.472 72.4398 131.383 72.0443 131.206 71.6966C131.032 71.3489 130.783 71.0744 130.459 70.8733C130.139 70.6722 129.761 70.5716 129.324 70.5716C128.844 70.5716 128.428 70.6909 128.076 70.9296C127.729 71.1648 127.461 71.4716 127.274 71.85C127.086 72.2284 126.992 72.6341 126.992 73.0671V73.7625C126.992 74.3557 127.095 74.8585 127.299 75.271C127.507 75.6801 127.795 75.9921 128.163 76.2068C128.532 76.4182 128.959 76.5239 129.447 76.5239C129.764 76.5239 130.05 76.4796 130.306 76.3909C130.565 76.2989 130.788 76.1625 130.976 75.9818C131.163 75.7977 131.308 75.5693 131.411 75.2966L132.576 75.6239C132.454 76.0193 132.248 76.3671 131.958 76.6671C131.668 76.9637 131.31 77.1955 130.884 77.3625C130.458 77.5262 129.979 77.608 129.447 77.608ZM135.742 72.7193V77.4443H134.535V69.5898H135.701V70.8171H135.803C135.987 70.4182 136.267 70.0977 136.642 69.8557C137.017 69.6102 137.501 69.4875 138.094 69.4875C138.626 69.4875 139.091 69.5966 139.49 69.8148C139.889 70.0296 140.199 70.3568 140.421 70.7966C140.642 71.233 140.753 71.7852 140.753 72.4534V77.4443H139.546V72.5352C139.546 71.9182 139.386 71.4375 139.066 71.0932C138.745 70.7455 138.305 70.5716 137.746 70.5716C137.361 70.5716 137.017 70.6551 136.713 70.8222C136.413 70.9892 136.176 71.233 136.003 71.5534C135.829 71.8739 135.742 72.2625 135.742 72.7193ZM146.374 69.5898V70.6125H142.304V69.5898H146.374ZM143.49 67.708H144.697V75.1943C144.697 75.5352 144.747 75.7909 144.845 75.9614C144.948 76.1284 145.077 76.2409 145.234 76.2989C145.394 76.3534 145.563 76.3807 145.74 76.3807C145.873 76.3807 145.982 76.3739 146.068 76.3602C146.153 76.3432 146.221 76.3296 146.272 76.3193L146.518 77.4034C146.436 77.4341 146.322 77.4648 146.175 77.4955C146.028 77.5296 145.843 77.5466 145.618 77.5466C145.277 77.5466 144.943 77.4733 144.615 77.3267C144.291 77.1801 144.022 76.9568 143.807 76.6568C143.596 76.3568 143.49 75.9784 143.49 75.5216V67.708Z" fill="#F6F9FC"/>
</g>
<defs>
<linearGradient id="paint0_linear_1668_1214" x1="173.403" y1="88.1152" x2="173.403" y2="0.444332" gradientUnits="userSpaceOnUse">
<stop stop-color="#EED575"/>
<stop offset="1" stop-color="#BC7A2E"/>
</linearGradient>
<linearGradient id="paint1_linear_1668_1214" x1="32.4319" y1="88.1152" x2="32.432" y2="0.444332" gradientUnits="userSpaceOnUse">
<stop stop-color="#EED575"/>
<stop offset="1" stop-color="#BC7A2E"/>
</linearGradient>
<clipPath id="clip0_1668_1214">
<rect width="205" height="100" fill="white" transform="translate(0 0.444336)"/>
</clipPath>
<clipPath id="clip1_1668_1214">
<rect width="56.8345" height="100" fill="white" transform="translate(148 0.444336)"/>
</clipPath>
<clipPath id="clip2_1668_1214">
<rect width="56.8345" height="100" fill="white" transform="matrix(-1 0 0 1 57.835 0.444336)"/>
</clipPath>
</defs>
</svg>
